<svg width="272" height="250" viewBox="0 0 272 250" fill="none" xmlns="http://www.w3.org/2000/svg">
<g opacity="0.8">
<path opacity="0.8" d="M90.64 144.265L46 118.633V65.9292L90.64 91.8492V144.265Z" fill="url(#paint0_linear)"/>
<path opacity="0.8" d="M90.64 144.553L46 118.633V118.345V65.9291L46.288 65.6411L90.928 91.5611V91.8491V144.265L90.64 144.553ZM46.288 118.345L90.352 143.977V91.8491L46.288 66.2171V118.345Z" fill="white"/>
</g>
<g opacity="0.8">
<path opacity="0.8" d="M90.6395 144.84L45.1355 170.472L0.495544 144.84L45.9995 118.632L90.6395 144.84Z" fill="url(#paint1_linear)"/>
<path opacity="0.8" d="M45.4235 170.76L0.495544 144.84V144.552L45.9995 118.344H46.2875L90.9275 144.552V144.84L45.4235 170.76ZM1.07156 144.84L45.1355 170.472L90.0635 144.84L45.9995 118.92L1.07156 144.84Z" fill="white"/>
</g>
<g opacity="0.8">
<path opacity="0.8" d="M45.1355 170.475L0.495544 144.843V92.4268L45.1355 118.059V170.475Z" fill="url(#paint2_linear)"/>
<path opacity="0.8" d="M45.1356 170.762L0.495544 144.842V144.554V92.1381L0.783551 91.8501L45.4236 117.77V118.058V170.474L45.1356 170.762ZM0.783551 144.554L44.8476 170.186V118.058L0.783551 92.4261V144.554Z" fill="white"/>
</g>
<g opacity="0.8">
<path opacity="0.8" d="M90.6393 144.842L45.1352 170.474V118.058L90.6393 91.8496V144.842Z" fill="url(#paint3_linear)"/>
<path opacity="0.8" d="M45.4232 170.761L45.1352 170.473V118.057V117.769L90.6392 91.5615L90.9272 91.8495V144.841V145.129L45.4232 170.761ZM45.4232 118.345V170.473L90.3513 144.841V92.4255L45.4232 118.345Z" fill="white"/>
</g>
<g opacity="0.8">
<path opacity="0.8" d="M90.6395 91.8492L45.1355 118.057L0.495544 92.4252L45.9995 65.9292L90.6395 91.8492Z" fill="url(#paint4_linear)"/>
<path opacity="0.8" d="M45.1355 118.345L0.495544 92.7132V92.4252L45.9995 65.9292H46.2875L90.9275 91.5612V91.8491L45.1355 118.345ZM1.07156 92.4252L45.1355 118.057L90.0635 92.1371L45.9995 66.2172L1.07156 92.4252Z" fill="white"/>
</g>
<g opacity="0.8">
<path opacity="0.8" d="M180.784 144.265L136.144 118.633V65.9292L180.784 91.8492V144.265Z" fill="url(#paint5_linear)"/>
<path opacity="0.8" d="M180.784 144.553L136.144 118.633V118.345V65.9291L136.432 65.6411L181.072 91.5611V91.8491V144.265L180.784 144.553ZM136.432 118.345L180.496 143.977V91.8491L136.432 66.2171V118.345Z" fill="white"/>
</g>
<g opacity="0.8">
<path opacity="0.8" d="M180.784 144.84L135.28 170.472L90.6397 144.84L136.144 118.632L180.784 144.84Z" fill="url(#paint6_linear)"/>
<path opacity="0.8" d="M135.568 170.76L90.6397 144.84V144.552L136.144 118.344H136.432L181.072 144.552V144.84L135.568 170.76ZM91.2157 144.84L135.28 170.472L180.208 144.84L136.144 118.92L91.2157 144.84Z" fill="white"/>
</g>
<g opacity="0.8">
<path opacity="0.8" d="M135.28 170.475L90.6397 144.843V92.4268L135.28 118.059V170.475Z" fill="url(#paint7_linear)"/>
<path opacity="0.8" d="M135.28 170.762L90.6397 144.842V144.554V92.1381L90.9277 91.8501L135.568 117.77V118.058V170.474L135.28 170.762ZM90.9277 144.554L134.992 170.186V118.058L90.9277 92.4261V144.554Z" fill="white"/>
</g>
<g opacity="0.8">
<path opacity="0.8" d="M180.783 144.842L135.279 170.474V118.058L180.783 91.8496V144.842Z" fill="url(#paint8_linear)"/>
<path opacity="0.8" d="M135.567 170.761L135.279 170.473V118.057V117.769L180.783 91.5615L181.071 91.8495V144.841V145.129L135.567 170.761ZM135.567 118.345V170.473L180.495 144.841V92.4255L135.567 118.345Z" fill="white"/>
</g>
<g opacity="0.8">
<path opacity="0.8" d="M180.784 91.8492L135.28 118.057L90.6397 92.4252L136.144 65.9292L180.784 91.8492Z" fill="url(#paint9_linear)"/>
<path opacity="0.8" d="M135.28 118.345L90.6397 92.7133V92.4253L136.144 66.2173H136.432L181.072 91.8493V92.1373L135.28 118.345ZM91.2157 92.4253L135.28 118.057L180.208 92.1373L136.144 66.5053L91.2157 92.4253Z" fill="white"/>
</g>
<g opacity="0.8">
<path opacity="0.8" d="M270.928 144.265L226.288 118.633V65.9292L270.928 91.8492V144.265Z" fill="url(#paint10_linear)"/>
<path opacity="0.8" d="M270.928 144.553L226.288 118.633V118.345V65.9291L226.576 65.6411L271.216 91.5611V91.8491V144.265L270.928 144.553ZM226.576 118.345L270.64 143.977V91.8491L226.576 66.2171V118.345Z" fill="white"/>
</g>
<g opacity="0.8">
<path opacity="0.8" d="M270.928 144.84L225.424 170.472L180.784 144.84L226.288 118.632L270.928 144.84Z" fill="url(#paint11_linear)"/>
<path opacity="0.8" d="M225.712 170.76L180.784 144.84V144.552L226.288 118.344H226.576L271.216 144.552V144.84L225.712 170.76ZM181.36 144.84L225.424 170.472L270.352 144.84L226.288 118.92L181.36 144.84Z" fill="white"/>
</g>
<g opacity="0.8">
<path opacity="0.8" d="M225.424 170.475L180.784 144.843V92.4268L225.424 118.059V170.475Z" fill="url(#paint12_linear)"/>
<path opacity="0.8" d="M225.424 170.762L180.784 144.842V144.554V92.1381L181.072 91.8501L225.712 117.77V118.058V170.474L225.424 170.762ZM181.072 144.554L225.136 170.186V118.058L181.072 92.4261V144.554Z" fill="white"/>
</g>
<g opacity="0.8">
<path opacity="0.8" d="M270.927 144.842L225.424 170.474V118.058L270.927 91.8496V144.842Z" fill="url(#paint13_linear)"/>
<path opacity="0.8" d="M225.712 170.761L225.424 170.473V118.057V117.769L270.928 91.5615L271.216 91.8495V144.841V145.129L225.712 170.761ZM225.712 118.345V170.473L270.64 144.841V92.4255L225.712 118.345Z" fill="white"/>
</g>
<g opacity="0.8">
<path opacity="0.8" d="M270.928 91.8492L225.424 118.057L180.784 92.4252L226.288 65.9292L270.928 91.8492Z" fill="url(#paint14_linear)"/>
<path opacity="0.8" d="M225.424 118.345L180.784 92.7133V92.4253L226.288 66.2173H226.576L271.216 91.8493V92.1373L225.424 118.345ZM181.36 92.4253L225.424 118.057L270.352 92.1373L226.288 66.5053L181.36 92.4253Z" fill="white"/>
</g>
<g opacity="0.8">
<path opacity="0.8" d="M135.28 222.601L90.6397 196.969V144.265L135.28 170.185V222.601Z" fill="url(#paint15_linear)"/>
<path opacity="0.8" d="M135.28 222.888L90.6397 196.968V196.68V144.265L90.9277 143.977L135.568 169.897V170.185V222.6L135.28 222.888ZM90.9277 196.68L134.992 222.312V170.185L90.9277 144.553V196.68Z" fill="white"/>
</g>
<g opacity="0.8">
<path opacity="0.8" d="M135.279 223.176L89.7753 248.808L45.1352 223.176L90.6392 196.968L135.279 223.176Z" fill="url(#paint16_linear)"/>
<path opacity="0.8" d="M90.0632 249.096L45.1352 223.176V222.888L90.6391 196.68H90.9272L135.567 222.888V223.176L90.0632 249.096ZM45.7112 223.176L89.7752 248.808L134.703 223.176L90.6391 197.256L45.7112 223.176Z" fill="white"/>
</g>
<g opacity="0.8">
<path opacity="0.8" d="M89.7753 248.81L45.1352 223.178V170.474L89.7753 196.394V248.81Z" fill="url(#paint17_linear)"/>
<path opacity="0.8" d="M89.7752 249.097L45.1352 223.178V222.889V170.474L45.4232 170.186L90.0632 196.106V196.394V248.809L89.7752 249.097ZM45.4232 222.889L89.4872 248.521V196.394L45.4232 170.762V222.889Z" fill="white"/>
</g>
<g opacity="0.8">
<path opacity="0.8" d="M135.279 223.178L89.7748 248.81V196.394L135.279 170.186V223.178Z" fill="url(#paint18_linear)"/>
<path opacity="0.8" d="M90.0628 249.097L89.7748 248.809V196.393V196.105L135.279 169.897L135.567 170.185V223.177V223.465L90.0628 249.097ZM90.0628 196.393V248.521L134.991 222.889V170.473L90.0628 196.393Z" fill="white"/>
</g>
<g opacity="0.8">
<path opacity="0.8" d="M135.279 170.185L89.7753 196.393L45.1352 170.473L90.6392 144.265L135.279 170.185Z" fill="url(#paint19_linear)"/>
<path opacity="0.8" d="M90.0632 196.681L45.1352 170.761V170.473L90.6391 144.265H90.9272L135.567 170.185V170.473L90.0632 196.681ZM45.7112 170.473L89.7752 196.105L134.703 170.185L90.6391 144.553L45.7112 170.473Z" fill="white"/>
</g>
<g opacity="0.8">
<path opacity="0.8" d="M225.424 222.601L180.784 196.969V144.265L225.424 170.185V222.601Z" fill="url(#paint20_linear)"/>
<path opacity="0.8" d="M225.424 222.888L180.784 196.968V196.68V144.265L181.072 143.977L225.712 169.897V170.185V222.6L225.424 222.888ZM181.072 196.68L225.136 222.312V170.185L181.072 144.553V196.68Z" fill="white"/>
</g>
<g opacity="0.8">
<path opacity="0.8" d="M225.423 223.176L179.919 248.808L135.279 223.176L180.783 196.968L225.423 223.176Z" fill="url(#paint21_linear)"/>
<path opacity="0.8" d="M180.207 249.096L135.279 223.176V222.888L180.783 196.68H181.071L225.711 222.888V223.176L180.207 249.096ZM135.855 223.176L179.919 248.808L224.847 223.176L180.783 197.256L135.855 223.176Z" fill="white"/>
</g>
<g opacity="0.8">
<path opacity="0.8" d="M179.919 248.81L135.279 223.178V170.474L179.919 196.394V248.81Z" fill="url(#paint22_linear)"/>
<path opacity="0.8" d="M179.919 249.097L135.279 223.178V222.889V170.474L135.567 170.186L180.207 196.106V196.394V248.809L179.919 249.097ZM135.567 222.889L179.631 248.521V196.394L135.567 170.762V222.889Z" fill="white"/>
</g>
<g opacity="0.8">
<path opacity="0.8" d="M225.423 223.178L179.919 248.81V196.394L225.423 170.186V223.178Z" fill="url(#paint23_linear)"/>
<path opacity="0.8" d="M180.207 249.097L179.919 248.809V196.393V196.105L225.423 169.897L225.711 170.185V223.177V223.465L180.207 249.097ZM180.207 196.393V248.521L225.135 222.889V170.473L180.207 196.393Z" fill="white"/>
</g>
<g opacity="0.8">
<path opacity="0.8" d="M225.423 170.185L179.919 196.393L135.279 170.473L180.783 144.265L225.423 170.185Z" fill="url(#paint24_linear)"/>
<path opacity="0.8" d="M180.207 196.681L135.279 170.761V170.473L180.783 144.265H181.071L225.711 170.185V170.473L180.207 196.681ZM135.855 170.473L179.919 196.105L224.847 170.185L180.783 144.553L135.855 170.473Z" fill="white"/>
</g>
<path d="M137.008 56.1373C137.872 56.7133 138.448 57.5773 138.448 58.4413C138.448 59.3053 137.872 59.5933 137.008 59.3053C136.144 58.7293 135.568 57.8653 135.568 57.0013C135.568 56.1373 136.144 55.8493 137.008 56.1373Z" fill="#38EBFF"/>
<path d="M137.008 63.9145C137.872 64.4904 138.448 65.3544 138.448 66.2184C138.448 67.0824 137.872 67.3704 137.008 67.0824C136.144 66.5064 135.568 65.6425 135.568 64.7785C135.568 63.6265 136.144 63.3385 137.008 63.9145Z" fill="#38EBFF"/>
<path d="M137.008 71.4028C137.872 71.9788 138.448 72.8428 138.448 73.7068C138.448 74.5708 137.872 74.8588 137.008 74.5708C136.144 73.9948 135.568 73.1308 135.568 72.2668C135.568 71.4028 136.144 70.8268 137.008 71.4028Z" fill="#38EBFF"/>
<path d="M137.008 78.8907C137.872 79.4667 138.448 80.3307 138.448 81.1946C138.448 82.0586 137.872 82.3466 137.008 82.0586C136.144 81.4826 135.568 80.6187 135.568 79.7547C135.568 78.8907 136.144 78.6027 137.008 78.8907Z" fill="#38EBFF"/>
<path d="M129.519 51.817C130.383 52.393 130.959 53.257 130.959 54.121C130.959 54.985 130.383 55.273 129.519 54.985C128.655 54.409 128.079 53.545 128.079 52.681C128.079 51.817 128.655 51.529 129.519 51.817Z" fill="#38EBFF"/>
<path d="M122.031 47.7851C122.895 48.3611 123.471 49.2251 123.471 50.0891C123.471 50.953 122.895 51.2411 122.031 50.9531C121.167 50.3771 120.591 49.513 120.591 48.649C120.879 47.497 121.455 47.2091 122.031 47.7851Z" fill="#38EBFF"/>
<path d="M114.831 43.4648C115.695 44.0408 116.271 44.9048 116.271 45.7688C116.271 46.6328 115.695 46.9207 114.831 46.6327C113.967 46.0567 113.391 45.1927 113.391 44.3287C113.391 43.4647 113.967 42.8888 114.831 43.4648Z" fill="#38EBFF"/>
<path d="M107.343 39.1469C108.207 39.7229 108.783 40.5869 108.783 41.4509C108.783 42.3149 108.207 42.6029 107.343 42.3149C106.479 41.7389 105.903 40.8749 105.903 40.0109C105.903 39.1469 106.479 38.5709 107.343 39.1469Z" fill="#38EBFF"/>
<path d="M100.143 34.8258C101.007 35.4018 101.583 36.2658 101.583 37.1298C101.583 37.9938 101.007 38.2818 100.143 37.9938C99.2787 37.4178 98.7028 36.5538 98.7028 35.6898C98.7028 34.8258 99.2787 34.5378 100.143 34.8258Z" fill="#38EBFF"/>
<path d="M101.585 24.1687L88.3369 16.3927V10.6327C88.3369 6.31271 91.217 4.5847 94.961 6.6007C98.705 8.6167 101.585 13.8007 101.585 18.1207V24.1687ZM106.481 27.0487L105.905 26.7607V21.0007C105.905 13.8007 101.009 5.1607 94.961 1.7047C88.913 -1.7513 84.0169 1.12871 84.0169 8.32872V13.8007L83.4409 13.5127C81.1369 12.3607 79.4089 12.9367 79.4089 15.2407V32.5207C79.4089 41.1607 86.321 52.3927 94.961 57.2887C103.601 62.1847 110.513 59.3047 110.513 50.6647V33.3847C110.513 31.0807 108.785 28.2007 106.481 27.0487Z" fill="#13263D"/>
<path d="M99.5687 24.7453L86.3206 16.9694V11.2094C86.3206 6.88935 89.2006 5.16137 92.9446 7.17737C96.6886 9.19337 99.5687 14.3774 99.5687 18.6974V24.7453ZM104.465 27.6253L103.889 27.3373V21.5774C103.889 14.3774 98.9926 5.73737 92.9446 2.28137C86.8966 -1.17463 82.0006 1.70535 82.0006 8.90535V14.6654L81.4246 14.3774C79.1206 13.2254 77.3926 13.8014 77.3926 16.1054V33.3854C77.3926 42.0254 84.3046 53.2574 92.9446 58.1534C101.585 63.0494 108.497 60.1693 108.497 51.5293V34.2493C108.497 31.9453 106.769 29.0653 104.465 27.6253Z" fill="#13263D"/>
<path d="M97.2646 25.6101L84.0166 17.8341V12.0741C84.0166 7.75409 86.8966 6.02611 90.6406 8.04211C94.3846 10.0581 97.2646 15.2421 97.2646 19.5621V25.6101ZM102.449 28.4901L101.873 28.2021V22.4421C101.873 15.2421 96.9766 6.60211 90.9286 3.14611C84.8806 -0.309887 79.9846 2.5701 79.9846 9.77009V15.5301L79.4086 15.2421C77.1046 14.0901 75.3766 14.6661 75.3766 16.9701V34.2501C75.3766 42.8901 82.2886 54.1221 90.9286 59.0181C99.5686 63.9141 106.481 61.0341 106.481 52.3941V35.1141C106.481 32.5221 104.753 29.6421 102.449 28.4901Z" fill="#13263D"/>
<path d="M101.871 38.5701L79.6956 25.8981V9.77009C79.6956 2.5701 84.5915 -0.309885 90.6395 3.14611C96.6874 6.6021 101.583 15.2421 101.583 22.4421V38.5701H101.871ZM84.0155 23.0181L97.2635 30.7941V19.8501C97.2635 15.5301 94.3835 10.3461 90.6395 8.33011C86.8955 6.31411 84.0155 8.04209 84.0155 12.3621V23.0181Z" fill="url(#paint25_linear)"/>
<path d="M90.6402 58.7284C82.0002 53.8324 75.0883 42.6005 75.0883 33.9605V16.6805C75.0883 14.3765 76.8162 13.8005 79.1202 14.9525L102.448 28.4885C104.752 29.6405 106.48 32.5204 106.48 34.8244V52.1045C106.48 60.7445 99.2802 63.6244 90.6402 58.7284Z" fill="url(#paint26_linear)"/>
<path d="M94.9606 37.7071C94.9606 35.1151 92.9446 31.6591 90.6406 30.2191C88.3366 28.7791 86.3206 29.9311 86.3206 32.8111C86.3206 34.8271 87.4726 37.419 89.2006 39.147L86.8966 45.7711L90.6406 48.0751L94.3846 50.3791L92.0806 40.8751C93.8086 41.1631 94.9606 40.0111 94.9606 37.7071Z" fill="#13263D"/>
<path d="M45.7121 59.8788C44.8481 60.4548 44.2721 61.3188 44.2721 62.1828C44.2721 63.0468 44.8481 63.3347 45.7121 63.0468C46.5761 62.4708 47.1521 61.6068 47.1521 60.7428C46.8641 59.5908 46.2881 59.3028 45.7121 59.8788Z" fill="#38EBFF"/>
<path d="M45.7121 67.3671C44.8481 67.9431 44.2721 68.8071 44.2721 69.6711C44.2721 70.5351 44.8481 70.8231 45.7121 70.5351C46.5761 69.9591 47.1521 69.0951 47.1521 68.2311C46.8641 67.3671 46.2881 66.7911 45.7121 67.3671Z" fill="#38EBFF"/>
<path d="M45.7121 74.8551C44.8481 75.4311 44.2721 76.2951 44.2721 77.1591C44.2721 78.0231 44.8481 78.311 45.7121 78.023C46.5761 77.447 47.1521 76.583 47.1521 75.719C46.8641 74.855 46.2881 74.5671 45.7121 74.8551Z" fill="#38EBFF"/>
<path d="M45.7121 82.6322C44.8481 83.2083 44.2721 84.0723 44.2721 84.9363C44.2721 85.8003 44.8481 86.0883 45.7121 85.8003C46.5761 85.2243 47.1521 84.3603 47.1521 83.4963C46.8641 82.6323 46.2881 82.0562 45.7121 82.6322Z" fill="#38EBFF"/>
<path d="M52.9121 55.5585C52.048 56.1345 51.472 56.9985 51.472 57.8625C51.472 58.7265 52.048 59.0145 52.9121 58.7265C53.7761 58.1505 54.3521 57.2865 54.3521 56.4225C54.3521 55.5585 53.7761 54.9825 52.9121 55.5585Z" fill="#38EBFF"/>
<path d="M60.4003 51.2377C59.5363 51.8137 58.9603 52.6777 58.9603 53.5417C58.9603 54.4057 59.5363 54.6937 60.4003 54.4057C61.2643 53.8297 61.8403 52.9657 61.8403 52.1017C61.8403 51.2377 60.9763 50.6617 60.4003 51.2377Z" fill="#38EBFF"/>
<path d="M67.6003 46.9195C66.7363 47.4955 66.1603 48.3595 66.1603 49.2235C66.1603 50.0875 66.7363 50.3756 67.6003 50.0876C68.4643 49.5116 69.0403 48.6476 69.0403 47.7835C69.0403 46.9195 68.4643 46.6315 67.6003 46.9195Z" fill="#38EBFF"/>
<path d="M75.0886 42.5992C74.2246 43.1752 73.6486 44.0392 73.6486 44.9032C73.6486 45.7672 74.2246 46.0552 75.0886 45.7672C75.9526 45.1912 76.5286 44.3272 76.5286 43.4632C76.5286 42.5992 75.9526 42.3112 75.0886 42.5992Z" fill="#38EBFF"/>
<path d="M82.5752 38.5673C81.7112 39.1433 81.1351 40.0073 81.1351 40.8713C81.1351 41.7354 81.7112 42.0233 82.5752 41.7353C83.4393 41.1593 84.0153 40.2953 84.0153 39.4313C83.7272 38.2793 83.1512 37.9913 82.5752 38.5673Z" fill="#38EBFF"/>
<defs>
<linearGradient id="paint0_linear" x1="89.7673" y1="142.24" x2="63.8836" y2="52.5762" gradientUnits="userSpaceOnUse">
<stop stop-color="#586FED"/>
<stop offset="1" stop-color="#4DEDFF"/>
</linearGradient>
<linearGradient id="paint1_linear" x1="58.8437" y1="167.674" x2="52.5394" y2="113.07" gradientUnits="userSpaceOnUse">
<stop stop-color="#586FED"/>
<stop offset="1" stop-color="#4DEDFF"/>
</linearGradient>
<linearGradient id="paint2_linear" x1="55.3249" y1="187.594" x2="1.43718" y2="94.2556" gradientUnits="userSpaceOnUse">
<stop stop-color="#586FED"/>
<stop offset="1" stop-color="#4DEDFF"/>
</linearGradient>
<linearGradient id="paint3_linear" x1="76.965" y1="146.783" x2="58.0722" y2="114.06" gradientUnits="userSpaceOnUse">
<stop stop-color="#586FED"/>
<stop offset="1" stop-color="#4DEDFF"/>
</linearGradient>
<linearGradient id="paint4_linear" x1="69.293" y1="104.867" x2="18.4235" y2="77.2995" gradientUnits="userSpaceOnUse">
<stop stop-color="#586FED"/>
<stop offset="1" stop-color="#4DEDFF"/>
</linearGradient>
<linearGradient id="paint5_linear" x1="179.891" y1="142.242" x2="154.011" y2="52.575" gradientUnits="userSpaceOnUse">
<stop stop-color="#CC7FED"/>
<stop offset="1" stop-color="#792BFF"/>
</linearGradient>
<linearGradient id="paint6_linear" x1="148.962" y1="167.674" x2="142.659" y2="113.072" gradientUnits="userSpaceOnUse">
<stop stop-color="#CC7FED"/>
<stop offset="1" stop-color="#792BFF"/>
</linearGradient>
<linearGradient id="paint7_linear" x1="145.446" y1="187.594" x2="91.5584" y2="94.2556" gradientUnits="userSpaceOnUse">
<stop stop-color="#CC7FED"/>
<stop offset="1" stop-color="#792BFF"/>
</linearGradient>
<linearGradient id="paint8_linear" x1="167.086" y1="146.783" x2="148.193" y2="114.06" gradientUnits="userSpaceOnUse">
<stop stop-color="#CC7FED"/>
<stop offset="1" stop-color="#792BFF"/>
</linearGradient>
<linearGradient id="paint9_linear" x1="159.414" y1="104.867" x2="108.548" y2="77.2995" gradientUnits="userSpaceOnUse">
<stop stop-color="#CC7FED"/>
<stop offset="1" stop-color="#792BFF"/>
</linearGradient>
<linearGradient id="paint10_linear" x1="270.013" y1="142.242" x2="244.132" y2="52.575" gradientUnits="userSpaceOnUse">
<stop stop-color="#CC7FED"/>
<stop offset="1" stop-color="#792BFF"/>
</linearGradient>
<linearGradient id="paint11_linear" x1="239.086" y1="167.674" x2="232.782" y2="113.072" gradientUnits="userSpaceOnUse">
<stop stop-color="#CC7FED"/>
<stop offset="1" stop-color="#792BFF"/>
</linearGradient>
<linearGradient id="paint12_linear" x1="235.57" y1="187.594" x2="181.682" y2="94.2557" gradientUnits="userSpaceOnUse">
<stop stop-color="#CC7FED"/>
<stop offset="1" stop-color="#792BFF"/>
</linearGradient>
<linearGradient id="paint13_linear" x1="257.207" y1="146.783" x2="238.317" y2="114.06" gradientUnits="userSpaceOnUse">
<stop stop-color="#CC7FED"/>
<stop offset="1" stop-color="#792BFF"/>
</linearGradient>
<linearGradient id="paint14_linear" x1="249.535" y1="104.867" x2="198.669" y2="77.2995" gradientUnits="userSpaceOnUse">
<stop stop-color="#CC7FED"/>
<stop offset="1" stop-color="#792BFF"/>
</linearGradient>
<linearGradient id="paint15_linear" x1="134.407" y1="220.554" x2="108.527" y2="130.888" gradientUnits="userSpaceOnUse">
<stop stop-color="#CC7FED"/>
<stop offset="1" stop-color="#792BFF"/>
</linearGradient>
<linearGradient id="paint16_linear" x1="103.482" y1="245.986" x2="97.1784" y2="191.385" gradientUnits="userSpaceOnUse">
<stop stop-color="#CC7FED"/>
<stop offset="1" stop-color="#792BFF"/>
</linearGradient>
<linearGradient id="paint17_linear" x1="99.9647" y1="265.905" x2="46.0771" y2="172.567" gradientUnits="userSpaceOnUse">
<stop stop-color="#CC7FED"/>
<stop offset="1" stop-color="#792BFF"/>
</linearGradient>
<linearGradient id="paint18_linear" x1="121.605" y1="225.096" x2="102.712" y2="192.373" gradientUnits="userSpaceOnUse">
<stop stop-color="#CC7FED"/>
<stop offset="1" stop-color="#792BFF"/>
</linearGradient>
<linearGradient id="paint19_linear" x1="113.933" y1="183.179" x2="63.0632" y2="155.612" gradientUnits="userSpaceOnUse">
<stop stop-color="#CC7FED"/>
<stop offset="1" stop-color="#792BFF"/>
</linearGradient>
<linearGradient id="paint20_linear" x1="224.528" y1="220.554" x2="198.648" y2="130.888" gradientUnits="userSpaceOnUse">
<stop stop-color="#CC7FED"/>
<stop offset="1" stop-color="#792BFF"/>
</linearGradient>
<linearGradient id="paint21_linear" x1="193.605" y1="245.986" x2="187.3" y2="191.384" gradientUnits="userSpaceOnUse">
<stop stop-color="#CC7FED"/>
<stop offset="1" stop-color="#792BFF"/>
</linearGradient>
<linearGradient id="paint22_linear" x1="190.086" y1="265.905" x2="136.198" y2="172.567" gradientUnits="userSpaceOnUse">
<stop stop-color="#CC7FED"/>
<stop offset="1" stop-color="#792BFF"/>
</linearGradient>
<linearGradient id="paint23_linear" x1="211.726" y1="225.096" x2="192.833" y2="192.373" gradientUnits="userSpaceOnUse">
<stop stop-color="#CC7FED"/>
<stop offset="1" stop-color="#792BFF"/>
</linearGradient>
<linearGradient id="paint24_linear" x1="204.054" y1="183.179" x2="153.187" y2="155.612" gradientUnits="userSpaceOnUse">
<stop stop-color="#CC7FED"/>
<stop offset="1" stop-color="#792BFF"/>
</linearGradient>
<linearGradient id="paint25_linear" x1="90.7576" y1="2.80915" x2="90.7576" y2="48.1029" gradientUnits="userSpaceOnUse">
<stop stop-color="#4557FF"/>
<stop offset="1" stop-color="#00FFC3"/>
</linearGradient>
<linearGradient id="paint26_linear" x1="75.071" y1="37.7102" x2="106.446" y2="37.7102" gradientUnits="userSpaceOnUse">
<stop stop-color="#696DCF"/>
<stop offset="1" stop-color="#94F4FF"/>
</linearGradient>
</defs>
</svg>
