<svg xmlns="http://www.w3.org/2000/svg" xmlns:xlink="http://www.w3.org/1999/xlink" width="440.864" height="345.534" viewBox="0 0 440.864 345.534">
  <defs>
    <linearGradient id="linear-gradient" x1="-0.037" y1="0.377" x2="0.511" y2="0.741" gradientUnits="objectBoundingBox">
      <stop offset="0" stop-color="#d3f541"/>
      <stop offset="1" stop-color="#62a538"/>
    </linearGradient>
    <linearGradient id="linear-gradient-2" x1="0.471" y1="-0.025" x2="0.569" y2="0.589" gradientUnits="objectBoundingBox">
      <stop offset="0" stop-color="#3bf83f"/>
      <stop offset="0" stop-color="#39f541"/>
      <stop offset="1" stop-color="#048285"/>
    </linearGradient>
    <linearGradient id="linear-gradient-3" x1="0.705" y1="0.08" x2="0.354" y2="0.508" gradientUnits="objectBoundingBox">
      <stop offset="0" stop-color="#4bbbf1"/>
      <stop offset="1" stop-color="#4b59b6"/>
    </linearGradient>
    <linearGradient id="linear-gradient-4" x1="0.439" y1="1.063" x2="0.523" y2="0.439" gradientUnits="objectBoundingBox">
      <stop offset="0" stop-color="#e9199a"/>
      <stop offset="1" stop-color="#6e149d"/>
    </linearGradient>
    <linearGradient id="linear-gradient-5" x1="0.986" y1="0.487" x2="0.377" y2="0.506" gradientUnits="objectBoundingBox">
      <stop offset="0" stop-color="#566eef"/>
      <stop offset="1" stop-color="#50378c"/>
    </linearGradient>
    <linearGradient id="linear-gradient-6" x1="-0.137" y1="0.68" x2="0.544" y2="0.344" gradientUnits="objectBoundingBox">
      <stop offset="0" stop-color="#ffcd39"/>
      <stop offset="1" stop-color="#ff6239"/>
    </linearGradient>
  </defs>
  <g id="chart-done2" transform="translate(-38.662 -86.588)">
    <g id="svg-container">
      <path id="svg5" d="M254.112,256.688,165.4,167.975h0l-5.781-5.78a133.218,133.218,0,0,0-39.14,94.493q0,5.4.427,10.7l8.148-.654h0Z" fill="url(#linear-gradient)"/>
      <path id="svg6" d="M281.026,134.132A125.606,125.606,0,0,0,165.4,167.975l6.073,6.072h0l82.641,82.641,25.072-114.167h0Z" fill="url(#linear-gradient-2)"/>
      <path id="svg1" d="M307.739,152.823a116.02,116.02,0,0,0-28.555-10.3L254.112,256.687Z" fill="url(#linear-gradient-3)"/>
      <path id="svg3" d="M254.112,256.688,139.018,324.619A133.645,133.645,0,0,0,348.6,351.181Z" fill="url(#linear-gradient-4)"/>
      <path id="svg2" d="M379.571,256.688a125.444,125.444,0,0,0-67.892-111.495L254.112,256.688l82.641,82.642h0l6.072,6.071A125.067,125.067,0,0,0,379.571,256.688Z" fill="url(#linear-gradient-5)"/>
      <path id="svg4" d="M137.613,266.048h0l-26.134,2.1a142.213,142.213,0,0,0,19.4,61.277l123.238-72.737Z" fill="url(#linear-gradient-6)"/>
    </g>
    <circle id="elipse-bg" cx="78.575" cy="78.575" r="78.575" transform="translate(175.537 178.113)" fill="#3b354f" opacity="0.3"/>
    <circle id="Ellipse_4" data-name="Ellipse 4" cx="53.91" cy="53.91" r="53.91" transform="translate(200.202 202.778)" fill="#fff"/>
    <circle id="Ellipse_5" data-name="Ellipse 5" cx="46.188" cy="46.188" r="46.188" transform="translate(207.924 210.5)" fill="#1d262d"/>
    <circle id="Ellipse_6" data-name="Ellipse 6" cx="41.485" cy="41.485" r="41.485" transform="translate(212.627 215.203)" fill="#fff"/>
    <circle id="Ellipse_7" data-name="Ellipse 7" cx="34.71" cy="34.71" r="34.71" transform="translate(219.402 221.978)" fill="#1d262d"/>
    <rect id="Rectangle_3" data-name="Rectangle 3" width="74.015" height="18.065" transform="translate(340.319 111.4)" fill="none"/>
    <rect id="Rectangle_4" data-name="Rectangle 4" width="77.544" height="13.198" transform="translate(353.714 96.11)" fill="none"/>
    <rect id="Rectangle_5" data-name="Rectangle 5" width="14.693" height="13.198" transform="translate(339.576 96.11)" fill="none"/>
    <circle id="Ellipse_8" data-name="Ellipse 8" cx="3.269" cy="3.269" r="3.269" transform="translate(327.381 98.15)" fill="#462b3c"/>
    <rect id="Rectangle_6" data-name="Rectangle 6" width="74.015" height="18.066" transform="translate(126.827 106.108)" fill="none"/>
    <rect id="Rectangle_7" data-name="Rectangle 7" width="47.512" height="13.197" transform="translate(140.222 90.819)" fill="none"/>
    <rect id="Rectangle_8" data-name="Rectangle 8" width="14.693" height="13.197" transform="translate(126.083 90.819)" fill="none"/>
    <circle id="Ellipse_9" data-name="Ellipse 9" cx="3.269" cy="3.269" r="3.269" transform="translate(181.796 92.859)" fill="#462b3c"/>
    <rect id="Rectangle_9" data-name="Rectangle 9" width="74.015" height="18.065" transform="translate(40.745 178.374)" fill="none"/>
    <rect id="Rectangle_10" data-name="Rectangle 10" width="47.512" height="13.197" transform="translate(54.14 163.084)" fill="none"/>
    <rect id="Rectangle_11" data-name="Rectangle 11" width="14.692" height="13.197" transform="translate(40.001 163.084)" fill="none"/>
    <circle id="Ellipse_10" data-name="Ellipse 10" cx="3.269" cy="3.269" r="3.269" transform="translate(95.714 165.124)" fill="#462b3c"/>
    <rect id="Rectangle_12" data-name="Rectangle 12" width="74.014" height="18.066" transform="translate(133.85 412.574)" fill="none"/>
    <rect id="Rectangle_13" data-name="Rectangle 13" width="47.512" height="13.197" transform="translate(147.245 397.285)" fill="none"/>
    <text id="_3." data-name="3." transform="translate(133.106 406.055)" fill="#e9199a" font-size="12.35" font-family="SegoeUI, Segoe UI"><tspan x="0" y="0">3.</tspan></text>
    <circle id="Ellipse_11" data-name="Ellipse 11" cx="3.269" cy="3.269" r="3.269" transform="translate(188.819 399.325)" fill="#462b3c"/>
    <g id="Group_3" data-name="Group 3">
      <path id="Path_37" data-name="Path 37" d="M224.2,354.547l-18.877,48.047H192.088" fill="none" stroke="#462b3c" stroke-linecap="round" stroke-miterlimit="10" stroke-width="2.964"/>
      <g id="Group_3-2" data-name="Group 3">
        <text id="Lorem_ipsum_dolor_sit_amet_consectetuer_adipiscing." data-name="Lorem ipsum dolor sit amet, 
consectetuer adipiscing." transform="translate(133.851 416.333)" fill="#9e9099" font-size="5.29" font-family="SegoeUI, Segoe UI"><tspan x="0" y="0">Lorem ipsum dolor sit amet, </tspan><tspan x="0" y="6.35">consectetuer adipiscing.</tspan></text>
        <text id="title" transform="translate(147.246 406.055)" fill="#462b3c" font-size="12.35" font-family="SegoeUI, Segoe UI"><tspan x="0" y="0">title</tspan></text>
        <rect id="Rectangle_14" data-name="Rectangle 14" width="14.693" height="13.197" transform="translate(133.106 397.285)" fill="none"/>
        <line id="Line_2" data-name="Line 2" x2="12.85" transform="translate(133.85 430.64)" fill="none" stroke="#462b3c" stroke-linecap="round" stroke-miterlimit="10" stroke-width="2.964"/>
      </g>
    </g>
    <g id="Group_2" data-name="Group 2">
      <rect id="Rectangle_15" data-name="Rectangle 15" width="74.015" height="18.064" transform="translate(405.511 315.326)" fill="none"/>
      <text id="Lorem_ipsum_dolor_sit_amet_consectetuer_adipiscing.-2" data-name="Lorem ipsum dolor sit amet, 
consectetuer adipiscing." transform="translate(405.511 319.085)" fill="#9e9099" font-size="5.29" font-family="SegoeUI, Segoe UI"><tspan x="0" y="0">Lorem ipsum dolor sit amet, </tspan><tspan x="0" y="6.35">consectetuer adipiscing.</tspan></text>
      <rect id="Rectangle_16" data-name="Rectangle 16" width="47.512" height="13.197" transform="translate(418.906 300.037)" fill="none"/>
      <text id="title-2" data-name="title" transform="translate(418.907 308.806)" fill="#462b3c" font-size="12.35" font-family="SegoeUI, Segoe UI"><tspan x="0" y="0">title</tspan></text>
      <rect id="Rectangle_17" data-name="Rectangle 17" width="14.693" height="13.197" transform="translate(404.768 300.037)" fill="none"/>
      <text id="_2." data-name="2." transform="translate(404.768 308.806)" fill="#566eef" font-size="12.35" font-family="SegoeUI, Segoe UI"><tspan x="0" y="0">2.</tspan></text>
      <path id="Path_38" data-name="Path 38" d="M345.877,290.586l29.675,14.759h20.29" fill="none" stroke="#462b3c" stroke-linecap="round" stroke-miterlimit="10" stroke-width="2.964"/>
      <circle id="Ellipse_12" data-name="Ellipse 12" cx="3.269" cy="3.269" r="3.269" transform="translate(392.573 302.076)" fill="#462b3c"/>
      <line id="Line_3" data-name="Line 3" x2="12.85" transform="translate(405.96 332.299)" fill="none" stroke="#462b3c" stroke-linecap="round" stroke-miterlimit="10" stroke-width="2.964"/>
    </g>
    <g id="Group_1" data-name="Group 1">
      <path id="Path_34" data-name="Path 34" d="M286.6,166.566l23.762-65.147h20.291" fill="none" stroke="#462b3c" stroke-linecap="round" stroke-miterlimit="10" stroke-width="2.964"/>
      <g id="Group_1-2" data-name="Group 1">
        <text id="Lorem_ipsum_dolor_sit_amet_consectetuer_adipiscing.-3" data-name="Lorem ipsum dolor sit amet, 
consectetuer adipiscing." transform="translate(340.32 115.159)" fill="#9e9099" font-size="5.29" font-family="SegoeUI, Segoe UI"><tspan x="0" y="0">Lorem ipsum dolor sit amet, </tspan><tspan x="0" y="6.35">consectetuer adipiscing.</tspan></text>
        <text id="title-3" data-name="title" transform="translate(353.715 104.88)" fill="#462b3c" font-size="12.35" font-family="SegoeUI, Segoe UI"><tspan x="0" y="0">title</tspan></text>
        <text id="_1." data-name="1." transform="translate(339.576 104.88)" fill="#4bbbf1" font-size="12.35" font-family="SegoeUI, Segoe UI"><tspan x="0" y="0">1.</tspan></text>
        <line id="Line_4" data-name="Line 4" x2="12.85" transform="translate(340.394 128.237)" fill="none" stroke="#462b3c" stroke-linecap="round" stroke-miterlimit="10" stroke-width="2.964"/>
      </g>
    </g>
    <g id="Group_6" data-name="Group 6">
      <path id="Path_35" data-name="Path 35" d="M228.1,163.447,205.356,96.128H185.065" fill="none" stroke="#462b3c" stroke-linecap="round" stroke-miterlimit="10" stroke-width="2.964"/>
      <g id="Group_6-2" data-name="Group 6">
        <text id="Lorem_ipsum_dolor_sit_amet_consectetuer_adipiscing.-4" data-name="Lorem ipsum dolor sit amet, 
consectetuer adipiscing." transform="translate(126.827 109.867)" fill="#9e9099" font-size="5.29" font-family="SegoeUI, Segoe UI"><tspan x="0" y="0">Lorem ipsum dolor sit amet, </tspan><tspan x="0" y="6.35">consectetuer adipiscing.</tspan></text>
        <text id="title-4" data-name="title" transform="translate(140.222 99.588)" fill="#462b3c" font-size="12.35" font-family="SegoeUI, Segoe UI"><tspan x="0" y="0">title</tspan></text>
        <text id="_6." data-name="6." transform="translate(126.083 99.588)" fill="#3bf83f" font-size="12.35" font-family="SegoeUI, Segoe UI"><tspan x="0" y="0">6.</tspan></text>
        <line id="Line_5" data-name="Line 5" x2="12.85" transform="translate(127.591 122.774)" fill="none" stroke="#462b3c" stroke-linecap="round" stroke-miterlimit="10" stroke-width="2.964"/>
      </g>
    </g>
    <g id="Group_5" data-name="Group 5">
      <path id="Path_36" data-name="Path 36" d="M166.061,202.447l-46.787-34.054H98.984" fill="none" stroke="#462b3c" stroke-linecap="round" stroke-miterlimit="10" stroke-width="2.964"/>
      <g id="Group_5-2" data-name="Group 5">
        <text id="Lorem_ipsum_dolor_sit_amet_consectetuer_adipiscing.-5" data-name="Lorem ipsum dolor sit amet, 
consectetuer adipiscing." transform="translate(40.745 182.132)" fill="#9e9099" font-size="5.29" font-family="SegoeUI, Segoe UI"><tspan x="0" y="0">Lorem ipsum dolor sit amet, </tspan><tspan x="0" y="6.35">consectetuer adipiscing.</tspan></text>
        <text id="title-5" data-name="title" transform="translate(54.141 171.854)" fill="#462b3c" font-size="12.35" font-family="SegoeUI, Segoe UI"><tspan x="0" y="0">title</tspan></text>
        <text id="_5." data-name="5." transform="translate(40.002 171.854)" fill="#d3f541" font-size="12.35" font-family="SegoeUI, Segoe UI"><tspan x="0" y="0">5.</tspan></text>
        <line id="Line_6" data-name="Line 6" x2="12.849" transform="translate(40.908 196.553)" fill="none" stroke="#462b3c" stroke-linecap="round" stroke-miterlimit="10" stroke-width="2.964"/>
      </g>
    </g>
    <g id="Group_4" data-name="Group 4">
      <rect id="Rectangle_18" data-name="Rectangle 18" width="74.015" height="18.066" transform="translate(40.241 325.879)" fill="none"/>
      <text id="Lorem_ipsum_dolor_sit_amet_consectetuer_adipiscing.-6" data-name="Lorem ipsum dolor sit amet, 
consectetuer adipiscing." transform="translate(40.242 329.638)" fill="#9e9099" font-size="5.29" font-family="SegoeUI, Segoe UI"><tspan x="0" y="0">Lorem ipsum dolor sit amet, </tspan><tspan x="0" y="6.35">consectetuer adipiscing.</tspan></text>
      <rect id="Rectangle_19" data-name="Rectangle 19" width="47.512" height="13.197" transform="translate(53.637 310.59)" fill="none"/>
      <text id="title-6" data-name="title" transform="translate(53.637 319.359)" fill="#462b3c" font-size="12.35" font-family="SegoeUI, Segoe UI"><tspan x="0" y="0">title</tspan></text>
      <rect id="Rectangle_20" data-name="Rectangle 20" width="14.692" height="13.197" transform="translate(39.498 310.59)" fill="none"/>
      <text id="_4." data-name="4." transform="translate(39.499 319.359)" fill="#ffcd39" font-size="12.35" font-family="SegoeUI, Segoe UI"><tspan x="0" y="0">4.</tspan></text>
      <path id="Path_39" data-name="Path 39" d="M155.557,297.606,111.713,315.9H98.48" fill="none" stroke="#462b3c" stroke-linecap="round" stroke-miterlimit="10" stroke-width="2.964"/>
      <circle id="Ellipse_13" data-name="Ellipse 13" cx="3.269" cy="3.269" r="3.269" transform="translate(95.211 312.629)" fill="#462b3c"/>
      <line id="Line_7" data-name="Line 7" x2="12.85" transform="translate(40.144 342.795)" fill="none" stroke="#462b3c" stroke-linecap="round" stroke-miterlimit="10" stroke-width="2.964"/>
    </g>
    <g id="Logo-text">
      <rect id="Rectangle_21" data-name="Rectangle 21" width="47.512" height="39" transform="translate(230.355 243.631)" fill="none"/>
      <g id="Group">
        <text id="your" transform="translate(237.639 252.751)" fill="#fff" font-size="12.84" font-family="SegoeUI, Segoe UI"><tspan x="0" y="0">your</tspan></text>
        <text id="logo" transform="translate(237.119 268.164)" fill="#fff" font-size="12.84" font-family="SegoeUI, Segoe UI"><tspan x="0" y="0">logo</tspan></text>
      </g>
    </g>
  </g>
</svg>
