<svg xmlns="http://www.w3.org/2000/svg" width="271.153" height="308.454" viewBox="0 0 271.153 308.454">
  <g id="image-blockhain" transform="translate(-1151 -386)">
    <path id="part-bottom" d="M75.639,275.53c5.149,3.892,54.728,32.926,59.927,32.924,5.034,0,55.334-29.269,59.878-33.007-2-6.293-21.212-15.462-27.9-19.2-36.888-20.615-23.125-24.661-77.881,8.053-8.553,5.11-11.885,4.922-14.025,11.228Z" transform="translate(1151 386)" fill="#484db8" fill-rule="evenodd"/>
    <g id="box-top">
      <path id="Path_18" data-name="Path 18" d="M201.592,97.964c.009-12.624,2.021-45.213-.908-54.65-6.09-1.525-35.778,18.089-44.25,22.827-22.6,12.642-17.666,8.471-17.678,52.31,0,16.55-2.907,28.722,4.716,27.283,2.178-.411,19.46-10.984,22.679-12.825C198.942,114.154,201.464,117.572,201.592,97.964Z" transform="translate(1151 386)" fill="#151551" fill-rule="evenodd"/>
      <path id="Path_19" data-name="Path 19" d="M70.446,43.4c-1.79,5.811-1.355,49.362-.936,60.51.342,9.1,2.116,9.917,8.5,13.495,8.843,4.953,17.5,10,26.048,14.958l19.487,11.473c12.709,7.013,8.747.361,8.747-38.556,0-36.109,7.78-24.452-47.252-56.373C80.291,46.15,75.217,41.939,70.446,43.4Z" transform="translate(1151 386)" fill="#151551" fill-rule="evenodd"/>
      <path id="Path_25" data-name="Path 25" d="M75.684,33.149c1.867,5.952,7.422,7.3,13.066,10.561,56.326,32.536,37.175,32.461,92.686.534,5.659-3.254,11.956-5.01,14.031-11.082C190.073,29.1,140.135,0,135.56,0,130.219,0,80.5,29.294,75.684,33.148Z" transform="translate(1151 386)" fill="#484db8" fill-rule="evenodd"/>
    </g>
    <g id="box-left">
      <path id="Path_20" data-name="Path 20" d="M6.629,153.567C9,159.644,28.777,168.919,34.789,172.284c5.407,3.026,25.692,16,30.617,16.329,6.393.429,25.006-12,31.152-15.473,7.094-4.007,25.072-13.115,29.419-18.11-2.11-6.1-2.892-4.2-13.578-10.54-7.876-4.671-40.915-24.547-45.774-24.642C60.679,119.732,10.859,149.28,6.629,153.567Z" transform="translate(1151 386)" fill="#151551" fill-rule="evenodd"/>
      <path id="Path_23" data-name="Path 23" d="M70.566,265.258c5.713,1.5,40.354-20.821,50.612-26.488,7.882-4.353,11.179-5.412,11.179-16.411l-.3-58.68c-6.55-2.634-16.023,5.725-27.1,11.993-8.851,5.008-17.674,10.261-27,15.471-5.733,3.2-7.955,4.059-8.426,12.1-.656,11.176-1,56.244,1.047,62.018Z" transform="translate(1151 386)" fill="#151551" fill-rule="evenodd"/>
      <path id="Path_26" data-name="Path 26" d="M.916,162.551c-1.619,11.285-.6,28.806-.6,40.774,0,6.628-.307,14.066-.025,20.591.419,9.73,2.188,9.634,8.864,13.469,9.093,5.226,16.8,9.733,25.988,15.043,34.105,19.706,28.014,22.464,27.995-27.154-.006-15.373,3.728-27.021-7.917-33.907-8.6-5.087-47.006-28.833-54.3-28.817Z" transform="translate(1151 386)" fill="#484db8" fill-rule="evenodd"/>
    </g>
    <g id="box-right">
      <path id="Path_21" data-name="Path 21" d="M139.323,163.689c-1.695,7.58-.579,30.085-.579,39.641,0,34.9-5.432,25,34.417,48.821,6.575,3.93,21.616,14.528,27.5,13.171,2.206-13.6.887-42.7.9-59.066.008-13.622-5.183-13.618-26.925-25.891l-25.042-14.489c-.137-.084-4.723-2.577-4.837-2.607-3.451-.917-4.119-.253-5.435.42Z" transform="translate(1151 386)" fill="#151551" fill-rule="evenodd"/>
      <path id="Path_22" data-name="Path 22" d="M145.212,155.042c3.61,4.31,54.291,34.011,60.53,33.581,5.52-.381,36.6-20.109,45.4-24.915,4.815-2.627,11.317-4.949,13.377-10.129-3.777-3.974-54.191-33.843-60.041-33.679-5.277.149-42.708,23.068-53.179,28.834-5.261,2.9-4.507,1.263-6.09,6.309Z" transform="translate(1151 386)" fill="#151551" fill-rule="evenodd"/>
      <path id="Path_27" data-name="Path 27" d="M207.995,207.721l.017,51.219c.006,9.748,3.071,7.918,9.4,4.288l41.769-24.21c14.183-8.193,11.619-6.273,11.616-32.761,0-12.74,1.118-31.759-.585-43.733-6.709.045-41.8,21.835-52.444,27.775-9,5.024-9.77,6.062-9.769,17.42Z" transform="translate(1151 386)" fill="#484db8" fill-rule="evenodd"/>
    </g>
    <path id="part-right" d="M270.148,145.975l.711-61.29c-.586-13-11.365-15.122-34.822-28.568-4.486-2.571-23.9-15.709-26.967-12.282-2.238,2.5-1.069,33.633-1.07,39.491,0,35.886-6.187,25.424,47.054,56.311,4.973,2.885,8.8,6.723,15.094,6.338Z" transform="translate(1151 386)" fill="#484db8" fill-rule="evenodd"/>
    <path id="part-left" d="M.335,89.176l.386,56.853c7.467.275,13.655-5.342,19.07-8.591l36.29-20.792c9.016-5.636,7.057-9.837,7.057-21.616V59.909c0-27.337,3.1-20.37-50.24,9.179C1.858,75.2.333,74,.335,89.177Z" transform="translate(1151 386)" fill="#484db8" fill-rule="evenodd"/>
  </g>
</svg>
