<?xml version="1.0" encoding="utf-8"?>
<!-- Generator: Adobe Illustrator 21.0.2, SVG Export Plug-In . SVG Version: 6.00 Build 0)  -->
<svg version="1.1" xmlns="http://www.w3.org/2000/svg" xmlns:xlink="http://www.w3.org/1999/xlink" x="0px" y="0px"
	 viewBox="0 0 1366 937" style="enable-background:new 0 0 1366 937;" xml:space="preserve">
<style type="text/css">
	.st0{fill:url(#SVGID_1_);}
	.st1{fill-rule:evenodd;clip-rule:evenodd;fill:url(#SVGID_2_);}
	.st2{fill-rule:evenodd;clip-rule:evenodd;fill:url(#SVGID_3_);}
	.st3{fill-rule:evenodd;clip-rule:evenodd;fill:url(#SVGID_4_);}
	.st4{fill:#FEFEFE;}
	.st5{fill-rule:evenodd;clip-rule:evenodd;fill:url(#SVGID_5_);}
	.st6{fill-rule:evenodd;clip-rule:evenodd;fill:url(#SVGID_6_);}
</style>
<g id="Layer_1">
</g>
<g id="Layer_2">
	<linearGradient id="SVGID_1_" gradientUnits="userSpaceOnUse" x1="840.0876" y1="754.6362" x2="549.7379" y2="227.3096">
		<stop  offset="0" style="stop-color:#000011"/>
		<stop  offset="1" style="stop-color:#10123E"/>
	</linearGradient>
	<rect y="0.84" class="st0" width="1366" height="937"/>
	
		<linearGradient id="SVGID_2_" gradientUnits="userSpaceOnUse" x1="226.14" y1="452.9264" x2="289.6462" y2="371.8151" gradientTransform="matrix(1 0 0 -1 0 938)">
		<stop  offset="0" style="stop-color:#9E9DF5"/>
		<stop  offset="1" style="stop-color:#F2A18C"/>
	</linearGradient>
	<path class="st1" d="M159.07,529.31l38.03,67.26c9.53,16.85,20.9,31.87,41.62,35.73c2.34,0.44,11.57,1.85,14.94,2.13
		c13.35,1.12,37.79,0.19,45.62-1.16c19.46-3.36,30.53-12.87,39.5-25.55c2.97-4.2,9.99-13.56,15.14-22.74
		c4.32-7.7,7.01-15.52,7.98-17.76c2.82-6.54,4.67-13.76,4.63-23.7c-0.1-23.51-23.37-54.93-33.36-72.91l-19.68,34.29
		c5.74,10.88,20.5,29.93,17.3,44.93c-4.59,21.57-23.52,49.33-49.11,49.39c-9.86,0.02-19.85,0.38-29.69-0.37
		c-1.7-0.13-9.09-1.42-14.22-5.41c-3.09-2.4-4.8-5.35-8.37-11.36l-40.64-69.29l-1.98-3.55l-29.24,17.16L159.07,529.31z"/>
	
		<linearGradient id="SVGID_3_" gradientUnits="userSpaceOnUse" x1="326.2468" y1="479.6426" x2="220.9167" y2="546.6879" gradientTransform="matrix(1 0 0 -1 0 938)">
		<stop  offset="0" style="stop-color:#CB9FBE"/>
		<stop  offset="0.3412" style="stop-color:#B76DE1"/>
		<stop  offset="1" style="stop-color:#3950F5"/>
	</linearGradient>
	<path class="st2" d="M196.21,414.62c19.03-0.66,56.2-3.92,67.44,7.39c10.45,10.51,22.06,36.3,29.71,47.85l19.26-33.44
		c-8.55-15.63-14.93-34.56-31.42-45.74c-19.45-13.19-38.41-10.68-64.73-10.97L196.21,414.62z"/>
	
		<linearGradient id="SVGID_4_" gradientUnits="userSpaceOnUse" x1="186.8636" y1="502.7237" x2="83.4054" y2="419.0942" gradientTransform="matrix(1 0 0 -1 0 938)">
		<stop  offset="0" style="stop-color:#3950F5"/>
		<stop  offset="1" style="stop-color:#8A3DF2"/>
	</linearGradient>
	<path class="st3" d="M94.85,552.86c21.15,12.1,59.07,9.94,83.7,10.9l-19.48-34.45c-13.69-1.22-41.34-0.75-50.67-10.65
		c-8.73-9.26-24.08-36.8-24.78-50.09c-0.72-13.62,24.1-53.18,44.62-53.82c8.66-0.27,18.68-0.78,27.33-0.3l20.46-35.29
		c-37.56,0.07-74.61-6.89-99.83,26.49c-13.17,17.44-26.97,52.1-27.53,65.35C47.65,495.04,75.47,541.78,94.85,552.86z"/>
	<path class="st4" d="M430.53,531.14h111.08v-35.43h-70.65V385.26h-40.43V531.14z M588.92,533.64c14.8,0,25.42-5.63,33.14-14.17
		v11.67h39.18v-64.81c0-15.84-3.54-27.51-12.09-35.84c-8.96-8.96-22.72-13.75-42.93-13.75c-19.38,0-32.93,3.54-45.64,8.75
		l8.13,27.93c10-3.96,19.17-6.25,31.05-6.25c15.21,0,22.51,6.67,22.51,18.34v1.88c-6.46-2.29-16.67-4.38-27.09-4.38
		c-26.47,0-44.18,12.09-44.18,35.43v0.42C550.99,521.35,567.45,533.64,588.92,533.64z M603.09,508.84c-8.13,0-13.96-4.58-13.96-12.3
		v-0.42c0-8.34,6.67-13.96,18.13-13.96c5.84,0,11.46,1.25,15.42,2.92v5.21C622.68,501.55,614.55,508.84,603.09,508.84z
		 M681.44,531.14h39.6v-61.06c0-12.3,7.09-18.96,16.67-18.96c9.38,0,15.83,6.67,15.83,18.96v61.06h39.6v-73.77
		c0-25.63-14.38-41.47-38.34-41.47c-16.05,0-26.47,8.96-33.76,18.34V418.4h-39.6V531.14z M859.2,533.64
		c16.88,0,26.68-8.13,34.39-17.51v15h39.6V379.01h-39.6v53.14c-7.5-8.54-17.51-16.25-34.6-16.25c-26.67,0-49.59,22.3-49.59,58.98
		v0.42C809.4,511.34,832.53,533.64,859.2,533.64z M871.3,500.51c-12.72,0-23.14-10.63-23.14-25.63v-0.42
		c0-15,10.42-25.42,23.14-25.42c12.71,0,22.92,10.63,22.92,25.42v0.42C894.22,489.88,884.01,500.51,871.3,500.51z M1030.09,534.06
		c45.01,0,78.78-33.97,78.78-75.86v-0.42c0-41.89-33.35-75.44-78.36-75.44s-78.77,33.97-78.77,75.86v0.42
		C951.74,500.51,985.08,534.06,1030.09,534.06z M1030.51,497.59c-22.09,0-37.3-18.34-37.3-39.39v-0.42
		c0-21.05,14.8-38.97,36.89-38.97c22.3,0,37.51,18.34,37.51,39.39v0.42C1067.6,479.67,1052.81,497.59,1030.51,497.59z
		 M1127.62,531.14h39.6v-35.01c0-26.05,11.67-37.93,32.3-37.93h3.33v-41.68c-18.75-0.83-29.18,9.17-35.63,24.59V418.4h-39.6V531.14z
		 M1269.12,533.85c24.8,0,39.8-10.42,50.23-25.84l-26.46-19.17c-6.25,7.29-12.29,11.67-21.67,11.67
		c-13.34,0-22.51-11.04-22.51-25.63v-0.42c0-13.75,9.38-25.01,22.09-25.01c9.59,0,15.63,4.38,21.05,11.88l26.88-20.01
		c-9.59-15.21-25.01-25.22-48.14-25.22c-35.64,0-60.44,26.88-60.44,58.77v0.42C1210.15,507.17,1235.16,533.85,1269.12,533.85z"/>
	<linearGradient id="SVGID_5_" gradientUnits="userSpaceOnUse" x1="270.0977" y1="311.169" x2="148.2684" y2="510.278">
		<stop  offset="0" style="stop-color:#8AE6FB"/>
		<stop  offset="1" style="stop-color:#9F9BF5"/>
	</linearGradient>
	<path class="st5" d="M320.82,316.35l-21.86,30.45c-15.84-8.95-37.95-8.8-53.29-3.68c-13.76,4.59-22.5,24.86-28.88,35.89h0.03
		l-37.88,65.58c-4.45,7.71-8.11,14.48-8.93,16.7c-2.66,7.17-1.44,15.23,2.63,22.55l16.13,28.95l-29.7,16.52l-22.47-42.95
		c-3.21-6.15-3.34-12.62-3.3-16.89c0.1-11.18,4.72-24.76,11.18-35.9l31.55-54.41c10.44-17.73,25.89-51.65,46.1-63.65
		c14.97-8.9,25.69-8.55,39.11-8.77C284.03,306.36,303.46,304.66,320.82,316.35z"/>
	<linearGradient id="SVGID_6_" gradientUnits="userSpaceOnUse" x1="344.4869" y1="355.5672" x2="231.6863" y2="553.878">
		<stop  offset="0" style="stop-color:#8AE6FB"/>
		<stop  offset="1" style="stop-color:#7043F3"/>
	</linearGradient>
	<path class="st6" d="M353.74,434.66l-58.4,101.86c-12.4,17.33-32.25,26.83-52.87,27.11l-23.7,0.31l-20.93-35.68l56.14-1.38
		c3.05-0.88,3.62-1.97,6.58-4.99c3.63-3.73,8.31-9.46,11.68-15.35l52.64-92.38c5.09-9.23,6.3-11.31,5.49-20.1
		c-0.09-0.99-1.23-5.75-3.87-10.59c-4.25-7.79-8.86-15.45-13.37-23.06c-3.48-5.88-8.41-10.35-14.18-13.6v-0.01l-2.88-1.5
		l21.18-31.15l3.56,2.2c4.38,2.94,8.62,6.73,12.76,11.62c5.48,6.48,20.14,29.53,25.2,41.07c0.87,1.99,4.64,11.24,5.57,14.37
		C369.94,402.11,362.98,418.69,353.74,434.66z"/>
</g>
</svg>
