<svg width="184" height="48" viewBox="0 0 184 48" fill="none" xmlns="http://www.w3.org/2000/svg">
<path fill-rule="evenodd" clip-rule="evenodd" d="M13.8234 18.4509C12.8915 20.0584 12.2242 22.0175 12.2102 23.6299C12.2048 24.2446 12.2231 25.1791 12.6864 26.0649L15.9274 32.2599L20.2105 29.8769L17.8844 25.7013C17.2969 24.6465 17.1207 23.4842 17.5044 22.4491C17.6228 22.1295 18.1509 21.1528 18.7928 20.0414L25.8909 7.75211C26.4522 6.78051 27.0862 5.94972 27.3908 5.74082C28.6115 4.90382 30.3338 5.01922 32.0272 5.05572C33.9482 5.09602 34.7643 5.15251 36.4257 5.40041C37.5658 5.51042 37.6495 4.79231 38.3101 3.97101C38.6746 3.51771 39.6902 2.38651 39.8431 1.99091C37.3274 -0.158486 33.3949 -0.011587 32.0272 0.010113C28.7662 0.075813 27.2613 -0.131082 24.8207 1.41532C23.3192 2.36672 22.3222 3.79121 21.2919 5.56841L13.8234 18.4509Z" fill="url(#paint0_linear)"/>
<path fill-rule="evenodd" clip-rule="evenodd" d="M15.9274 32.2601L21.4126 41.9613C22.9417 44.6657 24.8012 47.0438 28.483 47.2396C29.5661 47.6465 34.7363 47.4982 36.1508 47.2542C40.6672 46.475 42.0517 43.396 44.0803 39.8133C45.0338 38.1296 45.8602 36.8224 45.8491 34.3097C45.8343 30.9196 42.4779 26.3878 41.038 23.7935L38.1993 28.7389C39.0272 30.3082 41.1554 33.0554 40.6947 35.2184C40.0321 38.3298 37.3029 42.333 33.6118 42.3423C31.9443 42.3464 30.2531 42.4167 28.5974 42.2181C27.0473 41.5359 26.9342 41.3263 26.0715 39.8711L20.2105 29.8771L15.9274 32.2601Z" fill="url(#paint1_linear)"/>
<path fill-rule="evenodd" clip-rule="evenodd" d="M21.2836 15.7184C24.029 15.623 29.3888 15.1536 31.0104 16.7848C32.5175 18.3009 33.9283 22.0774 35.2958 23.6864L38.0732 18.8628C36.8402 16.6088 35.9202 13.8788 33.5417 12.2652C30.7371 10.3626 28.0019 10.7242 24.2055 10.6825L21.2836 15.7184Z" fill="url(#paint2_linear)"/>
<path fill-rule="evenodd" clip-rule="evenodd" d="M6.66431 35.6572C9.71501 37.4027 15.1846 37.091 18.7369 37.2289L15.9274 32.2598C13.9536 32.0841 9.96461 32.1511 8.61951 30.7239C7.36051 29.3879 5.14691 25.4163 5.04521 23.4989C4.94071 21.5345 8.52091 15.8281 11.4811 15.7366C12.7301 15.698 14.1757 15.6247 15.4222 15.6928L18.3728 10.6035C12.9561 10.6143 7.61161 9.60993 3.97461 14.4236C2.07471 16.9383 0.0846107 21.9383 0.00391072 23.8486C-0.142789 27.3175 3.86971 34.0584 6.66431 35.6572Z" fill="url(#paint3_linear)"/>
<path fill-rule="evenodd" clip-rule="evenodd" d="M36.4257 5.40022C36.8563 6.06562 37.1636 6.16052 37.6723 6.89962C38.1462 7.58822 38.385 8.15662 38.7596 8.77912C39.5404 10.0764 40.0355 11.0113 40.7252 12.3203C40.834 14.2485 40.499 14.6031 39.7867 15.8867L32.2502 28.9761C31.3679 30.5159 29.8689 31.9812 29.7627 31.7797C29.7384 31.7336 29.6614 31.8629 29.6162 31.91L21.5192 32.1083L24.5375 37.255L27.9564 37.2093C30.9299 37.1696 33.7929 35.7997 35.5815 33.2994L42.2179 21.7375L44.6319 17.728C45.629 15.9811 45.9573 14.513 45.803 12.0652C45.3021 9.60092 44.458 8.51312 43.4045 6.63112C42.3896 4.81782 41.9278 4.05882 39.8431 1.99072C39.6902 2.38632 38.6746 3.51752 38.3101 3.97082C37.6495 4.79212 37.5658 5.51022 36.4257 5.40022Z" fill="url(#paint4_linear)"/>
<path d="M55.0802 32.5241H71.1006V27.4144H60.9113V11.4842H55.0802V32.5241ZM77.9235 32.8848C80.0576 32.8848 81.5905 32.0732 82.7026 30.8409V32.5241H88.3533V23.1764C88.3533 20.892 87.8424 19.2088 86.61 18.0066C85.3176 16.7141 83.3338 16.0228 80.4183 16.0228C77.623 16.0228 75.6693 16.5338 73.8358 17.2852L75.008 21.3128C76.4507 20.7418 77.7733 20.4111 79.4865 20.4111C81.6807 20.4111 82.7327 21.373 82.7327 23.0561V23.3267C81.8009 22.996 80.3281 22.6955 78.8253 22.6955C75.008 22.6955 72.4532 24.4388 72.4532 27.8052V27.8653C72.4532 31.1114 74.8277 32.8848 77.9235 32.8848ZM79.9674 29.308C78.7952 29.308 77.9536 28.6467 77.9536 27.5346V27.4745C77.9536 26.2722 78.9154 25.4607 80.5686 25.4607C81.4102 25.4607 82.2217 25.641 82.7928 25.8815V26.6329C82.7928 28.256 81.6206 29.308 79.9674 29.308ZM91.2688 32.5241H96.9796V23.7174C96.9796 21.944 98.0016 20.9822 99.3842 20.9822C100.737 20.9822 101.668 21.944 101.668 23.7174V32.5241H107.379V21.8839C107.379 18.1869 105.305 15.9026 101.849 15.9026C99.5345 15.9026 98.0316 17.195 96.9796 18.5476V16.2633H91.2688V32.5241ZM116.907 32.8848C119.342 32.8848 120.755 31.7126 121.867 30.36V32.5241H127.578V10.5825H121.867V18.247C120.785 17.0147 119.342 15.9026 116.877 15.9026C113.03 15.9026 109.724 19.1187 109.724 24.4087V24.4688C109.724 29.6687 113.06 32.8848 116.907 32.8848ZM118.651 28.1057C116.817 28.1057 115.314 26.5728 115.314 24.4087V24.3486C115.314 22.1845 116.817 20.6816 118.651 20.6816C120.484 20.6816 121.957 22.2145 121.957 24.3486V24.4087C121.957 26.5728 120.484 28.1057 118.651 28.1057ZM141.554 32.9449C148.046 32.9449 152.916 28.0456 152.916 22.0042V21.944C152.916 15.9026 148.106 11.0634 141.614 11.0634C135.122 11.0634 130.253 15.9627 130.253 22.0042V22.0643C130.253 28.1057 135.062 32.9449 141.554 32.9449ZM141.614 27.6849C138.428 27.6849 136.234 25.0399 136.234 22.0042V21.944C136.234 18.9083 138.368 16.3234 141.554 16.3234C144.77 16.3234 146.964 18.9684 146.964 22.0042V22.0643C146.964 25.1 144.83 27.6849 141.614 27.6849ZM155.621 32.5241H161.332V27.4745C161.332 23.7174 163.015 22.0042 165.99 22.0042H166.471V15.9928C163.766 15.8725 162.263 17.3153 161.332 19.5395V16.2633H155.621V32.5241ZM176.029 32.9148C179.606 32.9148 181.77 31.412 183.273 29.1878L179.456 26.4225C178.554 27.4745 177.683 28.1057 176.33 28.1057C174.406 28.1057 173.084 26.5127 173.084 24.4087V24.3486C173.084 22.3648 174.437 20.7418 176.27 20.7418C177.653 20.7418 178.524 21.373 179.306 22.455L183.183 19.5695C181.8 17.3754 179.576 15.9326 176.24 15.9326C171.1 15.9326 167.523 19.81 167.523 24.4087V24.4688C167.523 29.0675 171.13 32.9148 176.029 32.9148Z" fill="#FEFEFE"/>
<defs>
<linearGradient id="paint0_linear" x1="26.09" y1="7.75211" x2="26.09" y2="30.9857" gradientUnits="userSpaceOnUse">
<stop stop-color="#8AE6FB"/>
<stop offset="1" stop-color="#9F9BF5"/>
</linearGradient>
<linearGradient id="paint1_linear" x1="22.1751" y1="29.1218" x2="31.1691" y2="40.6091" gradientUnits="userSpaceOnUse">
<stop stop-color="#9F9CF5"/>
<stop offset="1" stop-color="#F2A18C"/>
</linearGradient>
<linearGradient id="paint2_linear" x1="38.9046" y1="23.8085" x2="23.7129" y2="14.1386" gradientUnits="userSpaceOnUse">
<stop stop-color="#CB9FBE"/>
<stop offset="0.341176" stop-color="#B76DE1"/>
<stop offset="1" stop-color="#3950F5"/>
</linearGradient>
<linearGradient id="paint3_linear" x1="14.9511" y1="12.5309" x2="0.0294152" y2="24.5927" gradientUnits="userSpaceOnUse">
<stop stop-color="#3950F5"/>
<stop offset="1" stop-color="#8A3DF2"/>
</linearGradient>
<linearGradient id="paint4_linear" x1="41.1416" y1="5.91332" x2="24.0851" y2="35.3659" gradientUnits="userSpaceOnUse">
<stop stop-color="#8BE2FB"/>
<stop offset="1" stop-color="#7043F3"/>
</linearGradient>
</defs>
</svg>
