<svg width="1020" height="40" viewBox="0 0 1020 40" fill="none" xmlns="http://www.w3.org/2000/svg">
<path fill-rule="evenodd" clip-rule="evenodd" d="M173.437 29.4682C173.817 29.6044 173.683 29.4096 173.716 30.0753C173.79 31.5514 173.537 35.5148 173.763 36.631H176.077V37.0888L173.208 37.0804L173.196 30.2095C173.201 29.6373 173.08 29.6326 173.437 29.4682ZM116.813 29.4682C117.258 29.6278 117.079 29.5712 117.077 31.1487V37.0883C116.397 37.0519 116.58 37.3544 116.584 35.5044L116.575 30.2115C116.575 29.6409 116.456 29.6321 116.813 29.4678L116.813 29.4682ZM76.4235 29.4682C76.7803 29.6326 76.6599 29.6369 76.6642 30.2095C76.6674 30.6027 76.6524 31.0153 76.6524 31.4128C76.652 32.1608 76.652 32.9088 76.6524 33.6568C76.6532 35.0332 76.8381 36.7965 75.4846 37.0986C73.7934 37.4764 73.405 36.1309 73.3868 34.7153C73.3682 33.27 73.3052 31.4841 73.3733 30.0697C73.3872 29.783 73.2949 29.2912 73.7253 29.4841C74.4856 29.8238 73.0134 36.0671 74.6543 36.6231C75.3124 36.846 75.8941 36.4869 76.077 35.9523C76.2885 35.335 76.1942 31.3847 76.1859 30.3453C76.1816 29.8 76.0572 29.6369 76.4235 29.4682ZM176.737 35.1085C176.737 32.5232 176.209 29.448 178.32 29.3966C180.647 29.3395 180.072 32.2444 180.072 35.2403C180.072 37.8419 176.737 37.8815 176.737 35.1085ZM169.082 35.1085C169.082 32.5232 168.553 29.448 170.665 29.3966C172.992 29.3395 172.417 32.2444 172.417 35.2403C172.417 37.8419 169.082 37.8815 169.082 35.1085ZM65.2047 35.1085C65.2047 32.5232 64.6761 29.448 66.7879 29.3966C69.115 29.3395 68.5397 32.2444 68.5397 35.2403C68.5397 37.8419 65.2047 37.8815 65.2047 35.1085ZM133.972 37.0883C133.68 36.7054 134.056 35.7674 134.161 35.291C134.299 34.665 134.438 33.9804 134.578 33.3468C134.861 32.0591 135.208 30.7068 135.416 29.4326C136.422 29.4326 136.161 29.5035 136.547 31.2164C136.699 31.8888 136.831 32.4955 136.979 33.1662C137.128 33.8394 137.265 34.4535 137.404 35.1073L137.742 36.6144C137.789 37.2044 137.855 36.7854 137.668 37.0883C137.019 36.945 137.364 36.8238 136.947 35.434C133.559 35.2047 134.815 35.6482 134.309 36.7482C134.152 37.0915 134.299 36.9644 133.973 37.0883H133.972ZM142.851 37.0531L142.853 29.4944C146.435 29.1859 146.212 30.099 146.212 33.2605C146.212 36.3653 146.412 37.4301 142.851 37.0531ZM161.031 37.0883C160.355 37.0519 160.53 37.356 160.538 35.5049L160.526 30.2091C160.53 29.6369 160.41 29.6321 160.766 29.4678C161.041 29.566 161.031 29.2889 161.031 29.9604V33.0312H163.405L163.406 29.9604C163.406 29.2885 163.396 29.566 163.67 29.4678C164.078 29.4852 163.9 30.4942 163.899 31.2806L163.92 36.5787C163.878 37.2024 164.03 37.0551 163.407 37.0883V33.4893H161.031V37.0883H161.031ZM57.7161 33.9558L57.6773 37.0883C57.0512 37.0547 57.1748 37.3968 57.1875 35.6371C57.1993 33.9716 57.0996 30.8177 57.2144 29.4944C59.9727 29.3079 60.3822 29.5894 60.3822 32.0725C60.3822 33.9249 59.4398 33.9558 57.7161 33.9558ZM106.157 33.4367C107.743 34.2955 106.788 35.3765 107.274 37.0531C106.131 37.1414 106.828 36.1036 106.588 34.621C106.415 33.5594 105.544 33.6917 104.441 33.6917L104.402 37.0883C103.776 37.0547 103.9 37.3968 103.912 35.6371C103.924 33.9716 103.825 30.8177 103.939 29.4944C105.034 29.3993 106.59 29.2382 106.981 30.2879C107.162 30.7753 107.152 31.6766 107.087 32.2119C106.978 33.0874 106.731 33.1179 106.157 33.4367ZM83.8504 33.4367C85.4363 34.2955 84.4812 35.3765 84.9678 37.0531C83.8243 37.1414 84.522 36.1036 84.2812 34.621C84.109 33.5594 83.2378 33.6917 82.1342 33.6917L82.0958 37.0883C81.4698 37.0547 81.5933 37.3968 81.606 35.6371C81.6179 33.9716 81.5181 30.8177 81.6329 29.4944C82.7278 29.3993 84.2836 29.2382 84.6744 30.2879C84.8558 30.7753 84.8459 31.6766 84.7801 32.2119C84.672 33.0874 84.4249 33.1179 83.8504 33.4367ZM79.7588 33.4367C81.3447 34.2955 80.3896 35.3765 80.8762 37.0531C79.7323 37.1414 80.4304 36.1036 80.1896 34.621C80.0174 33.5594 79.1462 33.6917 78.0426 33.6917L78.0042 37.0883C77.3441 37.0527 77.5805 37.1972 77.4997 36.7015L77.5413 29.4944C79.9492 29.2857 81.0275 29.4639 80.6885 32.2119C80.5804 33.0874 80.3333 33.1179 79.7592 33.4367H79.7588ZM50.8527 33.4367C52.4385 34.2955 51.4834 35.3765 51.9701 37.0531C51.3037 37.1046 51.329 36.9593 51.3072 36.176C51.2474 34.0382 51.6514 33.6917 49.1369 33.6917L49.0985 37.0883C48.4725 37.0547 48.596 37.3968 48.6087 35.6371C48.6206 33.9716 48.5208 30.8177 48.6356 29.4944C51.0435 29.2857 52.1218 29.4639 51.7828 32.2119C51.6747 33.0874 51.4276 33.1179 50.8531 33.4367H50.8527ZM165.122 37.0883C164.702 36.865 164.89 36.8159 164.893 35.3726L164.92 29.4944C165.817 29.4168 165.662 29.7351 165.945 30.59C166.159 31.2382 166.358 31.7403 166.57 32.341C166.944 33.3983 167.362 34.8368 167.833 35.7333V29.469C168.464 29.5593 168.301 28.9764 168.29 31.1491L168.29 37.0888C167.521 37.0765 167.822 37.2555 167.583 36.7375C167.507 36.574 167.365 36.0762 167.283 35.8474C166.843 34.6214 165.819 31.241 165.378 30.5861C165.258 32.4503 165.424 34.7153 165.366 36.4441C165.344 37.1149 165.476 36.9007 165.122 37.0888V37.0883ZM138.856 37.0883C138.435 36.865 138.624 36.8159 138.627 35.3726L138.654 29.4944C139.551 29.4168 139.396 29.7351 139.679 30.59C139.893 31.2382 140.092 31.7403 140.304 32.341C140.677 33.3983 141.096 34.8368 141.566 35.7333V29.469C142.198 29.5593 142.035 28.9764 142.024 31.1491L142.024 37.0888C141.254 37.0765 141.556 37.2555 141.317 36.7375C141.241 36.574 141.099 36.0762 141.017 35.8474C140.576 34.6214 139.553 31.241 139.111 30.5861C138.991 32.4503 139.158 34.7153 139.1 36.4441C139.078 37.1149 139.21 36.9007 138.856 37.0888V37.0883ZM89.887 37.0883C89.4665 36.865 89.6554 36.8159 89.6581 35.3726L89.6847 29.4944C90.5816 29.4168 90.4271 29.7351 90.7098 30.59L92.5975 35.7333V29.469C93.2536 29.5629 92.9958 29.1784 93.079 30.0689L93.0548 37.0888C92.268 37.0765 92.6157 37.4297 92.0475 35.8474C91.6071 34.6214 90.5839 31.241 90.142 30.5861C90.022 32.4503 90.1888 34.7153 90.1309 36.4441C90.1084 37.1149 90.241 36.9007 89.887 37.0888V37.0883ZM184.762 29.4682C185.465 29.5153 185.284 29.6726 185.859 31.2648C186.115 31.974 186.353 32.8122 186.672 33.3488L187.819 30.2162C188.013 29.6357 187.981 29.5256 188.511 29.4682C188.418 30.2701 187.567 32.2357 187.263 33.0942C186.74 34.5771 186.902 34.6064 186.917 36.3126C186.924 37.181 187.056 37.0733 186.372 37.0883C186.372 36.3384 186.377 35.588 186.377 34.8384C186.377 33.0862 184.838 30.7306 184.762 29.4678L184.762 29.4682ZM148.561 29.6971C148.7 29.3027 150.611 29.45 151.41 29.4564C151.983 29.4607 151.987 29.3403 152.152 29.6971C151.949 30.0622 151.058 29.8915 150.603 29.8915L150.62 36.4461C150.589 37.2083 150.709 36.9391 150.339 37.0891C149.985 36.9014 150.117 37.1153 150.095 36.4445C150.085 36.1673 150.108 35.7971 150.11 35.5052L150.11 29.8915C149.8 29.8915 149.43 29.9129 149.131 29.903C148.214 29.8717 148.776 29.8329 148.561 29.6975V29.6971ZM126.053 37.0888L125.655 37.0547C125.173 35.6058 125.061 32.3699 124.62 31.3507C124.608 31.3238 124.588 31.279 124.566 31.2465L123.556 37.0864L122.884 37.0642C122.606 36.2267 122.404 34.2163 122.247 33.2525L121.715 29.9517C121.702 29.2675 121.65 29.6872 121.829 29.4686C122.307 29.6092 122.159 29.6405 122.353 30.8763C122.44 31.433 122.539 32.0005 122.635 32.5865C122.733 33.1765 123.009 35.5627 123.298 36.0679L124.248 30.1164C124.397 29.3055 124.165 29.604 124.732 29.5043C125.173 29.9133 125.3 32.1141 125.41 32.8328C125.572 33.8885 125.877 35.2871 125.974 36.2275C126.194 35.0424 126.337 33.9772 126.53 32.792C126.658 32.01 126.86 29.6694 127.24 29.469C127.665 29.6555 127.436 29.7977 127.228 31.1369L126.577 35.2447C126.399 36.3439 126.501 36.8793 126.053 37.0895L126.053 37.0888ZM97.6481 29.4686C98.3506 29.5157 98.1696 29.6729 98.7446 31.2651C99.0004 31.9743 99.2383 32.8126 99.5575 33.3492L100.705 30.2166C100.898 29.6361 100.867 29.526 101.397 29.4686C101.188 31.277 99.7686 32.8277 99.7844 35.1077C99.7998 37.32 100.016 37.0721 99.2585 37.0891C99.2585 36.3392 99.2633 35.5888 99.2633 34.8392C99.2629 33.087 97.7241 30.7314 97.6485 29.4686H97.6481ZM60.9187 29.6975C61.0696 29.2702 62.2215 29.4686 62.6967 29.4686C63.0507 29.4686 63.4189 29.454 63.7682 29.4567C64.3407 29.4611 64.3451 29.3407 64.5094 29.6975C64.3071 30.0626 63.4153 29.8919 62.9608 29.8919L62.9782 36.4465C62.9477 37.2087 63.0677 36.9395 62.6971 37.0895C62.29 36.8737 62.463 36.9189 62.4682 35.506V29.8923C62.1589 29.8923 61.7883 29.9137 61.4893 29.9038C60.5726 29.8725 61.1345 29.8337 60.9191 29.6983L60.9187 29.6975ZM52.6389 29.4686C53.3414 29.5157 53.1604 29.6729 53.7354 31.2651C53.9912 31.9743 54.2291 32.8126 54.5483 33.3492L55.6954 30.2166C55.8891 29.6361 55.8578 29.526 56.3872 29.4686C56.1781 31.277 54.759 32.8277 54.7748 35.1077C54.7902 37.32 55.0064 37.0721 54.2489 37.0891C54.2489 36.3392 54.2537 35.5888 54.2537 34.8392C54.2533 33.087 52.7145 30.7314 52.6389 29.4686ZM181.454 31.5451C181.454 33.7428 180.999 36.6108 182.553 36.6789C184.016 36.7431 183.768 34.9061 183.768 33.6216C181.993 33.6216 182.475 33.0407 184.199 33.1904L184.226 35.2407C184.226 37.8486 180.961 37.8724 180.961 35.1089C180.961 32.185 180.397 29.2116 182.81 29.4025C183.761 29.4777 184.177 30.2178 184.233 31.0509C184.279 31.7213 184.165 31.7546 183.997 31.8706C183.509 31.5344 183.919 31.616 183.676 30.6684C183.404 29.6072 181.454 29.2009 181.454 31.5451ZM157.036 31.5451C157.036 33.6394 156.524 37.2911 158.575 36.6195C159.814 36.214 158.965 34.6341 159.578 34.3518C159.872 34.4868 159.807 34.1633 159.807 35.2403C159.807 37.8482 156.543 37.872 156.543 35.1085C156.543 32.1981 155.966 29.062 158.519 29.4152C159.709 29.5799 160.254 31.5819 159.578 31.9407C159.041 31.6556 159.532 31.7075 159.259 30.6676C159.156 30.274 158.888 29.977 158.469 29.886C157.35 29.6424 157.036 30.5762 157.036 31.5447V31.5451ZM153.237 32.9971C153.849 32.9971 154.898 32.8455 155.32 33.129C155.154 33.6889 154.834 33.4545 153.305 33.4545L153.25 36.6314H155.751V37.0891L152.75 37.0812L152.753 29.4952L155.716 29.4663C155.714 29.9105 156.086 29.9287 154.702 29.8987C154.236 29.8884 153.771 29.8911 153.305 29.8911L153.237 32.9975L153.237 32.9971ZM128.129 34.8452H128.622C128.622 37.63 130.556 36.7229 130.796 36.0014C131.59 33.6109 128.428 33.5879 128.19 31.5297C127.96 29.5526 129.636 29.0509 130.659 29.5819C131.224 29.8757 131.376 30.5754 131.394 31.4485C130.669 31.3693 131.027 31.5796 130.835 30.7219C130.517 29.3011 129.063 29.8119 128.778 30.571C128.188 32.1414 129.83 32.9754 130.546 33.521C131.28 34.0797 131.975 36.1455 130.653 36.9323C129.84 37.4154 128.137 37.497 128.13 34.8452H128.129ZM118.391 32.9971C119.003 32.9971 120.052 32.8455 120.474 33.129C120.308 33.6889 119.988 33.4545 118.459 33.4545L118.405 36.6314H120.906V37.0891L117.905 37.0812L117.908 29.4952L120.871 29.4663C120.869 29.9105 121.241 29.9287 119.856 29.8987C119.39 29.8884 118.926 29.8911 118.46 29.8911L118.392 32.9975L118.391 32.9971ZM108.492 32.9971C109.104 32.9971 110.153 32.8455 110.575 33.129C110.408 33.6889 110.089 33.4545 108.56 33.4545L108.505 36.6314H111.005L111.006 37.0891L108.005 37.0812L108.008 29.4952L110.971 29.4663C110.969 29.9105 111.341 29.9287 109.957 29.8987C109.491 29.8884 109.026 29.8911 108.56 29.8911L108.493 32.9975L108.492 32.9971ZM94.3398 31.5451C94.3398 33.6394 93.8285 37.2911 95.8797 36.6195C97.1179 36.214 96.2693 34.6341 96.8827 34.3518C97.1757 34.4868 97.1116 34.1633 97.1116 35.2403C97.1116 37.8482 93.8472 37.872 93.8472 35.1085C93.8472 32.1981 93.2706 29.062 95.8231 29.4152C96.3541 29.4884 96.7588 29.8444 96.95 30.2922C97.0763 30.588 97.3824 31.6754 96.8831 31.9403C96.3458 31.6552 96.8364 31.7071 96.5639 30.6672C96.4606 30.2736 96.1921 29.9767 95.7736 29.8856C94.6542 29.6421 94.3401 30.5758 94.3401 31.5443L94.3398 31.5451ZM86.3173 32.9971C86.9291 32.9971 87.978 32.8455 88.4001 33.129C88.2338 33.6889 87.9143 33.4545 86.385 33.4545L86.3308 36.6314H88.8313V37.0891L85.8307 37.0812L85.8334 29.4952L88.7965 29.4663C88.7933 30.2451 88.8947 29.7331 88.5565 29.8713C88.5011 29.8939 87.8822 29.9006 87.7816 29.8987C87.3156 29.8884 86.8511 29.8911 86.385 29.8911L86.3177 32.9975L86.3173 32.9971ZM69.7893 31.5451C69.7893 33.6394 69.2781 37.2911 71.3293 36.6195C72.5675 36.214 71.7189 34.6341 72.3323 34.3518C72.6253 34.4868 72.5612 34.1633 72.5612 35.2403C72.5612 37.8482 69.2964 37.872 69.2964 35.1085C69.2964 32.1981 68.7198 29.062 71.2723 29.4152C72.4626 29.5799 73.0074 31.5819 72.3323 31.9407C71.7949 31.6556 72.2856 31.7075 72.0131 30.6676C71.7344 29.6044 69.7893 29.2037 69.7893 31.5447V31.5451ZM44.9748 31.5451C44.9748 33.6394 44.4636 37.2911 46.5148 36.6195C46.9373 36.4809 47.144 36.1689 47.2279 35.7472C47.3511 35.1279 47.0961 34.5462 47.5178 34.3518C47.8108 34.4868 47.7466 34.1633 47.7466 35.2403C47.7466 37.8482 44.4822 37.872 44.4822 35.1085C44.4822 32.1981 43.9057 29.062 46.4581 29.4152C46.9891 29.4884 47.3938 29.8444 47.5847 30.2922C47.7023 30.5675 47.7474 30.8814 47.7597 31.1713C47.7851 31.7771 47.852 31.7629 47.5178 31.9403C47.1456 31.7427 47.3669 32.1102 47.2762 31.4168C47.2251 31.0272 47.3321 30.0863 46.4082 29.8856C45.2888 29.6421 44.9748 30.5758 44.9748 31.5443V31.5451ZM113.91 37.0888H113.514C113.326 36.8599 113.465 37.1378 113.318 36.7391L111.824 29.9192C111.793 29.3391 111.735 29.7102 111.93 29.4682C112.351 29.5644 112.248 29.4706 112.382 30.0376L113.726 36.0014C113.738 36.0283 113.758 36.0727 113.778 36.1063L115.17 30.0368C115.312 29.4377 115.171 29.5454 115.626 29.4678C115.849 29.8515 114.775 34.134 114.541 35.1999C114.464 35.5488 114.397 35.8632 114.335 36.1875C114.24 36.6829 114.305 36.8939 113.91 37.088V37.0888ZM43.2943 39.9924H189.805V26.5293H43.2943V39.9924Z" fill="#848484"/>
<path fill-rule="evenodd" clip-rule="evenodd" d="M21.0991 10.9194L22.9285 11.3276L23.8472 7.6831L26.1268 8.21173L25.2176 12.0158C27.2161 12.8114 29.1211 13.6251 29.7163 15.559C30.0651 16.6927 29.7824 18.098 29.2985 19.0012C28.7905 19.9496 28.1534 20.2794 26.9809 20.7772C28.0021 21.4543 28.9287 22.034 29.2621 23.4041C29.5935 24.7658 29.114 26.4546 28.5141 27.4584C26.7833 30.3542 24.5072 29.8505 20.8579 29.5243L19.9551 33.3169L17.6898 32.7677L18.5558 28.9437L16.7366 28.5074L15.8223 32.268L13.5293 31.7409L14.4444 27.8457L9.88194 26.7136L10.961 24.0483C14.2155 24.7805 13.2695 25.5855 15.3171 17.3009C16.3823 12.9919 17.2344 12.3655 13.538 11.764L14.1371 9.26185L18.728 10.3983L19.7108 6.64088C20.2089 6.69672 21.5572 7.01588 21.9797 7.25901L21.0983 10.919L21.0991 10.9194ZM0 26.5303C0 26.988 6.1475 32.8758 6.56644 33.2947C7.45699 34.1849 12.8466 39.9934 13.3309 39.9934H39.7293V0H0V26.5303Z" fill="#848484"/>
<path fill-rule="evenodd" clip-rule="evenodd" d="M107.045 24.0225H110.345V7.25974C110.667 7.72303 111.891 12.7416 112.117 13.5395C112.329 14.2895 112.502 15.0406 112.705 15.7229L114.41 22.0688C115.029 24.5856 114.24 24.0225 118.792 24.0225V0.264059H115.36V13.5949C115.342 13.5684 115.318 13.4936 115.311 13.5122L112.561 3.45918C112.345 2.61219 111.917 0.263672 111.401 0.263672H107.045V24.0221L107.045 24.0225Z" fill="#848484"/>
<path fill-rule="evenodd" clip-rule="evenodd" d="M49.365 20.458H46.9891V13.3304C48.0361 13.3304 49.6853 13.1712 50.3292 13.8179C51.234 14.727 50.9489 17.1306 50.9489 18.7418C50.9489 19.8066 50.4472 20.4576 49.365 20.4576V20.458ZM48.3089 9.89852H46.9891V3.69479C50.2211 3.69479 50.8903 3.5859 50.56 7.92578C50.5169 8.4944 50.4978 8.68367 50.2401 9.05786C49.8318 9.65103 49.2513 9.89852 48.3089 9.89852ZM43.2931 24.0217C48.9959 24.0217 54.7763 25.0715 54.7763 18.214C54.7763 16.2567 54.9332 13.4591 53.2728 12.0621C52.8967 11.7457 52.3613 11.5252 52.1368 11.2187C54.4695 10.5958 54.3808 6.98414 54.3808 5.14721C54.3808 2.21027 52.4342 0.263672 49.4972 0.263672H43.2935V24.0221L43.2931 24.0217Z" fill="#848484"/>
<path fill-rule="evenodd" clip-rule="evenodd" d="M93.4504 20.7229C92.2347 20.7229 91.2064 20.7471 91.2064 18.2152V5.80816C91.2064 2.80311 94.0023 3.02287 94.6921 4.30266C94.9408 4.76358 95.0342 5.65927 95.0342 6.33638V17.8196C95.0342 19.2048 94.8177 20.7233 93.4504 20.7233V20.7229ZM87.5107 5.27991V19.139C87.5107 24.3263 94.2581 25.7451 97.1539 22.8426C97.9597 22.0348 98.7299 20.483 98.7299 18.8749V5.41178C98.7299 2.33783 96.6391 0 93.5822 0H92.6584C89.6419 0 87.5107 2.29269 87.5107 5.27953V5.27991Z" fill="#848484"/>
<path fill-rule="evenodd" clip-rule="evenodd" d="M74.7073 5.9392V18.4785C74.7073 22.0154 76.7094 24.2863 80.251 24.2863C83.728 24.2863 85.7946 22.0882 85.7946 18.6108V15.047H82.2308C82.2308 19.1101 82.7706 20.7225 79.9869 20.7225C79.246 20.7225 78.5348 19.8498 78.5348 19.1386V5.27952C78.5348 2.89537 82.2305 2.4788 82.2305 5.6755V8.31545H85.7942V5.6755C85.7942 2.39208 83.8935 0 80.6466 0C78.595 0 77.3041 0.212232 75.9935 1.68248C75.1639 2.61302 74.7069 4.20841 74.7069 5.93961L74.7073 5.9392Z" fill="#848484"/>
<path fill-rule="evenodd" clip-rule="evenodd" d="M126.844 5.94C126.844 12.6605 134.103 13.6599 134.103 18.6112C134.103 20.5649 132.996 20.7229 131.859 20.7229C130.169 20.7229 130.276 18.3162 130.276 16.7632H126.712C126.712 18.8959 126.839 21.0448 127.877 22.3302C130.706 25.8361 137.799 24.689 137.799 19.0071C137.799 15.1432 137.164 14.2139 134.466 11.5165C132.398 9.44833 130.672 8.45998 130.672 5.27991C130.672 3.04741 133.142 3.06999 133.871 4.06032C134.326 4.67804 134.235 5.90437 134.235 6.73156H137.799V5.54364C137.799 2.38178 135.923 0 132.783 0C130.845 0 129.425 0.150065 128.068 1.75257C127.305 2.65341 126.844 4.31414 126.844 5.93961L126.844 5.94Z" fill="#848484"/>
<path fill-rule="evenodd" clip-rule="evenodd" d="M138.987 3.69558H142.815V23.6261C142.815 23.9303 142.907 24.0221 143.211 24.0221H146.643V3.69558H150.471V0.263672H138.988V3.69558H138.987Z" fill="#848484"/>
<path fill-rule="evenodd" clip-rule="evenodd" d="M62.168 3.69558H65.9959V23.6261C65.9959 23.9303 66.0877 24.0221 66.3918 24.0221H69.8237V3.69558H73.6516V0.263672H62.1684V3.69558H62.168Z" fill="#848484"/>
<path fill-rule="evenodd" clip-rule="evenodd" d="M155.486 24.0221H156.939V3.2996L164.198 24.0221C164.802 24.0221 166.046 24.2625 166.046 23.6262V0.263672H164.462V19.7983L158.408 2.75355C158.175 2.04872 157.659 0.997809 157.598 0.263672H155.486V24.0221Z" fill="#848484"/>
<path fill-rule="evenodd" clip-rule="evenodd" d="M121.168 24.0221H124.6C124.904 24.0221 124.996 23.9303 124.996 23.6261V0.263672H121.168V24.0221Z" fill="#848484"/>
<path fill-rule="evenodd" clip-rule="evenodd" d="M100.842 24.0221H104.273C104.578 24.0221 104.669 23.9303 104.669 23.6261V0.263672H100.842V24.0221Z" fill="#848484"/>
<path fill-rule="evenodd" clip-rule="evenodd" d="M56.7567 24.0217H60.4523V0.263672H56.7567V24.0217Z" fill="#848484"/>
<path fill-rule="evenodd" clip-rule="evenodd" d="M167.762 24.0225H176.737C177.25 24.0225 177.133 23.684 177.133 22.8346C177.133 22.5305 177.041 22.4386 176.737 22.4386H169.345V12.6711H175.813V11.2191H169.345V1.71571H177.133V0.263672H167.762V24.0221V24.0225Z" fill="#848484"/>
<path fill-rule="evenodd" clip-rule="evenodd" d="M178.849 1.7153H183.601V24.0217H185.185V1.7153H189.936V0.263672H178.849V1.7153Z" fill="#848484"/>
<path fill-rule="evenodd" clip-rule="evenodd" d="M17.4973 25.7241C19.1018 26.031 24.3104 27.7701 24.6134 24.4218C24.8391 21.9303 21.065 21.0869 18.7771 20.6279L17.4973 25.7241Z" fill="#848484"/>
<path fill-rule="evenodd" clip-rule="evenodd" d="M19.3537 18.2071C20.2086 18.6756 24.8688 19.9447 25.3068 17.1245C25.6648 14.8208 22.4601 13.9833 20.4454 13.6748L19.3537 18.2071Z" fill="#848484"/>
<path fill-rule="evenodd" clip-rule="evenodd" d="M143.35 36.6315C146.16 36.6315 145.684 36.0462 145.684 33.3932C145.684 30.6895 146.254 29.8916 143.343 29.8916L143.35 36.6315Z" fill="#848484"/>
<path fill-rule="evenodd" clip-rule="evenodd" d="M179.487 35.9022C179.656 35.3755 179.601 32.2038 179.583 31.4095C179.536 29.4415 177.718 29.4795 177.347 30.5724C177.161 31.122 177.2 34.3286 177.231 35.1174C177.263 35.8895 177.417 36.4886 178.106 36.6537C178.835 36.8284 179.317 36.432 179.487 35.9026V35.9022Z" fill="#848484"/>
<path fill-rule="evenodd" clip-rule="evenodd" d="M67.9539 35.9022C68.123 35.3755 68.0683 32.2038 68.0497 31.4095C68.003 29.4415 66.1855 29.4795 65.8145 30.5724C65.6279 31.122 65.6668 34.3286 65.6984 35.1174C65.7871 37.3115 67.6284 36.9155 67.9539 35.9022Z" fill="#848484"/>
<path fill-rule="evenodd" clip-rule="evenodd" d="M171.831 35.9022C172 35.3755 171.945 32.2038 171.927 31.4095C171.881 29.4415 170.063 29.4795 169.692 30.5724C169.505 31.122 169.544 34.3286 169.576 35.1174C169.664 37.3115 171.505 36.9155 171.831 35.9022Z" fill="#848484"/>
<path fill-rule="evenodd" clip-rule="evenodd" d="M57.6819 33.4906C59.4908 33.4906 59.9014 33.5714 59.8963 31.6771C59.8911 29.909 59.4064 29.8916 57.7421 29.8916L57.6819 33.4906Z" fill="#848484"/>
<path fill-rule="evenodd" clip-rule="evenodd" d="M49.1361 33.2274C50.7813 33.2274 51.323 33.2931 51.3179 31.5457C51.3131 29.8149 50.756 29.8921 49.1099 29.8921L49.1361 33.2274Z" fill="#848484"/>
<path fill-rule="evenodd" clip-rule="evenodd" d="M82.1342 33.2274C83.7794 33.2274 84.3211 33.2931 84.316 31.5457C84.3112 29.8149 83.7541 29.8921 82.108 29.8921L82.1342 33.2274Z" fill="#848484"/>
<path fill-rule="evenodd" clip-rule="evenodd" d="M104.407 33.227C106.086 33.227 106.627 33.2932 106.622 31.5457C106.618 29.8149 106.061 29.8921 104.467 29.8921L104.407 33.227Z" fill="#848484"/>
<path fill-rule="evenodd" clip-rule="evenodd" d="M78.0089 33.227C79.6878 33.227 80.2291 33.2932 80.2244 31.5457C80.2196 29.8149 79.6625 29.8921 78.0687 29.8921L78.0089 33.227Z" fill="#848484"/>
<path fill-rule="evenodd" clip-rule="evenodd" d="M134.694 34.9791H136.875L135.814 30.1914C135.427 30.8966 134.861 33.9254 134.694 34.9791Z" fill="#848484"/>
<path fill-rule="evenodd" clip-rule="evenodd" d="M150.867 24.0229H152.45V20.9873H150.867V24.0229Z" fill="#848484"/>
<path fill-rule="evenodd" clip-rule="evenodd" d="M287.634 2.98713L287.659 7.47815L290.628 7.5467L290.633 2.98713C305.84 4.81429 311.094 21.9108 301.605 31.687C297.788 35.6204 295.598 35.9384 290.8 37.0354C290.386 35.7452 290.627 33.8062 290.627 32.3999L287.656 32.3863C287.657 33.8062 287.898 35.7452 287.483 37.0354C284.856 36.4346 283.784 36.4182 281.415 35.2654C267.203 28.3494 268.899 5.24252 287.634 2.98713H287.634ZM288.073 40H289.973C300.214 40 309.318 30.82 309.318 20.2952C309.318 9.36459 300.567 0 289.735 0H288.548C271.847 0 262.298 20.9747 274.539 33.8328C277.152 36.5775 282.301 40 288.073 40Z" fill="#848484"/>
<path fill-rule="evenodd" clip-rule="evenodd" d="M373.065 31.4528L373.109 32.3454L377.301 32.3447L377.366 14.8953L384.261 23.5844C386.559 26.6552 388.827 29.433 391.105 32.3447H394.662C395.026 30.1215 394.788 11.3991 394.785 7.59684L390.45 7.6836L390.448 24.5075C389.401 23.538 387.942 21.542 387.033 20.3293L378.627 9.50583C376.903 7.2032 377.585 7.59684 373.064 7.59684V31.4531L373.065 31.4528Z" fill="#848484"/>
<path fill-rule="evenodd" clip-rule="evenodd" d="M323.944 21.7426C328.062 21.5978 336.164 20.645 335.984 25.2691C335.81 29.7191 328.039 28.4893 323.961 28.4896L323.944 21.7429V21.7426ZM319.648 10.5619L319.693 11.4545C322.694 11.4536 325.682 11.4607 328.67 11.4524C331.604 11.4443 334.767 11.6219 334.655 14.8325C334.488 19.6425 325.644 17.531 319.706 18.1015V32.3456L331.044 32.4033C335.856 32.4033 340.418 30.649 340.418 25.756C340.418 21.8846 338.473 20.6468 335.615 19.5227C337.979 17.7029 340.065 15.6908 338.657 11.737C337.623 8.83481 334.558 7.59766 330.569 7.59766H319.648V10.5622V10.5619Z" fill="#848484"/>
<path fill-rule="evenodd" clip-rule="evenodd" d="M402.266 31.4536L402.31 32.3462L406.598 32.3456C406.74 30.8494 406.336 25.9962 406.845 25.1011C406.929 24.9539 410.308 21.5203 410.572 21.3063L418.942 32.3456L424.223 32.4101C423.385 30.9083 417.703 23.7828 416.207 21.7821C415.367 20.6586 414.281 19.4156 413.54 18.2809C414.272 17.6869 415.278 16.4797 415.965 15.7057C417.517 13.9575 422.958 9.03086 423.655 7.59766H418.291C417.182 9.26088 413.986 12.2736 412.472 13.8803L406.655 19.9426V7.59766H402.274L402.266 31.4539L402.266 31.4536Z" fill="#848484"/>
<path fill-rule="evenodd" clip-rule="evenodd" d="M343.094 32.3448H347.365L355.799 12.7607L360.056 22.5078L355.237 22.5535L353.749 26.3764C365.317 26.4265 360.37 25.3551 364.316 32.3448H368.791C368.631 31.0851 364.232 21.5115 363.401 19.7476C362.448 17.7229 361.599 15.62 360.637 13.4937C360.14 12.3964 359.773 11.4995 359.269 10.3407C357.7 6.72902 358.641 7.41413 353.813 7.41413C353.149 9.4108 352.045 11.6199 351.158 13.5783C349.837 16.4972 343.219 31.2614 343.094 32.3445V32.3448Z" fill="#848484"/>
<path fill-rule="evenodd" clip-rule="evenodd" d="M459.42 19.8193C457.913 22.4294 451.178 30.5711 450.495 32.3439H455.386L461.797 23.0849L468.5 32.3439H473.488C473.134 31.3127 470.023 27.2459 469.158 26.0477C468.336 24.9081 465.058 20.606 464.706 19.5816C466.03 17.8087 472.567 8.93536 473.129 7.5957H468.139C467.637 8.68836 462.816 15.604 462.035 16.3795C460.762 14.7988 456.816 8.32249 455.683 7.5957H450.912C451.593 9.24966 458.073 17.4852 459.42 19.819L459.42 19.8193Z" fill="#848484"/>
<path fill-rule="evenodd" clip-rule="evenodd" d="M427.85 32.3458H447.373L447.442 28.4899H434.79C431.156 28.4991 431.882 29.5248 431.802 23.3576C431.775 21.2741 432.083 21.8172 434.313 21.8345C437.167 21.8567 440.03 21.8361 442.885 21.8361L442.877 17.9795L427.935 17.9801L427.849 32.3461L427.85 32.3458Z" fill="#848484"/>
<path fill-rule="evenodd" clip-rule="evenodd" d="M427.883 10.562L427.945 11.4555L447.195 11.4536L447.263 10.5629L447.251 7.59766H427.861L427.883 10.562Z" fill="#848484"/>
<path fill-rule="evenodd" clip-rule="evenodd" d="M280.834 15.3086H297.807L297.595 12.3428H280.832L280.834 15.3086Z" fill="#848484"/>
<path fill-rule="evenodd" clip-rule="evenodd" d="M280.834 21.4824H297.595V18.5166H280.832L280.834 21.4824Z" fill="#848484"/>
<path fill-rule="evenodd" clip-rule="evenodd" d="M280.834 27.6553H297.595L297.569 24.6895H280.834V27.6553Z" fill="#848484"/>
<path fill-rule="evenodd" clip-rule="evenodd" d="M552.021 4.83709C552.021 6.62038 552.28 7.64914 553.565 8.93948L554.602 10.3069C555.662 12.2939 555.211 14.6538 553.602 16.2471L553.346 16.5147C551.495 18.5273 551.54 21.6952 553.564 23.6842C555.647 25.7311 555.783 28.8955 553.576 30.9656C553.42 31.1117 553.196 31.4051 553.05 31.5896C551.08 34.0826 551.999 37.9748 554.876 39.4158C556.927 40.4425 559.305 40.0852 560.934 38.4274C563.022 36.3023 566.18 36.2797 568.256 38.3745C571.921 42.0726 577.221 38.7958 577.221 35.1607C577.221 33.3704 577.057 32.6964 576.012 31.3502C574.561 29.4812 571.717 29.0099 569.662 30.0069C567.621 30.9963 567.657 32.5467 564.359 32.5467C561.707 32.5467 559.445 29.8426 559.445 27.7367C559.445 24.1272 560.913 24.4241 561.957 22.3016C562.659 20.8752 562.666 19.1045 561.986 17.6669C560.962 15.5026 559.445 15.8413 559.445 12.1563C559.445 11.5323 559.743 10.6754 559.97 10.2767C560.844 8.74743 562.489 7.34622 564.464 7.34622C567.604 7.34622 567.864 9.04885 569.62 9.9279C571.711 10.9753 574.115 10.5529 575.785 8.943C577.069 7.70508 577.731 7.34622 579.73 7.34622C580.585 7.34622 581.69 7.80943 582.313 8.31851C584.1 9.77922 584.302 10.4829 587.05 10.4829C587.833 10.4829 588.419 10.2812 588.994 10.0217L590.423 9.04634L591.442 7.65972C592.417 5.55131 592.08 3.29523 590.515 1.57948C590.386 1.43784 590.061 1.19136 589.889 1.05577C588.43 -0.0974746 586.221 -0.314214 584.503 0.511909C582.028 1.70145 582.576 3.05832 578.894 3.05832C575.86 3.05832 575.809 0.0260311 571.783 0.0260311C570.207 0.0260311 569.309 0.730682 568.333 1.48977C567.758 1.93635 567.666 2.12182 566.871 2.53715C565.812 3.09059 565.366 3.05783 564.15 3.05783C561.95 3.05783 561.056 1.28614 559.552 0.5457C555.813 -1.29355 552.02 1.86527 552.02 4.83559L552.021 4.83709Z" fill="#848484"/>
<path fill-rule="evenodd" clip-rule="evenodd" d="M686.805 28.3637C684.02 28.3637 681.83 27.2004 680.813 24.8399C678.994 20.6151 681.12 14.875 686.073 14.875C688.333 14.875 689.924 15.2581 691.327 16.8363C694.628 20.5505 692.978 28.3637 686.805 28.3637H686.805ZM692.974 14.561C692.817 14.4456 692.579 14.1281 692.438 13.9471C691.981 13.3564 691.143 12.7142 690.466 12.3639C687.784 10.9748 684.258 10.943 681.575 12.2596C681.007 12.5378 680.646 12.7702 680.131 13.1165C677.75 14.7173 676.139 18.0843 676.139 21.0445V22.1947C676.139 25.6499 677.973 28.4403 680.217 30.1419C683.37 32.5331 688.822 32.5598 691.745 29.958C691.966 29.7609 692.166 29.5522 692.375 29.3335C692.606 29.0915 692.711 28.8536 692.974 28.6777V31.3965H696.739V0.131836H692.974V14.5615V14.561Z" fill="#848484"/>
<path fill-rule="evenodd" clip-rule="evenodd" d="M740.865 31.396H744.63V21.358L753.226 30.9554C753.59 31.339 753.529 31.4035 754.242 31.4035C754.766 31.4035 755.293 31.396 755.818 31.396C756.864 31.396 757.91 31.396 758.955 31.396C758.638 30.9222 758.196 30.4791 757.779 30.0628C757.298 29.5829 756.997 29.1711 756.524 28.7034C756.302 28.4826 756.101 28.3057 755.898 28.0753L750.308 22.0591C749.879 21.5465 749.21 20.9401 749.127 20.6261C749.574 20.5067 749.978 19.9316 750.303 19.6069L752.499 17.4109C752.925 16.9804 753.275 16.744 753.701 16.313C754.472 15.5353 755.175 14.8392 755.949 14.0645C756.374 13.6401 756.618 13.3841 757.089 13.0086C757.422 12.7429 757.999 12.1784 758.224 11.8427H752.891C752.507 12.568 751.537 13.3528 750.931 13.9602C750.09 14.8004 745.084 19.9043 744.631 20.2083V0.131836H740.866V31.3965L740.865 31.396Z" fill="#848484"/>
<path fill-rule="evenodd" clip-rule="evenodd" d="M709.914 14.3531C713.556 14.3531 715.769 16.3456 715.769 19.9998H704.162C704.162 16.966 707.006 14.3531 709.914 14.3531H709.914ZM700.085 21.3593C700.085 23.3321 700.32 24.2726 700.88 25.8966C702.084 29.3846 705.893 31.9199 709.705 31.9199C712.643 31.9199 715.398 31.3695 717.418 29.4904C717.94 29.0045 718.576 28.4662 718.907 27.8422C718.054 27.2711 716.741 26.0992 716.083 25.751C715.891 25.88 715.013 26.8795 714.114 27.5453C711.785 29.2702 708.04 28.7576 706.016 26.9304C705.903 26.8276 705.795 26.7364 705.689 26.63C704.75 25.6915 704.163 24.4833 704.163 23.0322H719.848C719.848 20.949 719.858 19.5513 719.208 17.6077C718.738 16.2059 718.38 15.5376 717.534 14.4715C716.103 12.6691 713.564 11.3213 711.065 11.3213C708.848 11.3213 707.732 11.3309 705.66 12.2951C704.002 13.0678 702.763 14.3188 701.799 15.7538C700.797 17.2473 700.085 19.3819 700.085 21.3593H700.085Z" fill="#848484"/>
<path fill-rule="evenodd" clip-rule="evenodd" d="M626.68 21.9867C626.68 19.0128 627.556 16.7915 630.061 15.538C631.843 14.6463 634.217 14.6126 635.987 15.5032C640.484 17.7658 640.117 24.0875 637.688 26.5109C633.915 30.2746 626.68 28.1909 626.68 21.9867ZM622.602 21.5683C622.602 25.6157 624.922 29.3003 628.517 30.9203C631.33 32.1874 634.731 32.3427 637.522 30.9455C639.209 30.1007 639.911 29.5851 641.087 28.2373C643.69 25.2549 644.158 21.1863 642.666 17.5037C642.011 15.8883 640.705 14.362 639.319 13.3217C638.844 12.9653 638.312 12.6312 637.767 12.3645C634.345 10.6901 629.914 10.988 626.859 13.2768L624.379 15.8167C623.294 17.3606 622.603 19.4796 622.603 21.5688L622.602 21.5683Z" fill="#848484"/>
<path fill-rule="evenodd" clip-rule="evenodd" d="M659.723 14.6666C659.723 13.7185 659.934 11.7386 659.409 11.7386H655.959V31.3967H659.723V21.1496C659.723 18.0704 661.145 14.8758 664.742 14.8758C666.299 14.8758 667.551 15.032 668.57 16.3809C669.188 17.1984 669.552 18.4978 669.552 19.895V31.3972H673.316V18.1178C673.316 14.399 670.403 11.3213 666.833 11.3213C664.279 11.3213 662.603 11.5446 660.742 13.3858C660.058 14.0618 660.291 13.9398 659.865 14.4957C659.717 14.6893 659.812 14.5653 659.723 14.6671V14.6666Z" fill="#848484"/>
<path fill-rule="evenodd" clip-rule="evenodd" d="M733.441 25.9585C733.441 28.1063 729.357 29.2303 726.675 27.6002C725.883 27.1183 725.381 26.5478 724.657 26.0629L722.638 27.8079C722.296 28.0942 722.194 28.0861 721.938 28.4676C723.853 31.3276 726.649 31.9183 729.99 31.9183C733.137 31.9183 736.852 30.2772 737.373 26.8588C737.724 24.5578 737.048 22.3183 735.044 21.218C734.194 20.7518 733.086 20.3032 732.019 20.0597C730.566 19.7271 726.749 19.3652 726.749 16.9654C726.749 14.7663 730.959 13.9578 733.362 16.1035C733.64 16.352 733.764 16.5531 734.068 16.7562L736.145 15.1731C736.405 14.976 736.561 14.7532 736.891 14.6645C736.864 14.3313 736.95 14.4679 736.49 13.9155C732.676 9.32921 723.221 11.0752 722.776 16.5486C722.43 20.8047 724.774 21.8607 728.36 22.8819C729.533 23.2161 730.513 23.2775 731.59 23.7292C732.435 24.0835 733.44 24.828 733.44 25.9575L733.441 25.9585Z" fill="#848484"/>
<path fill-rule="evenodd" clip-rule="evenodd" d="M603.362 21.4617C603.362 27.6393 607.505 31.9181 613.296 31.9181H614.132C616.989 31.9181 620.009 30.4679 621.138 28.7809L618.444 26.1423C617.404 27.6629 615.49 28.3631 613.505 28.3631C611.611 28.3631 610.137 27.4961 609.19 26.5092C606.793 24.0132 606.91 19.7177 609.067 16.8145C609.459 16.2857 610.208 15.7383 610.82 15.4304C612.331 14.6678 614.946 14.7136 616.326 15.5045C616.681 15.7081 617.072 15.938 617.399 16.2086C617.752 16.5005 618.07 16.7041 618.316 17.07L621.139 14.4556C620.617 13.6763 619.131 12.6511 618.198 12.2731C614.822 10.9046 610.585 10.887 607.56 13.1113L606.212 14.2726C605.296 15.1854 604.753 16.0443 604.2 17.2792C603.754 18.2742 603.363 20.0146 603.363 21.4617H603.362Z" fill="#848484"/>
<path fill-rule="evenodd" clip-rule="evenodd" d="M646.966 12.0528V31.3974H650.73V11.7393H647.28C647.039 11.7393 646.966 11.8119 646.966 12.0528Z" fill="#848484"/>
<path fill-rule="evenodd" clip-rule="evenodd" d="M760.523 4.83767C760.523 2.7091 762.216 0.968657 764.078 0.968657C765.246 0.968657 766.158 1.10827 767.087 2.03773C769.36 4.31045 767.862 8.60187 764.392 8.60187C762.302 8.60187 760.523 6.91281 760.523 4.83767H760.523ZM759.582 4.83767C759.582 7.27875 761.846 9.54291 764.288 9.54291C766.837 9.54291 769.098 7.44963 769.098 4.94202V4.41933C769.098 2.25699 766.868 0.0276143 764.706 0.0276143C763.547 0.0276143 763.251 -0.00164082 762.194 0.548269C760.646 1.35474 759.582 2.86031 759.582 4.83767Z" fill="#848484"/>
<path fill-rule="evenodd" clip-rule="evenodd" d="M646.129 4.52134V5.14888C646.129 7.05314 648.939 8.4342 650.612 6.9125C652.856 4.87215 651.049 2.01172 648.848 2.01172C647.497 2.01172 646.129 3.2073 646.129 4.52134Z" fill="#848484"/>
<path fill-rule="evenodd" clip-rule="evenodd" d="M764.706 4.31216H763.556V2.95276C765.007 2.95276 765.438 2.75922 765.438 3.78898C765.438 4.12719 765.058 4.31167 764.706 4.31167V4.31216ZM762.51 7.44932H763.556V5.2532H764.287C764.385 5.62014 765.287 6.96695 765.542 7.44932H766.692C766.271 6.65243 765.759 5.95382 765.333 5.14887C767.141 4.99817 767.033 2.01172 764.915 2.01172H762.51V7.4488V7.44932Z" fill="#848484"/>
<path fill-rule="evenodd" clip-rule="evenodd" d="M584.854 20.4157C584.854 22.8174 588.619 23.0115 588.619 20.3113C588.619 17.9771 584.854 17.8743 584.854 20.4157Z" fill="#848484"/>
<path fill-rule="evenodd" clip-rule="evenodd" d="M570.11 20.5232C570.11 22.9225 573.875 23.1397 573.875 20.4189C573.875 18.0902 570.11 18.002 570.11 20.5232Z" fill="#848484"/>
<path fill-rule="evenodd" clip-rule="evenodd" d="M584.854 34.846C584.854 37.341 588.619 37.3627 588.619 34.846C588.619 32.3309 584.854 32.4075 584.854 34.846Z" fill="#848484"/>
<path fill-rule="evenodd" clip-rule="evenodd" d="M895.176 15.0429C899.096 14.2699 905.833 13.5778 906.148 18.3491C906.454 22.9875 906.153 28.7995 906.154 33.6274L912.103 33.6488C912.085 29.7727 912.1 25.8929 912.1 22.0165C912.101 17.8016 912.309 15.0642 909.257 13.2607C903.848 10.0642 895.175 11.7033 889.216 12.9928L889.215 33.6532L895.089 33.5469L895.176 15.0429H895.176Z" fill="#848484"/>
<path fill-rule="evenodd" clip-rule="evenodd" d="M1013.82 30.9033C1009.92 32.1708 1002.49 32.159 1002.77 27.1016C1003.02 22.501 1009.77 21.9617 1014.06 21.791L1013.82 30.9033ZM1000.07 15.6863C1003.35 15.1654 1005.37 14.2577 1009.11 14.5517C1012.63 14.8287 1014.19 15.8188 1014 19.526C1009.91 19.8685 1005.68 20.1934 1002.06 21.6386C999.104 22.8141 995.64 25.6067 997.616 29.9195C1000.31 35.8007 1013.12 34.6874 1019.55 32.7087C1019.68 29.1119 1019.58 25.3488 1019.58 21.7335C1019.58 17.5786 1019.7 15.597 1017.06 13.5664C1012.35 9.94125 1004.43 11.8338 998.893 12.9792L1000.07 15.6863H1000.07Z" fill="#848484"/>
<path fill-rule="evenodd" clip-rule="evenodd" d="M919.938 22.1519C920.267 10.2996 935.001 13.58 933.167 20.6942L919.938 22.1519ZM937.996 32.8044L936.738 29.7848C933.201 30.3209 930.369 31.5085 926.333 30.7002C922.902 30.0129 920.827 28.1119 920.334 24.4952L939.044 22.5853C939.198 15.991 935.603 12.2735 929.426 11.6072C917.243 10.293 912.446 19.3759 915.307 27.1457C916.221 29.6288 918.05 31.4519 920.281 32.573C926.197 35.5458 931.995 33.893 937.995 32.804L937.996 32.8044Z" fill="#848484"/>
<path fill-rule="evenodd" clip-rule="evenodd" d="M952.071 19.2627C951.167 17.6368 949.296 15.5404 948.112 14.0028C946.085 11.3714 946.305 12.0112 940.271 12.0462L941.296 13.526C941.7 14.0164 941.847 14.1342 942.351 14.7041L944.532 17.2965C945.638 18.7049 948.167 21.1983 948.772 22.6189L941.645 30.5818C941.109 31.1786 939.549 32.9461 939.232 33.6102L945.535 33.6183C946.1 32.4567 947.678 30.7073 948.533 29.6061C949.357 28.5461 951.003 26.6539 951.518 25.5589C952.74 26.1671 956.235 31.0402 957.24 32.3902C958.538 34.1323 958.918 33.6657 962.844 33.6569L964.862 33.6481C964.104 31.8497 956.046 24.01 955.307 22.0154C956.741 20.6118 958.204 18.5618 959.609 17.0926C960.52 16.1401 963.693 12.8457 963.874 12.0477C957.853 12.0598 958.928 11.3379 956.624 14.1125C955.721 15.2004 953.04 18.8027 952.071 19.2619L952.071 19.2627Z" fill="#848484"/>
<path fill-rule="evenodd" clip-rule="evenodd" d="M859 33.6235L864.975 33.647C865.773 31.0093 864.642 24.1803 865.277 21.057L876.181 21.0372L876.178 17.9352L865.278 17.937L865.147 9.31401L877.347 9.24671L877.459 6.13442L859.076 6.12598L859 33.6235H859Z" fill="#848484"/>
<path fill-rule="evenodd" clip-rule="evenodd" d="M968.789 7.20164L968.729 11.9828L964.978 12.0608L964.88 14.8412L968.715 14.9115C968.782 17.8872 968.356 27.9257 968.97 29.9511C970.069 33.5825 975.462 34.9979 979.855 33.6969L979.947 30.9481C973.274 30.6869 974.617 30.1343 974.632 14.9144L979.832 14.8644L979.894 12.0648L974.627 12.038L974.628 6L968.79 7.20128L968.789 7.20164Z" fill="#848484"/>
<path fill-rule="evenodd" clip-rule="evenodd" d="M997.121 13.2989C997.353 12.7039 997.495 12.2812 997.626 11.6697C992.433 10.8809 987.841 12.0744 983.25 12.9563C983.147 15.7787 982.902 32.113 983.444 33.6627L989.114 33.6097L989.238 15.0502C992.085 14.4324 993.332 14.5182 996.262 14.8592L997.121 13.2989Z" fill="#848484"/>
<path fill-rule="evenodd" clip-rule="evenodd" d="M879.964 33.6471L885.907 33.6015L885.914 12.0566L879.976 12.0713L879.964 33.6471Z" fill="#848484"/>
<path fill-rule="evenodd" clip-rule="evenodd" d="M880.006 9.2419L885.783 9.25186L885.882 6.14585L880.095 6.12598L880.006 9.2419Z" fill="#848484"/>
</svg>
