<svg width="1151" height="262" viewBox="0 0 1151 262" fill="none" xmlns="http://www.w3.org/2000/svg">
<g id="token-informations">
<path id="FOC" d="M148.625 129.914V133.314H134.687V144.124H146.003V147.524H134.687V161.976H130.496V129.914H148.625ZM168.216 162.298C165.368 162.33 162.561 161.617 160.074 160.228C157.64 158.837 155.623 156.82 154.232 154.386C152.802 151.797 152.073 148.879 152.116 145.922C152.069 142.979 152.799 140.075 154.232 137.504C155.606 135.057 157.627 133.036 160.074 131.662C162.572 130.274 165.382 129.546 168.239 129.546C171.096 129.546 173.906 130.274 176.404 131.662C178.837 133.021 180.846 135.029 182.204 137.462C183.641 140.048 184.371 142.968 184.32 145.926C184.368 148.884 183.635 151.802 182.196 154.386C180.83 156.825 178.825 158.844 176.396 160.228C173.896 161.619 171.077 162.333 168.216 162.298V162.298ZM168.216 158.664C170.329 158.697 172.412 158.156 174.242 157.1C176.055 156.054 177.525 154.504 178.474 152.638C179.55 150.566 180.088 148.256 180.038 145.922C180.095 143.587 179.557 141.276 178.474 139.206C177.533 137.35 176.081 135.801 174.288 134.744C172.443 133.682 170.345 133.14 168.216 133.176C166.088 133.139 163.99 133.68 162.144 134.74C160.345 135.804 158.879 137.349 157.912 139.202C156.859 141.282 156.338 143.591 156.396 145.922C156.346 148.251 156.867 150.557 157.914 152.638C158.881 154.491 160.347 156.036 162.146 157.1C163.994 158.153 166.09 158.693 168.216 158.664V158.664ZM188.278 145.922C188.232 142.979 188.962 140.075 190.396 137.504C191.742 135.055 193.73 133.02 196.146 131.616C198.623 130.199 201.433 129.469 204.286 129.5C207.52 129.426 210.703 130.306 213.44 132.03C216.066 133.743 218.066 136.261 219.14 139.206H214.13C213.319 137.364 211.973 135.81 210.266 134.744C208.464 133.66 206.388 133.116 204.286 133.176C202.173 133.143 200.09 133.684 198.26 134.74C196.467 135.797 195.015 137.346 194.074 139.202C193.021 141.281 192.499 143.588 192.556 145.918C192.506 148.247 193.027 150.553 194.074 152.634C195.025 154.471 196.476 156.002 198.26 157.05C200.09 158.106 202.173 158.647 204.286 158.614C206.382 158.675 208.453 158.149 210.266 157.096C211.973 156.03 213.319 154.476 214.13 152.634H219.144C218.06 155.562 216.061 158.062 213.444 159.764C210.697 161.459 207.517 162.322 204.29 162.248C201.442 162.28 198.635 161.567 196.148 160.178C193.741 158.783 191.755 156.765 190.398 154.336C188.964 151.766 188.233 148.864 188.278 145.922V145.922Z" fill="white"/>
<path id="border" d="M328 2.5H21C10.7827 2.5 2.5 10.7827 2.5 21V241C2.5 251.217 10.7827 259.5 21 259.5H328C338.217 259.5 346.5 251.217 346.5 241V21C346.5 10.7827 338.217 2.5 328 2.5Z" stroke="#A349C0" stroke-width="5"/>
<path id="force" d="M749.625 39.375V41.7H745V56.75H742.15V41.7H737.5V39.375H749.625ZM759.636 42.75C760.612 42.7319 761.576 42.9643 762.436 43.425C763.273 43.879 763.953 44.5764 764.386 45.425C764.894 46.4134 765.144 47.5143 765.111 48.625V56.75H762.286V49.05C762.357 48.0239 762.025 47.0104 761.361 46.225C761.036 45.8872 760.643 45.623 760.207 45.4505C759.772 45.278 759.304 45.2011 758.836 45.225C758.365 45.2028 757.894 45.2804 757.454 45.4527C757.015 45.625 756.617 45.8882 756.286 46.225C755.622 47.0105 755.29 48.0239 755.361 49.05V56.75H752.511V38.25H755.361V44.575C755.853 43.9856 756.478 43.5227 757.186 43.225C757.962 42.9032 758.796 42.7416 759.636 42.75V42.75ZM781.371 49.525C781.375 49.9936 781.341 50.4617 781.271 50.925H770.747C770.789 51.9357 771.229 52.8886 771.972 53.575C772.71 54.2435 773.677 54.6017 774.672 54.575C775.345 54.621 776.017 54.4616 776.598 54.1179C777.178 53.7742 777.641 53.2624 777.925 52.65H781C780.591 53.906 779.795 55.0001 778.725 55.775C777.542 56.6058 776.12 57.0271 774.675 56.975C773.436 56.9944 772.213 56.693 771.125 56.1C770.096 55.5048 769.249 54.6405 768.675 53.6C768.074 52.443 767.773 51.1536 767.8 49.85C767.771 48.5572 768.063 47.2774 768.65 46.125C769.201 45.0755 770.043 44.2073 771.075 43.625C772.179 43.0287 773.418 42.7273 774.672 42.75C775.884 42.7283 777.082 43.0212 778.147 43.6C779.154 44.1551 779.979 44.9883 780.525 46C781.107 47.0823 781.399 48.2966 781.372 49.525H781.371ZM778.396 48.625C778.406 48.1474 778.311 47.6733 778.116 47.2368C777.922 46.8003 777.634 46.4121 777.272 46.1C776.512 45.4572 775.542 45.1187 774.547 45.15C773.615 45.1308 772.71 45.4709 772.022 46.1C771.303 46.7546 770.856 47.6561 770.772 48.625H778.396ZM794.396 39.375V41.7H787.025V46.825H792.775V49.15H787.025V56.75H784.175V39.375H794.396ZM803.012 56.975C801.781 56.9923 800.567 56.6909 799.487 56.1C798.447 55.5106 797.591 54.6455 797.012 53.6C796.395 52.448 796.085 51.1566 796.112 49.85C796.087 48.5486 796.406 47.2638 797.037 46.125C797.625 45.0697 798.501 44.2029 799.562 43.625C800.666 43.0502 801.892 42.7501 803.137 42.7501C804.382 42.7501 805.608 43.0502 806.712 43.625C807.773 44.2029 808.649 45.0698 809.237 46.125C809.868 47.2638 810.187 48.5486 810.162 49.85C810.187 51.1546 809.858 52.4416 809.212 53.575C808.596 54.6414 807.696 55.5156 806.612 56.1C805.506 56.6884 804.27 56.9893 803.018 56.975H803.012ZM803.012 54.5C803.729 54.5042 804.435 54.3234 805.062 53.975C805.726 53.6109 806.273 53.0644 806.637 52.4C807.057 51.6174 807.264 50.738 807.237 49.85C807.266 48.9729 807.068 48.1032 806.662 47.325C806.318 46.6647 805.791 46.1177 805.143 45.75C804.515 45.4056 803.81 45.2251 803.093 45.2251C802.376 45.2251 801.671 45.4056 801.043 45.75C800.408 46.1195 799.895 46.6671 799.568 47.325C799.179 48.1082 798.99 48.9758 799.018 49.85C798.939 51.1014 799.342 52.3356 800.143 53.3C800.511 53.691 800.957 53.9999 801.452 54.2067C801.948 54.4135 802.481 54.5134 803.018 54.5H803.012ZM815.835 44.975C816.23 44.296 816.8 43.7349 817.485 43.35C818.243 42.9354 819.097 42.7284 819.96 42.75V45.7H819.235C818.306 45.6345 817.389 45.9402 816.685 46.55C816.03 47.3862 815.726 48.4437 815.835 49.5V56.75H812.985V42.975H815.835V44.975ZM821.625 49.85C821.596 48.5572 821.888 47.2774 822.475 46.125C823.021 45.0805 823.854 44.2133 824.875 43.625C825.945 43.0276 827.155 42.7256 828.38 42.75C829.849 42.6909 831.297 43.1122 832.505 43.95C833.628 44.7706 834.416 45.9692 834.725 47.325H831.655C831.433 46.6789 831.013 46.1191 830.455 45.725C829.84 45.3228 829.115 45.1219 828.38 45.15C827.849 45.1301 827.32 45.2325 826.835 45.4492C826.349 45.6659 825.92 45.9912 825.58 46.4C824.841 47.3925 824.478 48.615 824.555 49.85C824.481 51.0925 824.843 52.3219 825.58 53.325C825.92 53.7339 826.349 54.0592 826.835 54.2759C827.32 54.4926 827.849 54.595 828.38 54.575C829.091 54.6352 829.802 54.453 830.396 54.0582C830.991 53.6633 831.435 53.0789 831.655 52.4H834.725C834.37 53.7351 833.58 54.9138 832.48 55.75C831.284 56.5964 829.844 57.0268 828.38 56.975C827.156 56.9986 825.949 56.6966 824.88 56.1C823.866 55.5027 823.035 54.6378 822.48 53.6C821.893 52.4385 821.6 51.1511 821.625 49.85V49.85ZM850.19 49.525C850.194 49.9936 850.16 50.4618 850.09 50.925H839.57C839.612 51.9357 840.052 52.8886 840.795 53.575C841.533 54.2436 842.5 54.6018 843.495 54.575C844.168 54.6204 844.839 54.4607 845.419 54.117C845.999 53.7734 846.461 53.2619 846.745 52.65H849.82C849.411 53.906 848.615 55 847.545 55.775C846.362 56.6059 844.94 57.0273 843.495 56.975C842.256 56.9944 841.033 56.693 839.945 56.1C838.916 55.5047 838.069 54.6404 837.495 53.6C836.894 52.443 836.593 51.1536 836.62 49.85C836.591 48.5572 836.883 47.2773 837.47 46.125C838.021 45.0755 838.863 44.2073 839.895 43.625C841 43.0282 842.24 42.7267 843.495 42.75C844.707 42.7284 845.905 43.0212 846.97 43.6C847.976 44.1555 848.8 44.9887 849.345 46C849.928 47.0819 850.221 48.2964 850.195 49.525H850.19ZM847.215 48.625C847.226 48.1477 847.131 47.6739 846.937 47.2374C846.743 46.801 846.456 46.4126 846.095 46.1C845.335 45.4572 844.365 45.1187 843.37 45.15C842.438 45.1309 841.534 45.471 840.845 46.1C840.125 46.7545 839.679 47.6561 839.595 48.625H847.215ZM858.539 48.025C858.515 46.4218 858.923 44.8417 859.719 43.45C860.49 42.1283 861.604 41.0398 862.944 40.3C864.393 39.509 866.024 39.1133 867.674 39.1528C869.324 39.1923 870.935 39.6656 872.344 40.525C873.792 41.423 874.901 42.7775 875.494 44.375H872.069C871.671 43.5145 871.016 42.7984 870.194 42.325C869.343 41.8624 868.387 41.6298 867.419 41.65C866.343 41.6311 865.282 41.8986 864.344 42.425C863.437 42.9482 862.7 43.7204 862.219 44.65C861.7 45.6981 861.443 46.856 861.469 48.025C861.443 49.1941 861.7 50.352 862.219 51.4C862.704 52.3334 863.44 53.1127 864.344 53.65C865.282 54.1766 866.343 54.444 867.419 54.425C868.387 54.4453 869.343 54.2127 870.194 53.75C871.016 53.2767 871.671 52.5606 872.069 51.7H875.494C874.901 53.2976 873.792 54.6521 872.344 55.55C870.929 56.3938 869.32 56.8579 867.674 56.8973C866.027 56.9368 864.398 56.5502 862.944 55.775C861.607 55.021 860.494 53.9253 859.719 52.6C858.924 51.2079 858.518 49.6278 858.544 48.025H858.539ZM884.8 56.975C883.569 56.9923 882.355 56.6909 881.275 56.1C880.235 55.5106 879.379 54.6455 878.8 53.6C878.183 52.448 877.873 51.1566 877.9 49.85C877.875 48.5486 878.194 47.2636 878.825 46.125C879.413 45.0695 880.289 44.2026 881.35 43.625C882.454 43.0502 883.68 42.7501 884.925 42.7501C886.17 42.7501 887.396 43.0502 888.5 43.625C889.561 44.2033 890.436 45.0701 891.025 46.125C891.656 47.2638 891.975 48.5486 891.95 49.85C891.974 51.1546 891.646 52.4416 891 53.575C890.384 54.6413 889.484 55.5154 888.4 56.1C887.294 56.6884 886.058 56.9892 884.805 56.975H884.8ZM884.8 54.5C885.517 54.5041 886.223 54.3233 886.85 53.975C887.514 53.6109 888.061 53.0644 888.425 52.4C888.845 51.6174 889.052 50.738 889.025 49.85C889.054 48.9729 888.856 48.1032 888.45 47.325C888.104 46.664 887.575 46.1171 886.925 45.75C886.297 45.4056 885.592 45.2251 884.875 45.2251C884.158 45.2251 883.453 45.4056 882.825 45.75C882.19 46.1192 881.677 46.6669 881.35 47.325C880.96 48.1082 880.771 48.9758 880.8 49.85C880.721 51.1014 881.124 52.3356 881.925 53.3C882.293 53.6917 882.74 54.001 883.237 54.2078C883.733 54.4146 884.267 54.5142 884.805 54.5H884.8ZM896.225 41.15C895.984 41.1544 895.745 41.1101 895.521 41.02C895.298 40.9298 895.095 40.7955 894.925 40.6252C894.755 40.4548 894.62 40.2519 894.53 40.0285C894.44 39.8052 894.396 39.5659 894.4 39.325C894.396 39.0842 894.44 38.8449 894.53 38.6215C894.62 38.3982 894.755 38.1953 894.925 38.0249C895.095 37.8546 895.298 37.7203 895.521 37.6301C895.745 37.5399 895.984 37.4957 896.225 37.5C896.462 37.4958 896.698 37.5402 896.917 37.6305C897.136 37.7208 897.335 37.8551 897.5 38.025C897.672 38.1944 897.807 38.3971 897.897 38.6207C897.987 38.8443 898.031 39.084 898.025 39.325C898.031 39.5661 897.987 39.8058 897.897 40.0294C897.807 40.253 897.672 40.4557 897.5 40.625C897.335 40.795 897.136 40.9293 896.917 41.0196C896.698 41.1099 896.462 41.1543 896.225 41.15V41.15ZM897.625 42.975V56.75H894.775V42.975H897.625ZM908.314 42.75C909.322 42.732 910.318 42.964 911.214 43.425C912.076 43.8706 912.783 44.5682 913.239 45.425C913.747 46.4134 913.996 47.5143 913.964 48.625V56.75H911.139V49.05C911.21 48.0239 910.878 47.0103 910.214 46.225C909.889 45.8872 909.496 45.6231 909.06 45.4506C908.625 45.2781 908.157 45.2012 907.689 45.225C907.217 45.2027 906.747 45.2802 906.307 45.4525C905.868 45.6249 905.47 45.8881 905.139 46.225C904.475 47.0103 904.143 48.0239 904.214 49.05V56.75H901.364V42.975H904.214V44.55C904.693 43.9743 905.301 43.5203 905.989 43.225C906.723 42.9082 907.515 42.7465 908.314 42.75V42.75ZM748.625 94.375V96.7H741.25V101.825H747V104.15H741.25V111.75H738.4V94.375H748.625ZM759.191 111.925C757.628 111.938 756.087 111.551 754.716 110.8C753.379 110.046 752.266 108.95 751.491 107.625C750.698 106.223 750.293 104.635 750.316 103.025C750.291 101.422 750.697 99.8423 751.491 98.45C752.262 97.1283 753.376 96.0398 754.716 95.3C756.082 94.5335 757.625 94.1371 759.191 94.15C760.758 94.1327 762.302 94.5294 763.666 95.3C765.013 96.0304 766.129 97.1211 766.891 98.45C767.685 99.8423 768.091 101.422 768.066 103.025C768.089 104.635 767.684 106.223 766.891 107.625C766.125 108.958 765.01 110.055 763.666 110.8C762.296 111.555 760.755 111.943 759.191 111.925V111.925ZM759.191 109.45C760.267 109.469 761.328 109.202 762.266 108.675C763.167 108.141 763.895 107.36 764.366 106.425C764.899 105.372 765.165 104.205 765.141 103.025C765.167 101.853 764.901 100.693 764.366 99.65C763.899 98.7185 763.169 97.9448 762.266 97.425C761.321 96.9163 760.264 96.6501 759.191 96.6501C758.118 96.6501 757.061 96.9163 756.116 97.425C755.21 97.9484 754.472 98.7205 753.991 99.65C753.472 100.698 753.215 101.856 753.241 103.025C753.217 104.202 753.474 105.367 753.991 106.425C754.476 107.358 755.212 108.138 756.116 108.675C757.054 109.202 758.115 109.469 759.191 109.45V109.45ZM769.925 103.025C769.899 101.423 770.303 99.8427 771.096 98.45C771.868 97.1277 772.984 96.0392 774.325 95.3C775.774 94.509 777.405 94.1133 779.055 94.1528C780.705 94.1923 782.316 94.6656 783.725 95.525C785.173 96.423 786.282 97.7775 786.875 99.375H783.446C783.048 98.5145 782.393 97.7984 781.571 97.325C780.72 96.8624 779.764 96.6298 778.796 96.65C777.72 96.6311 776.659 96.8985 775.721 97.425C774.815 97.9484 774.077 98.7205 773.596 99.65C773.102 100.707 772.846 101.859 772.846 103.025C772.846 104.191 773.102 105.343 773.596 106.4C774.082 107.334 774.82 108.113 775.725 108.65C776.663 109.177 777.724 109.444 778.8 109.425C779.767 109.445 780.722 109.212 781.571 108.75C782.393 108.277 783.048 107.561 783.446 106.7H786.871C786.279 108.297 785.172 109.651 783.725 110.55C782.31 111.394 780.701 111.858 779.055 111.897C777.408 111.937 775.779 111.55 774.325 110.775C772.988 110.021 771.875 108.925 771.1 107.6C770.306 106.208 769.9 104.628 769.925 103.025V103.025ZM737.654 151.125V148.525H742.854V166.75H739.975V151.125H737.654ZM750.269 163.325L747.244 170.225H745.39L747.165 163.325H750.269ZM752.384 157.4C752.259 155.061 752.76 152.731 753.834 150.65C754.817 149.017 756.501 148.2 758.884 148.2C761.267 148.2 762.942 149.017 763.909 150.65C765.001 152.726 765.51 155.058 765.384 157.4C765.509 159.774 765 162.138 763.909 164.25C762.942 165.883 761.267 166.699 758.884 166.7C756.501 166.701 754.817 165.884 753.834 164.25C752.76 162.133 752.259 159.771 752.381 157.4H752.384ZM762.584 157.4C762.601 156.252 762.509 155.105 762.309 153.975C762.184 153.132 761.82 152.342 761.259 151.7C760.953 151.386 760.581 151.143 760.171 150.987C759.761 150.832 759.322 150.768 758.884 150.8C758.446 150.768 758.007 150.832 757.597 150.987C757.187 151.143 756.815 151.386 756.509 151.7C755.946 152.344 755.574 153.132 755.434 153.975C755.252 155.107 755.168 156.253 755.184 157.4C755.168 158.58 755.251 159.759 755.434 160.925C755.555 161.777 755.92 162.576 756.484 163.225C756.8 163.531 757.178 163.767 757.591 163.917C758.005 164.068 758.445 164.13 758.884 164.1C759.319 164.132 759.757 164.071 760.166 163.92C760.576 163.769 760.948 163.532 761.259 163.225C761.838 162.582 762.212 161.781 762.334 160.925C762.516 159.759 762.598 158.58 762.581 157.4H762.584ZM768.4 157.4C768.275 155.061 768.776 152.731 769.85 150.65C770.833 149.017 772.517 148.2 774.9 148.2C777.283 148.2 778.958 149.017 779.925 150.65C781.017 152.726 781.526 155.058 781.4 157.4C781.525 159.774 781.016 162.138 779.925 164.25C778.958 165.883 777.283 166.699 774.9 166.7C772.517 166.701 770.833 165.884 769.85 164.25C768.775 162.133 768.274 159.771 768.396 157.4H768.4ZM778.6 157.4C778.617 156.252 778.525 155.105 778.325 153.975C778.2 153.132 777.836 152.342 777.275 151.7C776.969 151.386 776.597 151.143 776.187 150.987C775.777 150.832 775.338 150.768 774.9 150.8C774.462 150.768 774.023 150.832 773.613 150.987C773.203 151.143 772.831 151.386 772.525 151.7C771.962 152.344 771.59 153.132 771.45 153.975C771.268 155.107 771.184 156.253 771.2 157.4C771.184 158.58 771.267 159.759 771.45 160.925C771.571 161.777 771.936 162.576 772.5 163.225C772.816 163.531 773.194 163.767 773.607 163.917C774.021 164.068 774.461 164.13 774.9 164.1C775.335 164.132 775.773 164.071 776.182 163.92C776.592 163.769 776.964 163.532 777.275 163.225C777.854 162.582 778.228 161.781 778.35 160.925C778.532 159.759 778.614 158.58 778.596 157.4H778.6ZM784.416 157.4C784.291 155.061 784.792 152.731 785.866 150.65C786.849 149.017 788.533 148.2 790.916 148.2C793.299 148.2 794.974 149.017 795.941 150.65C797.033 152.726 797.542 155.058 797.416 157.4C797.541 159.774 797.032 162.138 795.941 164.25C794.974 165.883 793.299 166.699 790.916 166.7C788.533 166.701 786.849 165.884 785.866 164.25C784.791 162.133 784.29 159.771 784.412 157.4H784.416ZM794.616 157.4C794.633 156.252 794.541 155.105 794.341 153.975C794.217 153.132 793.852 152.342 793.291 151.7C792.636 151.12 791.791 150.8 790.916 150.8C790.041 150.8 789.196 151.12 788.541 151.7C787.978 152.344 787.606 153.132 787.466 153.975C787.284 155.107 787.2 156.253 787.216 157.4C787.2 158.58 787.283 159.759 787.466 160.925C787.587 161.777 787.952 162.576 788.516 163.225C788.832 163.531 789.21 163.767 789.623 163.917C790.037 164.068 790.477 164.13 790.916 164.1C791.351 164.132 791.789 164.071 792.198 163.92C792.608 163.769 792.98 163.532 793.291 163.225C793.87 162.582 794.244 161.781 794.366 160.925C794.548 159.759 794.63 158.58 794.612 157.4H794.616ZM803.932 163.325L800.907 170.225H799.057L800.832 163.325H803.932ZM806.047 157.4C805.922 155.061 806.423 152.731 807.497 150.65C808.48 149.017 810.164 148.2 812.547 148.2C814.93 148.2 816.605 149.017 817.572 150.65C818.664 152.726 819.173 155.058 819.047 157.4C819.172 159.774 818.663 162.138 817.572 164.25C816.605 165.883 814.93 166.699 812.547 166.7C810.164 166.701 808.48 165.884 807.497 164.25C806.422 162.133 805.921 159.771 806.043 157.4H806.047ZM816.247 157.4C816.264 156.252 816.172 155.105 815.972 153.975C815.847 153.132 815.483 152.342 814.922 151.7C814.267 151.12 813.422 150.8 812.547 150.8C811.672 150.8 810.827 151.12 810.172 151.7C809.609 152.344 809.237 153.132 809.097 153.975C808.915 155.107 808.831 156.253 808.847 157.4C808.831 158.58 808.914 159.759 809.097 160.925C809.218 161.777 809.583 162.576 810.147 163.225C810.463 163.531 810.841 163.767 811.254 163.917C811.668 164.068 812.108 164.13 812.547 164.1C812.982 164.132 813.42 164.071 813.829 163.92C814.239 163.769 814.611 163.532 814.922 163.225C815.501 162.582 815.875 161.781 815.997 160.925C816.178 159.759 816.261 158.58 816.243 157.4H816.247ZM822.063 157.4C821.938 155.061 822.439 152.731 823.513 150.65C824.496 149.017 826.18 148.2 828.563 148.2C830.946 148.2 832.621 149.017 833.588 150.65C834.68 152.726 835.189 155.058 835.063 157.4C835.188 159.774 834.679 162.138 833.588 164.25C832.621 165.883 830.946 166.699 828.563 166.7C826.18 166.701 824.496 165.884 823.513 164.25C822.438 162.133 821.936 159.771 822.058 157.4H822.063ZM832.263 157.4C832.28 156.252 832.188 155.105 831.988 153.975C831.863 153.132 831.499 152.342 830.938 151.7C830.283 151.12 829.438 150.8 828.563 150.8C827.688 150.8 826.843 151.12 826.188 151.7C825.625 152.344 825.253 153.132 825.113 153.975C824.931 155.107 824.847 156.253 824.863 157.4C824.847 158.58 824.93 159.759 825.113 160.925C825.234 161.777 825.599 162.576 826.163 163.225C826.479 163.531 826.857 163.767 827.27 163.917C827.684 164.068 828.124 164.13 828.563 164.1C828.998 164.132 829.436 164.071 829.845 163.92C830.255 163.769 830.627 163.532 830.938 163.225C831.517 162.582 831.891 161.781 832.013 160.925C832.194 159.759 832.276 158.58 832.258 157.4H832.263ZM838.079 157.4C837.953 155.062 838.452 152.732 839.525 150.65C840.508 149.017 842.192 148.2 844.575 148.2C846.958 148.2 848.633 149.017 849.6 150.65C850.691 152.726 851.201 155.058 851.075 157.4C851.2 159.774 850.691 162.138 849.6 164.25C848.633 165.883 846.958 166.699 844.575 166.7C842.192 166.701 840.508 165.884 839.525 164.25C838.451 162.133 837.951 159.771 838.074 157.4H838.079ZM848.279 157.4C848.296 156.252 848.204 155.105 848.004 153.975C847.879 153.132 847.515 152.342 846.954 151.7C846.299 151.12 845.454 150.8 844.579 150.8C843.704 150.8 842.859 151.12 842.204 151.7C841.641 152.344 841.269 153.132 841.129 153.975C840.947 155.107 840.863 156.253 840.879 157.4C840.862 158.58 840.946 159.759 841.129 160.925C841.249 161.777 841.614 162.576 842.179 163.225C842.495 163.531 842.873 163.767 843.286 163.917C843.7 164.068 844.14 164.13 844.579 164.1C845.014 164.132 845.452 164.07 845.861 163.92C846.271 163.769 846.643 163.532 846.954 163.225C847.533 162.582 847.907 161.781 848.029 160.925C848.21 159.759 848.292 158.58 848.274 157.4H848.279ZM857.594 163.325L854.569 170.225H852.719L854.494 163.325H857.594ZM859.71 157.4C859.585 155.061 860.086 152.731 861.16 150.65C862.143 149.017 863.827 148.2 866.21 148.2C868.593 148.2 870.268 149.017 871.235 150.65C872.326 152.726 872.836 155.058 872.71 157.4C872.835 159.774 872.326 162.138 871.235 164.25C870.268 165.883 868.593 166.699 866.21 166.7C863.827 166.701 862.143 165.884 861.16 164.25C860.085 162.133 859.583 159.771 859.705 157.4H859.71ZM869.91 157.4C869.927 156.252 869.835 155.105 869.635 153.975C869.51 153.132 869.146 152.342 868.585 151.7C867.93 151.12 867.085 150.8 866.21 150.8C865.335 150.8 864.49 151.12 863.835 151.7C863.272 152.344 862.9 153.132 862.76 153.975C862.578 155.107 862.494 156.253 862.51 157.4C862.493 158.58 862.577 159.759 862.76 160.925C862.88 161.777 863.245 162.576 863.81 163.225C864.127 163.531 864.504 163.767 864.917 163.917C865.331 164.068 865.771 164.13 866.21 164.1C866.645 164.132 867.083 164.07 867.492 163.92C867.902 163.769 868.274 163.532 868.585 163.225C869.163 162.582 869.538 161.781 869.66 160.925C869.841 159.759 869.923 158.58 869.905 157.4H869.91ZM875.725 157.4C875.601 155.061 876.101 152.731 877.175 150.65C878.159 149.017 879.842 148.2 882.225 148.2C884.608 148.2 886.283 149.017 887.25 150.65C888.342 152.726 888.851 155.058 888.725 157.4C888.85 159.774 888.341 162.138 887.25 164.25C886.284 165.883 884.609 166.699 882.225 166.7C879.841 166.701 878.158 165.884 877.175 164.25C876.102 162.132 875.602 159.771 875.725 157.4V157.4ZM885.925 157.4C885.942 156.252 885.85 155.105 885.65 153.975C885.526 153.132 885.161 152.342 884.6 151.7C883.945 151.12 883.1 150.8 882.225 150.8C881.35 150.8 880.505 151.12 879.85 151.7C879.288 152.344 878.916 153.132 878.775 153.975C878.593 155.107 878.51 156.253 878.525 157.4C878.509 158.58 878.592 159.759 878.775 160.925C878.896 161.777 879.261 162.575 879.825 163.225C880.141 163.531 880.519 163.767 880.932 163.917C881.346 164.068 881.786 164.13 882.225 164.1C882.66 164.132 883.098 164.071 883.507 163.92C883.917 163.769 884.289 163.532 884.6 163.225C885.179 162.582 885.553 161.782 885.675 160.925C885.858 159.759 885.942 158.58 885.925 157.4V157.4ZM891.741 157.4C891.616 155.061 892.117 152.731 893.191 150.65C894.174 149.017 895.858 148.2 898.241 148.2C900.624 148.2 902.299 149.017 903.266 150.65C904.357 152.726 904.867 155.058 904.741 157.4C904.866 159.774 904.357 162.138 903.266 164.25C902.299 165.883 900.624 166.699 898.241 166.7C895.858 166.701 894.174 165.884 893.191 164.25C892.116 162.133 891.614 159.771 891.736 157.4H891.741ZM901.941 157.4C901.958 156.252 901.866 155.105 901.666 153.975C901.541 153.132 901.177 152.342 900.616 151.7C899.961 151.12 899.116 150.8 898.241 150.8C897.366 150.8 896.521 151.12 895.866 151.7C895.303 152.344 894.931 153.132 894.791 153.975C894.609 155.107 894.525 156.253 894.541 157.4C894.524 158.58 894.608 159.759 894.791 160.925C894.912 161.777 895.277 162.575 895.841 163.225C896.157 163.531 896.535 163.767 896.948 163.917C897.362 164.068 897.802 164.13 898.241 164.1C898.676 164.132 899.114 164.071 899.523 163.92C899.933 163.769 900.305 163.532 900.616 163.225C901.195 162.582 901.569 161.781 901.691 160.925C901.872 159.759 901.954 158.58 901.936 157.4H901.941ZM924.851 149.375V151.7H917.476V156.825H923.226V159.15H917.476V166.75H914.625V149.375H924.851ZM935.417 166.925C933.854 166.938 932.313 166.551 930.942 165.8C929.605 165.046 928.492 163.95 927.717 162.625C926.925 161.223 926.519 159.635 926.542 158.025C926.517 156.422 926.923 154.842 927.717 153.45C928.488 152.128 929.602 151.04 930.942 150.3C932.313 149.546 933.852 149.15 935.417 149.15C936.982 149.15 938.521 149.546 939.892 150.3C941.239 151.03 942.355 152.121 943.117 153.45C943.911 154.842 944.317 156.422 944.292 158.025C944.315 159.635 943.909 161.223 943.117 162.625C942.352 163.958 941.236 165.056 939.892 165.8C938.521 166.556 936.977 166.943 935.412 166.925H935.417ZM935.417 164.45C936.493 164.469 937.554 164.202 938.492 163.675C939.393 163.141 940.122 162.36 940.592 161.425C941.125 160.372 941.391 159.205 941.367 158.025C941.393 156.853 941.127 155.693 940.592 154.65C940.125 153.719 939.395 152.945 938.492 152.425C937.547 151.916 936.49 151.65 935.417 151.65C934.344 151.65 933.287 151.916 932.342 152.425C931.436 152.948 930.698 153.721 930.217 154.65C929.698 155.698 929.441 156.856 929.467 158.025C929.443 159.202 929.7 160.367 930.217 161.425C930.702 162.358 931.438 163.138 932.342 163.675C933.279 164.201 934.338 164.468 935.412 164.45H935.417ZM946.146 158.025C946.121 156.422 946.527 154.842 947.321 153.45C948.092 152.128 949.206 151.04 950.546 150.3C951.995 149.509 953.626 149.113 955.276 149.153C956.926 149.192 958.537 149.666 959.946 150.525C961.395 151.423 962.503 152.777 963.096 154.375H959.671C959.273 153.514 958.618 152.798 957.796 152.325C956.945 151.862 955.989 151.63 955.021 151.65C953.945 151.631 952.884 151.898 951.946 152.425C951.04 152.948 950.302 153.721 949.821 154.65C949.327 155.707 949.071 156.859 949.071 158.025C949.071 159.191 949.327 160.343 949.821 161.4C950.306 162.333 951.042 163.113 951.946 163.65C952.884 164.177 953.945 164.444 955.021 164.425C955.989 164.445 956.945 164.213 957.796 163.75C958.618 163.277 959.273 162.561 959.671 161.7H963.096C962.503 163.298 961.395 164.652 959.946 165.55C958.531 166.394 956.922 166.858 955.276 166.897C953.629 166.937 952 166.55 950.546 165.775C949.209 165.021 948.096 163.925 947.321 162.6C946.525 161.208 946.117 159.628 946.141 158.025H946.146ZM737.65 206.125V203.525H742.85V221.75H739.975V206.125H737.65ZM758.315 205.725L751.365 221.75H748.49L755.515 206.025H746.265V203.6H758.315V205.725ZM764.254 218.325L761.229 225.225H759.379L761.154 218.325H764.254ZM778.119 205.975H769.745V210.95C770.156 210.436 770.689 210.032 771.295 209.775C771.994 209.458 772.753 209.296 773.52 209.3C774.719 209.245 775.906 209.559 776.92 210.2C777.762 210.75 778.416 211.543 778.795 212.475C779.179 213.394 779.374 214.38 779.37 215.375C779.39 216.517 779.142 217.647 778.645 218.675C778.181 219.623 777.44 220.407 776.52 220.925C775.465 221.505 774.273 221.79 773.07 221.75C771.498 221.828 769.95 221.35 768.695 220.4C767.6 219.508 766.892 218.227 766.72 216.825H769.495C769.66 217.579 770.095 218.246 770.72 218.7C771.421 219.17 772.252 219.406 773.095 219.375C773.59 219.413 774.086 219.335 774.546 219.149C775.006 218.962 775.416 218.672 775.745 218.3C776.376 217.488 776.695 216.477 776.645 215.45C776.714 214.451 776.391 213.465 775.745 212.7C775.102 212.137 774.293 211.799 773.441 211.735C772.589 211.672 771.739 211.888 771.02 212.35C770.46 212.764 770.041 213.34 769.82 214H767.12V203.475H778.12L778.119 205.975ZM782.336 212.4C782.211 210.061 782.712 207.731 783.786 205.65C784.769 204.017 786.453 203.201 788.836 203.2C791.219 203.199 792.894 204.016 793.861 205.65C794.953 207.726 795.462 210.058 795.336 212.4C795.461 214.774 794.952 217.138 793.861 219.25C792.894 220.883 791.219 221.699 788.836 221.7C786.453 221.701 784.769 220.884 783.786 219.25C782.713 217.132 782.214 214.771 782.337 212.4H782.336ZM792.536 212.4C792.553 211.252 792.461 210.105 792.261 208.975C792.137 208.132 791.772 207.342 791.211 206.7C790.556 206.12 789.711 205.8 788.836 205.8C787.961 205.8 787.116 206.12 786.461 206.7C785.898 207.344 785.526 208.132 785.386 208.975C785.204 210.107 785.12 211.253 785.136 212.4C785.12 213.58 785.203 214.759 785.386 215.925C785.507 216.777 785.872 217.576 786.436 218.225C786.752 218.531 787.13 218.767 787.543 218.917C787.957 219.068 788.397 219.13 788.836 219.1C789.271 219.132 789.709 219.071 790.118 218.92C790.528 218.769 790.9 218.532 791.211 218.225C791.79 217.582 792.164 216.781 792.286 215.925C792.469 214.759 792.553 213.58 792.537 212.4H792.536ZM798.352 212.4C798.227 210.061 798.728 207.731 799.802 205.65C800.785 204.017 802.469 203.201 804.852 203.2C807.235 203.199 808.91 204.016 809.877 205.65C810.969 207.726 811.478 210.058 811.352 212.4C811.477 214.774 810.968 217.138 809.877 219.25C808.91 220.883 807.235 221.699 804.852 221.7C802.469 221.701 800.785 220.884 799.802 219.25C798.729 217.133 798.229 214.771 798.352 212.4ZM808.552 212.4C808.569 211.252 808.477 210.105 808.277 208.975C808.153 208.132 807.788 207.342 807.227 206.7C806.572 206.12 805.727 205.8 804.852 205.8C803.977 205.8 803.132 206.12 802.477 206.7C801.914 207.344 801.542 208.132 801.402 208.975C801.22 210.107 801.136 211.253 801.152 212.4C801.136 213.58 801.219 214.759 801.402 215.925C801.523 216.777 801.888 217.576 802.452 218.225C802.769 218.531 803.146 218.767 803.559 218.917C803.973 219.068 804.413 219.13 804.852 219.1C805.287 219.132 805.725 219.071 806.134 218.92C806.544 218.769 806.916 218.532 807.227 218.225C807.806 217.582 808.18 216.781 808.302 215.925C808.485 214.759 808.568 213.58 808.552 212.4V212.4ZM817.868 218.325L814.843 225.225H812.993L814.768 218.325H817.868ZM819.983 212.4C819.858 210.061 820.359 207.731 821.433 205.65C822.416 204.017 824.1 203.201 826.483 203.2C828.866 203.199 830.541 204.016 831.508 205.65C832.6 207.726 833.109 210.058 832.983 212.4C833.108 214.774 832.599 217.138 831.508 219.25C830.541 220.883 828.866 221.699 826.483 221.7C824.1 221.701 822.416 220.884 821.433 219.25C820.36 217.133 819.86 214.771 819.983 212.4V212.4ZM830.183 212.4C830.2 211.252 830.108 210.105 829.908 208.975C829.783 208.132 829.419 207.342 828.858 206.7C828.203 206.12 827.358 205.8 826.483 205.8C825.608 205.8 824.763 206.12 824.108 206.7C823.545 207.344 823.173 208.132 823.033 208.975C822.851 210.107 822.767 211.253 822.783 212.4C822.767 213.58 822.85 214.759 823.033 215.925C823.154 216.777 823.519 217.576 824.083 218.225C824.399 218.531 824.777 218.767 825.19 218.917C825.604 219.068 826.044 219.13 826.483 219.1C826.918 219.132 827.356 219.071 827.765 218.92C828.175 218.769 828.547 218.532 828.858 218.225C829.437 217.582 829.811 216.781 829.933 215.925C830.116 214.759 830.199 213.58 830.183 212.4V212.4ZM835.999 212.4C835.874 210.061 836.375 207.731 837.449 205.65C838.432 204.017 840.115 203.201 842.499 203.2C844.883 203.199 846.558 204.016 847.525 205.65C848.616 207.726 849.126 210.058 849 212.4C849.125 214.774 848.616 217.138 847.525 219.25C846.558 220.883 844.883 221.699 842.5 221.7C840.117 221.701 838.434 220.884 837.45 219.25C836.376 217.133 835.876 214.771 835.999 212.4V212.4ZM846.199 212.4C846.216 211.252 846.124 210.105 845.924 208.975C845.799 208.132 845.435 207.342 844.874 206.7C844.219 206.12 843.374 205.8 842.499 205.8C841.624 205.8 840.779 206.12 840.124 206.7C839.561 207.344 839.189 208.132 839.049 208.975C838.867 210.107 838.783 211.253 838.799 212.4C838.782 213.58 838.866 214.759 839.049 215.925C839.169 216.777 839.534 217.576 840.099 218.225C840.415 218.531 840.793 218.767 841.206 218.917C841.62 219.068 842.06 219.13 842.499 219.1C842.934 219.132 843.372 219.07 843.781 218.92C844.191 218.769 844.563 218.532 844.874 218.225C845.453 217.582 845.827 216.781 845.949 215.925C846.131 214.759 846.215 213.58 846.199 212.4ZM852.014 212.4C851.89 210.061 852.39 207.731 853.464 205.65C854.448 204.017 856.131 203.201 858.514 203.2C860.897 203.199 862.572 204.016 863.539 205.65C864.631 207.726 865.14 210.058 865.014 212.4C865.139 214.774 864.63 217.138 863.539 219.25C862.573 220.883 860.898 221.699 858.514 221.7C856.13 221.701 854.447 220.884 853.464 219.25C852.391 217.132 851.891 214.771 852.014 212.4V212.4ZM862.214 212.4C862.231 211.252 862.139 210.105 861.939 208.975C861.815 208.132 861.45 207.342 860.889 206.7C860.234 206.12 859.389 205.8 858.514 205.8C857.639 205.8 856.794 206.12 856.139 206.7C855.577 207.344 855.205 208.132 855.064 208.975C854.882 210.107 854.799 211.253 854.814 212.4C854.798 213.58 854.882 214.759 855.064 215.925C855.185 216.777 855.55 217.575 856.114 218.225C856.43 218.531 856.808 218.767 857.221 218.917C857.635 219.068 858.075 219.13 858.514 219.1C858.949 219.132 859.387 219.071 859.796 218.92C860.206 218.769 860.578 218.532 860.889 218.225C861.468 217.582 861.842 216.782 861.964 215.925C862.147 214.759 862.231 213.58 862.214 212.4V212.4ZM885.124 204.375V206.7H877.749V211.825H883.499V214.15H877.749V221.75H874.899V204.375H885.124ZM895.69 221.925C894.127 221.938 892.586 221.551 891.215 220.8C889.878 220.046 888.765 218.95 887.99 217.625C887.198 216.223 886.792 214.635 886.815 213.025C886.79 211.422 887.196 209.842 887.99 208.45C888.761 207.128 889.875 206.04 891.215 205.3C892.581 204.533 894.124 204.137 895.69 204.15C897.257 204.133 898.801 204.529 900.165 205.3C901.512 206.03 902.628 207.121 903.39 208.45C904.185 209.842 904.591 211.422 904.565 213.025C904.588 214.635 904.183 216.223 903.39 217.625C902.625 218.958 901.509 220.056 900.165 220.8C898.795 221.555 897.254 221.943 895.69 221.925V221.925ZM895.69 219.45C896.766 219.469 897.827 219.202 898.765 218.675C899.666 218.141 900.395 217.36 900.865 216.425C901.398 215.372 901.664 214.205 901.64 213.025C901.666 211.853 901.4 210.693 900.865 209.65C900.398 208.719 899.668 207.945 898.765 207.425C897.82 206.916 896.763 206.65 895.69 206.65C894.617 206.65 893.56 206.916 892.615 207.425C891.709 207.948 890.971 208.721 890.49 209.65C889.971 210.698 889.714 211.856 889.74 213.025C889.716 214.202 889.973 215.367 890.49 216.425C890.975 217.358 891.711 218.138 892.615 218.675C893.553 219.202 894.614 219.469 895.69 219.45V219.45ZM906.42 213.025C906.394 211.422 906.8 209.842 907.595 208.45C908.366 207.128 909.48 206.04 910.82 205.3C912.269 204.509 913.9 204.113 915.55 204.153C917.2 204.192 918.811 204.666 920.22 205.525C921.669 206.423 922.777 207.777 923.37 209.375H919.945C919.547 208.514 918.892 207.798 918.07 207.325C917.219 206.862 916.263 206.63 915.295 206.65C914.219 206.631 913.158 206.898 912.22 207.425C911.313 207.948 910.576 208.72 910.095 209.65C909.601 210.707 909.345 211.859 909.345 213.025C909.345 214.191 909.601 215.343 910.095 216.4C910.58 217.334 911.316 218.113 912.22 218.65C913.158 219.177 914.219 219.444 915.295 219.425C916.263 219.445 917.219 219.213 918.07 218.75C918.892 218.277 919.547 217.561 919.945 216.7H923.37C922.777 218.298 921.669 219.652 920.22 220.55C918.805 221.394 917.196 221.858 915.55 221.897C913.903 221.937 912.274 221.55 910.82 220.775C909.483 220.021 908.37 218.925 907.595 217.6C906.802 216.207 906.398 214.627 906.425 213.025H906.42Z" fill="white"/>
<path id="token-name" d="M985.3 38.575V40.425H980.55V56H978.275V40.425H973.5V38.575H985.3ZM994.075 56.225C992.852 56.2402 991.647 55.9388 990.575 55.35C989.544 54.769 988.695 53.9119 988.125 52.875C987.524 51.7179 987.223 50.4285 987.25 49.125C987.223 47.8344 987.533 46.559 988.15 45.425C988.73 44.3781 989.597 43.5193 990.65 42.95C991.736 42.3754 992.946 42.075 994.175 42.075C995.404 42.075 996.614 42.3754 997.7 42.95C998.744 43.5108 999.604 44.3616 1000.17 45.4C1000.81 46.5371 1001.13 47.8231 1001.1 49.125C1001.13 50.4377 1000.8 51.7333 1000.15 52.875C999.556 53.9196 998.681 54.7769 997.625 55.35C996.535 55.9391 995.314 56.2403 994.075 56.225V56.225ZM994.075 54.225C994.878 54.2287 995.668 54.031 996.375 53.65C997.105 53.2539 997.704 52.6547 998.1 51.925C998.572 51.0692 998.806 50.102 998.775 49.125C998.805 48.1511 998.581 47.1861 998.125 46.325C997.737 45.6038 997.146 45.0126 996.425 44.625C995.728 44.2425 994.945 44.0445 994.15 44.05C993.347 44.0424 992.555 44.2404 991.85 44.625C991.143 45.0153 990.569 45.6071 990.2 46.325C989.76 47.1912 989.545 48.154 989.575 49.125C989.544 50.1013 989.75 51.0705 990.175 51.95C990.548 52.6714 991.121 53.2702 991.825 53.675C992.517 54.0439 993.291 54.233 994.075 54.225V54.225ZM1011.74 56L1006.37 49.95V56H1004.09V37.5H1006.37V48.375L1011.64 42.3H1014.82L1008.37 49.125L1014.84 56H1011.74ZM1029.46 48.625C1029.46 49.0843 1029.43 49.5433 1029.38 50H1018.43C1018.43 50.5789 1018.54 51.1528 1018.76 51.6867C1018.99 52.2207 1019.32 52.7035 1019.73 53.1058C1020.15 53.508 1020.64 53.8214 1021.19 54.0267C1021.73 54.232 1022.3 54.325 1022.88 54.3C1023.75 54.3331 1024.61 54.0973 1025.33 53.625C1025.99 53.1753 1026.48 52.5264 1026.73 51.775H1029.18C1028.83 53.0668 1028.06 54.203 1026.98 55C1025.79 55.8464 1024.35 56.2768 1022.88 56.225C1021.66 56.2442 1020.45 55.9425 1019.38 55.35C1018.37 54.7668 1017.53 53.9091 1016.98 52.875C1016.38 51.7179 1016.08 50.4285 1016.11 49.125C1016.08 47.8322 1016.37 46.5523 1016.96 45.4C1017.49 44.3675 1018.32 43.5153 1019.33 42.95C1020.42 42.3534 1021.64 42.0518 1022.88 42.075C1024.09 42.0512 1025.28 42.3443 1026.33 42.925C1027.31 43.4692 1028.11 44.2855 1028.63 45.275C1029.19 46.3012 1029.48 47.4557 1029.46 48.625ZM1027.11 48.15C1027.13 47.3689 1026.93 46.5974 1026.53 45.925C1026.16 45.3031 1025.61 44.8067 1024.96 44.5C1024.28 44.1611 1023.54 43.9896 1022.78 44C1021.7 43.9767 1020.64 44.3703 1019.83 45.1C1019 45.9027 1018.51 46.9946 1018.46 48.15H1027.11ZM1039.14 42.05C1039.88 42.0187 1040.62 42.1376 1041.32 42.3996C1042.01 42.6617 1042.65 43.0614 1043.19 43.575C1043.73 44.1545 1044.15 44.84 1044.41 45.5884C1044.68 46.3369 1044.79 47.1323 1044.74 47.925V56H1042.49V48.25C1042.57 47.1144 1042.2 45.9928 1041.46 45.125C1041.1 44.7527 1040.66 44.4619 1040.18 44.2722C1039.7 44.0825 1039.18 43.9982 1038.66 44.025C1038.13 44.0003 1037.6 44.0878 1037.1 44.2816C1036.61 44.4754 1036.16 44.7713 1035.79 45.15C1035.03 46.0664 1034.65 47.239 1034.74 48.425V56H1032.46V42.3H1034.74V44.25C1035.18 43.5516 1035.82 42.9895 1036.56 42.625C1037.36 42.2373 1038.24 42.0405 1039.14 42.05V42.05ZM1068.82 56H1066.54L1057.39 42.125V56H1055.12V38.55H1057.39L1066.54 52.4V38.55H1068.82V56ZM1071.85 49.1C1071.82 47.8231 1072.11 46.5595 1072.7 45.425C1073.23 44.3997 1074.03 43.5424 1075.02 42.95C1076.03 42.3641 1077.18 42.0618 1078.35 42.075C1079.44 42.0477 1080.52 42.3154 1081.47 42.85C1082.29 43.3076 1082.98 43.9819 1083.44 44.8V42.3H1085.75V56H1083.44V53.45C1082.96 54.285 1082.26 54.9754 1081.42 55.45C1080.48 55.9825 1079.4 56.2502 1078.32 56.225C1077.16 56.2399 1076.01 55.9281 1075.02 55.325C1074.03 54.7141 1073.22 53.8401 1072.69 52.8C1072.12 51.6541 1071.83 50.3838 1071.85 49.1V49.1ZM1083.45 49.125C1083.47 48.1867 1083.26 47.2579 1082.83 46.425C1082.44 45.6898 1081.85 45.082 1081.12 44.675C1080.42 44.2575 1079.62 44.0413 1078.8 44.05C1077.99 44.0406 1077.18 44.2477 1076.47 44.65C1075.76 45.0632 1075.18 45.67 1074.8 46.4C1074.37 47.2329 1074.15 48.1617 1074.18 49.1C1074.15 50.0543 1074.37 50.9992 1074.8 51.85C1075.19 52.5837 1075.76 53.1976 1076.47 53.625C1077.19 54.019 1077.99 54.2257 1078.8 54.2257C1079.61 54.2257 1080.41 54.019 1081.12 53.625C1081.85 53.2036 1082.44 52.5888 1082.83 51.85C1083.25 51.007 1083.47 50.0707 1083.44 49.125H1083.45ZM1106.07 42.05C1107.06 42.0321 1108.04 42.2643 1108.92 42.725C1109.76 43.1692 1110.45 43.8577 1110.89 44.7C1111.4 45.6967 1111.65 46.8061 1111.61 47.925V56H1109.36V48.25C1109.44 47.1145 1109.08 45.9929 1108.34 45.125C1107.99 44.7551 1107.57 44.4651 1107.1 44.2752C1106.63 44.0852 1106.12 43.9999 1105.61 44.025C1105.09 44.0007 1104.56 44.091 1104.08 44.2896C1103.59 44.4881 1103.15 44.7902 1102.79 45.175C1102.03 46.0914 1101.66 47.264 1101.74 48.45V56H1099.49V48.25C1099.57 47.1145 1099.2 45.9929 1098.47 45.125C1098.12 44.7551 1097.69 44.4651 1097.22 44.2752C1096.75 44.0852 1096.25 43.9999 1095.74 44.025C1095.21 44.0007 1094.69 44.091 1094.2 44.2896C1093.71 44.4881 1093.27 44.7902 1092.92 45.175C1092.16 46.0914 1091.78 47.264 1091.86 48.45V56H1089.59V42.3H1091.86V44.275C1092.3 43.5701 1092.92 42.9993 1093.67 42.625C1094.45 42.2374 1095.31 42.0404 1096.19 42.05C1097.26 42.0289 1098.31 42.2967 1099.24 42.825C1100.13 43.348 1100.82 44.1468 1101.22 45.1C1101.58 44.1577 1102.25 43.365 1103.11 42.85C1104 42.3146 1105.03 42.0376 1106.06 42.05H1106.07ZM1127.85 48.625C1127.85 49.0844 1127.82 49.5433 1127.77 50H1116.82C1116.82 50.5789 1116.93 51.1528 1117.15 51.6867C1117.38 52.2207 1117.71 52.7035 1118.12 53.1058C1118.54 53.508 1119.03 53.8214 1119.57 54.0267C1120.12 54.232 1120.69 54.325 1121.27 54.3C1122.14 54.3334 1122.99 54.0976 1123.72 53.625C1124.38 53.1756 1124.87 52.5266 1125.12 51.775H1127.57C1127.22 53.067 1126.45 54.2032 1125.37 55C1124.18 55.8465 1122.73 56.2768 1121.27 56.225C1120.05 56.2442 1118.84 55.9425 1117.77 55.35C1116.75 54.7665 1115.92 53.9088 1115.37 52.875C1114.77 51.7179 1114.47 50.4285 1114.5 49.125C1114.47 47.8319 1114.76 46.5521 1115.35 45.4C1115.88 44.3677 1116.71 43.5156 1117.72 42.95C1118.81 42.3534 1120.04 42.0518 1121.27 42.075C1122.48 42.0512 1123.67 42.3443 1124.72 42.925C1125.7 43.4691 1126.5 44.2855 1127.02 45.275C1127.59 46.3012 1127.87 47.4557 1127.85 48.625V48.625ZM1125.5 48.15C1125.52 47.3688 1125.32 46.5972 1124.92 45.925C1124.55 45.303 1124.01 44.8066 1123.35 44.5C1122.68 44.1611 1121.93 43.9896 1121.17 44C1120.09 43.9767 1119.03 44.3703 1118.22 45.1C1117.39 45.9028 1116.9 46.9946 1116.85 48.15H1125.5ZM985.3 93.575V95.425H980.55V111H978.275V95.425H973.5V93.575H985.3ZM994.075 111.225C992.852 111.24 991.647 110.939 990.575 110.35C989.544 109.769 988.695 108.912 988.125 107.875C987.524 106.718 987.223 105.429 987.25 104.125C987.223 102.834 987.533 101.559 988.15 100.425C988.73 99.3781 989.597 98.5193 990.65 97.95C991.736 97.3754 992.946 97.075 994.175 97.075C995.404 97.075 996.614 97.3754 997.7 97.95C998.744 98.5108 999.604 99.3617 1000.17 100.4C1000.79 101.552 1001.1 102.837 1001.1 104.141C1001.1 105.445 1000.77 106.727 1000.15 107.875C999.556 108.92 998.681 109.777 997.625 110.35C996.535 110.939 995.314 111.24 994.075 111.225V111.225ZM994.075 109.225C994.878 109.229 995.668 109.031 996.375 108.65C997.105 108.254 997.704 107.655 998.1 106.925C998.572 106.069 998.806 105.102 998.775 104.125C998.805 103.151 998.581 102.186 998.125 101.325C997.737 100.604 997.146 100.013 996.425 99.625C995.728 99.2425 994.945 99.0445 994.15 99.05C993.347 99.0425 992.555 99.2404 991.85 99.625C991.143 100.015 990.569 100.607 990.2 101.325C989.76 102.191 989.545 103.154 989.575 104.125C989.544 105.101 989.75 106.071 990.175 106.95C990.548 107.671 991.121 108.27 991.825 108.675C992.517 109.044 993.291 109.233 994.075 109.225V109.225ZM1011.74 111L1006.37 104.95V111H1004.09V92.5H1006.37V103.375L1011.64 97.3H1014.82L1008.37 104.125L1014.84 111H1011.74ZM1029.46 103.625C1029.46 104.084 1029.43 104.543 1029.38 105H1018.43C1018.43 105.579 1018.54 106.153 1018.76 106.687C1018.99 107.221 1019.32 107.703 1019.73 108.106C1020.15 108.508 1020.64 108.821 1021.19 109.027C1021.73 109.232 1022.3 109.325 1022.88 109.3C1023.75 109.333 1024.61 109.097 1025.33 108.625C1025.99 108.175 1026.48 107.526 1026.73 106.775H1029.18C1028.83 108.067 1028.06 109.203 1026.98 110C1025.79 110.846 1024.35 111.277 1022.88 111.225C1021.66 111.244 1020.45 110.942 1019.38 110.35C1018.37 109.767 1017.53 108.909 1016.98 107.875C1016.41 106.713 1016.11 105.436 1016.11 104.14C1016.1 102.845 1016.39 101.566 1016.96 100.4C1017.49 99.3675 1018.32 98.5153 1019.33 97.95C1020.42 97.3534 1021.64 97.0518 1022.88 97.075C1024.09 97.0511 1025.28 97.3443 1026.33 97.925C1027.31 98.4692 1028.11 99.2855 1028.63 100.275C1029.19 101.301 1029.48 102.456 1029.46 103.625ZM1027.11 103.15C1027.13 102.369 1026.93 101.597 1026.53 100.925C1026.16 100.303 1025.61 99.8068 1024.96 99.5C1024.28 99.1611 1023.54 98.9896 1022.78 99C1021.7 98.9767 1020.64 99.3703 1019.83 100.1C1019 100.903 1018.51 101.995 1018.46 103.15H1027.11ZM1039.14 97.05C1039.88 97.0187 1040.62 97.1376 1041.32 97.3996C1042.01 97.6617 1042.65 98.0614 1043.19 98.575C1043.73 99.1545 1044.15 99.84 1044.41 100.588C1044.68 101.337 1044.79 102.132 1044.74 102.925V111H1042.49V103.25C1042.57 102.114 1042.2 100.993 1041.46 100.125C1041.1 99.7527 1040.66 99.462 1040.18 99.2723C1039.7 99.0826 1039.18 98.9983 1038.66 99.025C1038.13 99.0003 1037.6 99.0878 1037.1 99.2816C1036.61 99.4754 1036.16 99.7713 1035.79 100.15C1035.03 101.066 1034.65 102.239 1034.74 103.425V111H1032.46V97.3H1034.74V99.25C1035.18 98.5516 1035.82 97.9895 1036.56 97.625C1037.36 97.2373 1038.24 97.0405 1039.14 97.05V97.05ZM1060.64 111.175C1059.58 111.192 1058.52 110.988 1057.54 110.575C1056.7 110.203 1055.97 109.617 1055.42 108.875C1054.9 108.135 1054.62 107.254 1054.62 106.35H1057.04C1057.11 107.14 1057.47 107.878 1058.04 108.425C1058.77 109.02 1059.7 109.314 1060.64 109.25C1061.56 109.304 1062.47 109.019 1063.19 108.45C1063.5 108.194 1063.74 107.872 1063.91 107.508C1064.07 107.145 1064.15 106.749 1064.14 106.35C1064.17 105.759 1063.97 105.179 1063.59 104.725C1063.22 104.302 1062.75 103.976 1062.22 103.775C1061.49 103.502 1060.75 103.268 1059.99 103.075C1059.05 102.842 1058.12 102.541 1057.22 102.175C1056.52 101.863 1055.91 101.382 1055.44 100.775C1054.92 100.01 1054.67 99.0974 1054.72 98.175C1054.7 97.2798 1054.95 96.4004 1055.44 95.65C1055.94 94.9026 1056.64 94.3129 1057.47 93.95C1058.42 93.5357 1059.45 93.3311 1060.49 93.35C1061.93 93.2873 1063.34 93.7198 1064.49 94.575C1065 94.9602 1065.42 95.4492 1065.73 96.0094C1066.03 96.5697 1066.22 97.1885 1066.27 97.825H1063.77C1063.72 97.4784 1063.6 97.1453 1063.42 96.845C1063.24 96.5446 1063 96.2829 1062.72 96.075C1062.02 95.5314 1061.15 95.2564 1060.27 95.3C1059.43 95.2635 1058.6 95.5297 1057.94 96.05C1057.64 96.2973 1057.4 96.6117 1057.25 96.9678C1057.09 97.3238 1057.02 97.7117 1057.04 98.1C1057.02 98.664 1057.21 99.2167 1057.57 99.65C1057.94 100.051 1058.39 100.367 1058.89 100.575C1059.43 100.775 1060.17 101.008 1061.12 101.275C1062.06 101.521 1062.99 101.839 1063.89 102.225C1064.61 102.536 1065.23 103.027 1065.69 103.65C1066.23 104.406 1066.49 105.323 1066.44 106.25C1066.44 107.097 1066.21 107.928 1065.77 108.65C1065.28 109.432 1064.59 110.064 1063.77 110.475C1062.8 110.961 1061.73 111.202 1060.64 111.175ZM1081.59 97.3L1073.34 117.45H1070.99L1073.69 110.85L1068.17 97.3H1070.69L1074.99 108.4L1079.24 97.3H1081.59ZM1100.35 97.05C1101.34 97.0321 1102.32 97.2643 1103.2 97.725C1104.04 98.1683 1104.73 98.857 1105.18 99.7C1105.69 100.697 1105.94 101.806 1105.9 102.925V111H1103.65V103.25C1103.73 102.114 1103.36 100.993 1102.62 100.125C1102.28 99.7551 1101.85 99.4651 1101.38 99.2752C1100.91 99.0852 1100.41 98.9999 1099.9 99.025C1099.37 99.0007 1098.85 99.091 1098.36 99.2896C1097.87 99.4881 1097.43 99.7902 1097.08 100.175C1096.32 101.091 1095.94 102.264 1096.03 103.45V111H1093.78V103.25C1093.85 102.114 1093.49 100.993 1092.75 100.125C1092.4 99.7551 1091.98 99.4651 1091.51 99.2752C1091.04 99.0852 1090.53 98.9999 1090.03 99.025C1089.5 99.0007 1088.97 99.091 1088.49 99.2896C1088 99.4881 1087.56 99.7902 1087.2 100.175C1086.44 101.091 1086.07 102.264 1086.15 103.45V111H1083.88V97.3H1086.15V99.275C1086.59 98.5701 1087.21 97.9993 1087.95 97.625C1088.73 97.2374 1089.6 97.0404 1090.47 97.05C1091.54 97.0289 1092.6 97.2967 1093.53 97.825C1094.41 98.348 1095.11 99.1468 1095.5 100.1C1095.86 99.1576 1096.53 98.3649 1097.4 97.85C1098.29 97.3149 1099.31 97.038 1100.35 97.05H1100.35ZM1111.91 99.85C1112.4 99.0102 1113.11 98.319 1113.96 97.85C1114.9 97.3235 1115.96 97.056 1117.03 97.075C1118.2 97.0579 1119.35 97.3605 1120.36 97.95C1121.35 98.5417 1122.16 99.3991 1122.68 100.425C1123.27 101.56 1123.56 102.823 1123.53 104.1C1123.56 105.384 1123.26 106.654 1122.68 107.8C1122.15 108.84 1121.35 109.712 1120.35 110.317C1119.35 110.922 1118.2 111.237 1117.03 111.225C1115.94 111.248 1114.86 110.981 1113.91 110.45C1113.08 109.984 1112.39 109.302 1111.91 108.475V111H1109.63V92.5H1111.91V99.85ZM1121.21 104.1C1121.23 103.162 1121.02 102.233 1120.58 101.4C1120.2 100.665 1119.61 100.057 1118.88 99.65C1118.18 99.2477 1117.37 99.0406 1116.56 99.05C1115.74 99.0455 1114.94 99.2614 1114.23 99.675C1113.51 100.097 1112.92 100.711 1112.53 101.45C1112.1 102.275 1111.89 103.195 1111.91 104.125C1111.89 105.071 1112.1 106.007 1112.53 106.85C1112.92 107.581 1113.5 108.191 1114.21 108.61C1114.92 109.03 1115.73 109.243 1116.56 109.225C1117.37 109.234 1118.18 109.027 1118.88 108.625C1119.61 108.203 1120.19 107.589 1120.58 106.85C1121.02 105.999 1121.23 105.054 1121.21 104.1V104.1ZM1132.5 111.225C1131.28 111.24 1130.07 110.939 1129 110.35C1127.97 109.769 1127.12 108.912 1126.55 107.875C1125.95 106.718 1125.65 105.429 1125.68 104.125C1125.65 102.834 1125.96 101.559 1126.58 100.425C1127.16 99.3782 1128.03 98.5193 1129.08 97.95C1130.16 97.3754 1131.37 97.075 1132.6 97.075C1133.83 97.075 1135.04 97.3754 1136.13 97.95C1137.17 98.5108 1138.03 99.3617 1138.6 100.4C1139.21 101.552 1139.53 102.837 1139.53 104.141C1139.52 105.445 1139.2 106.727 1138.58 107.875C1137.98 108.92 1137.11 109.777 1136.05 110.35C1134.96 110.939 1133.74 111.24 1132.5 111.225ZM1132.5 109.225C1133.31 109.229 1134.1 109.031 1134.8 108.65C1135.53 108.254 1136.13 107.655 1136.53 106.925C1137 106.069 1137.23 105.102 1137.2 104.125C1137.23 103.151 1137.01 102.186 1136.55 101.325C1136.17 100.604 1135.57 100.012 1134.85 99.625C1134.16 99.2424 1133.37 99.0445 1132.58 99.05C1131.77 99.0425 1130.98 99.2404 1130.28 99.625C1129.57 100.015 1129 100.607 1128.63 101.325C1128.19 102.191 1127.97 103.154 1128 104.125C1127.97 105.101 1128.18 106.071 1128.6 106.95C1128.98 107.671 1129.55 108.27 1130.25 108.675C1130.95 109.044 1131.72 109.233 1132.5 109.225ZM1144.79 92.5V111H1142.52V92.5H1144.79ZM1149.39 111.15C1148.98 111.15 1148.59 110.987 1148.3 110.696C1148.01 110.405 1147.84 110.011 1147.84 109.6C1147.84 109.189 1148.01 108.795 1148.3 108.504C1148.59 108.213 1148.98 108.05 1149.39 108.05C1149.59 108.046 1149.79 108.084 1149.97 108.162C1150.15 108.24 1150.31 108.355 1150.44 108.5C1150.73 108.793 1150.89 109.188 1150.89 109.6C1150.89 110.012 1150.73 110.407 1150.44 110.7C1150.31 110.845 1150.15 110.96 1149.97 111.037C1149.79 111.115 1149.59 111.153 1149.4 111.15H1149.39ZM1149.39 100.45C1148.98 100.45 1148.59 100.287 1148.3 99.996C1148.01 99.7053 1147.84 99.3111 1147.84 98.9C1147.84 98.4889 1148.01 98.0947 1148.3 97.804C1148.59 97.5133 1148.98 97.35 1149.39 97.35C1149.59 97.3463 1149.79 97.3845 1149.97 97.4621C1150.15 97.5396 1150.31 97.6548 1150.44 97.8C1150.73 98.0934 1150.89 98.4885 1150.89 98.9C1150.89 99.3115 1150.73 99.7066 1150.44 100C1150.31 100.145 1150.15 100.26 1149.97 100.337C1149.79 100.415 1149.59 100.453 1149.4 100.45H1149.39ZM985.3 148.575V150.425H980.55V166H978.275V150.425H973.5V148.575H985.3ZM994.075 166.225C992.852 166.24 991.647 165.939 990.575 165.35C989.544 164.769 988.695 163.912 988.125 162.875C987.524 161.718 987.223 160.429 987.25 159.125C987.223 157.834 987.533 156.559 988.15 155.425C988.73 154.378 989.597 153.519 990.65 152.95C991.736 152.375 992.946 152.075 994.175 152.075C995.404 152.075 996.614 152.375 997.7 152.95C998.744 153.511 999.604 154.362 1000.17 155.4C1000.79 156.552 1001.1 157.837 1001.1 159.141C1001.1 160.445 1000.77 161.727 1000.15 162.875C999.556 163.92 998.681 164.777 997.625 165.35C996.535 165.939 995.313 166.24 994.075 166.225V166.225ZM994.075 164.225C994.878 164.228 995.668 164.031 996.375 163.65C997.105 163.254 997.704 162.655 998.1 161.925C998.572 161.069 998.805 160.102 998.775 159.125C998.805 158.151 998.581 157.186 998.125 156.325C997.737 155.604 997.146 155.013 996.425 154.625C995.728 154.243 994.945 154.045 994.15 154.05C993.347 154.043 992.555 154.241 991.85 154.625C991.143 155.015 990.569 155.607 990.2 156.325C989.76 157.191 989.545 158.154 989.575 159.125C989.544 160.101 989.75 161.071 990.175 161.95C990.548 162.672 991.121 163.27 991.825 163.675C992.517 164.044 993.291 164.233 994.075 164.225ZM1006.87 154.175V162.25C1006.82 162.762 1006.97 163.274 1007.29 163.675C1007.72 163.985 1008.24 164.128 1008.77 164.075H1010.44V166H1008.39C1007.36 166.078 1006.35 165.766 1005.54 165.125C1005.19 164.738 1004.93 164.282 1004.76 163.787C1004.6 163.292 1004.54 162.769 1004.59 162.25V154.175H1002.82V152.3H1004.59V148.85H1006.87V152.3H1010.44V154.175H1006.87ZM1012.35 159.1C1012.32 157.823 1012.61 156.559 1013.2 155.425C1013.73 154.399 1014.53 153.541 1015.53 152.95C1016.53 152.364 1017.68 152.062 1018.85 152.075C1019.94 152.048 1021.02 152.315 1021.98 152.85C1022.8 153.308 1023.48 153.982 1023.95 154.8V152.3H1026.25V166H1023.95V163.45C1023.47 164.285 1022.77 164.976 1021.93 165.45C1020.98 165.983 1019.91 166.25 1018.83 166.225C1017.66 166.24 1016.52 165.928 1015.53 165.325C1014.53 164.714 1013.73 163.84 1013.2 162.8C1012.62 161.655 1012.33 160.384 1012.35 159.1ZM1023.95 159.125C1023.97 158.187 1023.76 157.258 1023.33 156.425C1022.94 155.69 1022.35 155.082 1021.62 154.675C1020.92 154.257 1020.12 154.041 1019.3 154.05C1018.49 154.041 1017.68 154.248 1016.98 154.65C1016.26 155.063 1015.68 155.67 1015.3 156.4C1014.87 157.233 1014.65 158.162 1014.68 159.1C1014.65 160.054 1014.87 160.999 1015.3 161.85C1015.69 162.584 1016.26 163.198 1016.98 163.625C1017.69 164.019 1018.49 164.226 1019.3 164.226C1020.11 164.226 1020.91 164.019 1021.62 163.625C1022.35 163.204 1022.94 162.589 1023.33 161.85C1023.76 161.007 1023.97 160.071 1023.95 159.125V159.125ZM1032.37 147.5V166H1030.09V147.5H1032.37ZM1048.44 166.175C1047.37 166.192 1046.32 165.988 1045.34 165.575C1044.49 165.203 1043.76 164.617 1043.21 163.875C1042.69 163.135 1042.41 162.254 1042.41 161.35H1044.84C1044.91 162.14 1045.26 162.878 1045.84 163.425C1046.57 164.02 1047.5 164.314 1048.44 164.25C1049.36 164.303 1050.26 164.019 1050.99 163.45C1051.29 163.194 1051.54 162.872 1051.7 162.508C1051.87 162.145 1051.95 161.749 1051.94 161.35C1051.96 160.759 1051.77 160.179 1051.39 159.725C1051.01 159.302 1050.54 158.976 1050.01 158.775C1049.28 158.501 1048.54 158.268 1047.79 158.075C1046.84 157.842 1045.91 157.541 1045.01 157.175C1044.31 156.863 1043.7 156.382 1043.24 155.775C1042.72 155.01 1042.47 154.097 1042.51 153.175C1042.5 152.28 1042.75 151.4 1043.24 150.65C1043.74 149.903 1044.44 149.313 1045.26 148.95C1046.22 148.536 1047.25 148.331 1048.29 148.35C1049.72 148.287 1051.13 148.72 1052.29 149.575C1052.8 149.96 1053.22 150.449 1053.52 151.009C1053.83 151.57 1054.01 152.189 1054.06 152.825H1051.56C1051.51 152.478 1051.39 152.145 1051.21 151.845C1051.03 151.545 1050.79 151.283 1050.51 151.075C1049.81 150.531 1048.95 150.256 1048.06 150.3C1047.22 150.264 1046.4 150.53 1045.74 151.05C1045.44 151.297 1045.2 151.612 1045.04 151.968C1044.89 152.324 1044.82 152.712 1044.84 153.1C1044.81 153.664 1045 154.217 1045.36 154.65C1045.73 155.051 1046.18 155.367 1046.69 155.575C1047.22 155.775 1047.96 156.008 1048.91 156.275C1049.86 156.521 1050.79 156.839 1051.69 157.225C1052.4 157.536 1053.02 158.027 1053.49 158.65C1054.02 159.406 1054.29 160.323 1054.24 161.25C1054.24 162.097 1054 162.928 1053.56 163.65C1053.08 164.432 1052.38 165.064 1051.56 165.475C1050.59 165.962 1049.52 166.202 1048.44 166.175H1048.44ZM1069.74 152.3V166H1067.46V163.975C1067.01 164.684 1066.38 165.255 1065.63 165.625C1064.84 166.014 1063.97 166.211 1063.08 166.2C1062.09 166.216 1061.1 165.993 1060.21 165.55C1059.35 165.095 1058.65 164.4 1058.18 163.55C1057.67 162.553 1057.42 161.444 1057.46 160.325V152.3H1059.71V160.025C1059.63 161.16 1060 162.279 1060.73 163.15C1061.1 163.516 1061.54 163.8 1062.02 163.985C1062.5 164.171 1063.02 164.252 1063.53 164.225C1064.06 164.253 1064.6 164.167 1065.09 163.973C1065.59 163.779 1066.04 163.481 1066.41 163.1C1067.17 162.184 1067.54 161.011 1067.46 159.825V152.3H1069.74ZM1075.85 154.825C1076.34 154.01 1077.03 153.337 1077.85 152.875C1078.8 152.329 1079.88 152.052 1080.98 152.075C1082.14 152.06 1083.28 152.362 1084.28 152.95C1085.28 153.535 1086.1 154.394 1086.63 155.425C1087.21 156.559 1087.51 157.823 1087.48 159.1C1087.5 160.384 1087.21 161.655 1086.63 162.8C1086.1 163.84 1085.29 164.712 1084.29 165.317C1083.29 165.922 1082.15 166.237 1080.98 166.225C1079.89 166.246 1078.82 165.979 1077.88 165.45C1077.05 164.97 1076.35 164.291 1075.85 163.475V172.5H1073.58V152.3H1075.85L1075.85 154.825ZM1085.15 159.1C1085.18 158.162 1084.96 157.233 1084.53 156.4C1084.14 155.665 1083.55 155.057 1082.83 154.65C1082.12 154.248 1081.32 154.041 1080.5 154.05C1079.69 154.046 1078.88 154.261 1078.18 154.675C1077.46 155.097 1076.87 155.711 1076.48 156.45C1076.05 157.275 1075.83 158.195 1075.85 159.125C1075.83 160.071 1076.05 161.007 1076.48 161.85C1076.86 162.581 1077.44 163.191 1078.15 163.61C1078.86 164.03 1079.68 164.243 1080.5 164.225C1081.32 164.234 1082.12 164.027 1082.83 163.625C1083.55 163.204 1084.14 162.589 1084.53 161.85C1084.96 160.999 1085.17 160.054 1085.15 159.1H1085.15ZM1092.75 154.825C1093.24 154.01 1093.93 153.337 1094.75 152.875C1095.7 152.329 1096.78 152.052 1097.88 152.075C1099.04 152.06 1100.18 152.363 1101.18 152.95C1102.18 153.535 1103 154.394 1103.53 155.425C1104.11 156.56 1104.41 157.823 1104.38 159.1C1104.4 160.384 1104.11 161.654 1103.53 162.8C1103 163.84 1102.19 164.712 1101.19 165.317C1100.19 165.922 1099.05 166.237 1097.88 166.225C1096.79 166.246 1095.72 165.979 1094.78 165.45C1093.95 164.971 1093.25 164.292 1092.75 163.475V172.5H1090.48V152.3H1092.75V154.825ZM1102.05 159.1C1102.08 158.162 1101.86 157.233 1101.43 156.4C1101.04 155.665 1100.45 155.057 1099.73 154.65C1099.02 154.248 1098.22 154.041 1097.4 154.05C1096.59 154.045 1095.78 154.261 1095.08 154.675C1094.36 155.097 1093.77 155.711 1093.38 156.45C1092.95 157.275 1092.73 158.195 1092.75 159.125C1092.73 160.071 1092.95 161.007 1093.38 161.85C1093.76 162.581 1094.34 163.191 1095.05 163.61C1095.76 164.03 1096.58 164.243 1097.4 164.225C1098.22 164.234 1099.02 164.027 1099.73 163.625C1100.45 163.203 1101.04 162.589 1101.43 161.85C1101.86 160.998 1102.07 160.053 1102.04 159.1H1102.05ZM1109.65 147.5V166H1107.37V147.5H1109.65ZM1125.32 152.3L1117.07 172.45H1114.72L1117.42 165.85L1111.89 152.3H1114.41L1118.71 163.4L1122.96 152.3H1125.32ZM1128.34 166.15C1127.92 166.15 1127.53 165.987 1127.24 165.696C1126.95 165.405 1126.79 165.011 1126.79 164.6C1126.79 164.189 1126.95 163.795 1127.24 163.504C1127.53 163.213 1127.92 163.05 1128.34 163.05C1128.53 163.046 1128.73 163.084 1128.91 163.162C1129.09 163.239 1129.25 163.355 1129.39 163.5C1129.67 163.793 1129.84 164.188 1129.84 164.6C1129.84 165.012 1129.67 165.407 1129.39 165.7C1129.25 165.846 1129.09 165.962 1128.91 166.04C1128.72 166.118 1128.53 166.155 1128.33 166.15H1128.34ZM1128.34 155.45C1127.92 155.45 1127.53 155.287 1127.24 154.996C1126.95 154.705 1126.79 154.311 1126.79 153.9C1126.79 153.489 1126.95 153.095 1127.24 152.804C1127.53 152.513 1127.92 152.35 1128.34 152.35C1128.53 152.346 1128.73 152.384 1128.91 152.462C1129.09 152.539 1129.25 152.655 1129.39 152.8C1129.67 153.093 1129.84 153.488 1129.84 153.9C1129.84 154.312 1129.67 154.707 1129.39 155C1129.25 155.146 1129.09 155.262 1128.91 155.34C1128.72 155.418 1128.53 155.455 1128.33 155.45H1128.34ZM976.85 203.575V221H974.575V203.575H976.85ZM987.402 207.05C988.145 207.019 988.887 207.137 989.583 207.399C990.278 207.662 990.914 208.061 991.452 208.575C991.996 209.155 992.414 209.84 992.68 210.588C992.947 211.337 993.057 212.132 993.002 212.925V221H990.75V213.25C990.83 212.114 990.462 210.993 989.725 210.125C989.364 209.753 988.927 209.462 988.444 209.272C987.961 209.083 987.443 208.998 986.925 209.025C986.394 209 985.863 209.088 985.368 209.282C984.872 209.475 984.423 209.771 984.05 210.15C983.293 211.066 982.917 212.239 983 213.425V221H980.727V207.3H983.002V209.25C983.45 208.552 984.081 207.989 984.827 207.625C985.63 207.237 986.511 207.041 987.402 207.05V207.05ZM999.493 209.175V217.25C999.443 217.762 999.595 218.274 999.918 218.675C1000.34 218.985 1000.87 219.128 1001.39 219.075H1003.07V221H1001.02C999.992 221.078 998.974 220.766 998.168 220.125C997.819 219.738 997.554 219.282 997.39 218.788C997.227 218.293 997.168 217.769 997.218 217.25V209.175H995.444V207.3H997.219V203.85H999.494V207.3H1003.07V209.175H999.493ZM1007 205.075C1006.59 205.075 1006.19 204.912 1005.9 204.621C1005.61 204.33 1005.45 203.936 1005.45 203.525C1005.45 203.114 1005.61 202.72 1005.9 202.429C1006.19 202.138 1006.59 201.975 1007 201.975C1007.2 201.971 1007.39 202.009 1007.57 202.087C1007.75 202.164 1007.92 202.28 1008.05 202.425C1008.34 202.718 1008.5 203.113 1008.5 203.525C1008.5 203.937 1008.34 204.332 1008.05 204.625C1007.92 204.77 1007.75 204.885 1007.57 204.963C1007.39 205.04 1007.2 205.079 1007 205.075H1007ZM1008.1 207.3V221H1005.83V207.3H1008.1ZM1011.13 214.1C1011.1 212.823 1011.39 211.559 1011.98 210.425C1012.5 209.399 1013.31 208.541 1014.3 207.95C1015.31 207.364 1016.46 207.062 1017.63 207.075C1018.72 207.048 1019.8 207.315 1020.75 207.85C1021.57 208.308 1022.26 208.982 1022.73 209.8V207.3H1025.03V221H1022.73V218.45C1022.24 219.285 1021.54 219.976 1020.7 220.45C1019.76 220.983 1018.69 221.25 1017.6 221.225C1016.44 221.24 1015.3 220.928 1014.3 220.325C1013.31 219.714 1012.5 218.84 1011.98 217.8C1011.4 216.655 1011.1 215.384 1011.13 214.1H1011.13ZM1022.73 214.125C1022.75 213.187 1022.53 212.258 1022.1 211.425C1021.72 210.69 1021.12 210.082 1020.4 209.675C1019.7 209.257 1018.89 209.041 1018.08 209.05C1017.26 209.041 1016.46 209.248 1015.75 209.65C1015.04 210.063 1014.46 210.67 1014.08 211.4C1013.64 212.233 1013.43 213.162 1013.45 214.1C1013.43 215.054 1013.64 215.999 1014.08 216.85C1014.46 217.584 1015.04 218.198 1015.75 218.625C1016.46 219.019 1017.26 219.226 1018.08 219.226C1018.89 219.226 1019.69 219.019 1020.4 218.625C1021.12 218.204 1021.71 217.589 1022.1 216.85C1022.53 216.007 1022.75 215.071 1022.73 214.125H1022.73ZM1031.15 202.5V221H1028.87V202.5H1031.15ZM1047.22 221.175C1046.15 221.192 1045.1 220.988 1044.12 220.575C1043.27 220.203 1042.54 219.617 1041.99 218.875C1041.47 218.135 1041.19 217.254 1041.19 216.35H1043.62C1043.69 217.14 1044.04 217.878 1044.62 218.425C1045.35 219.02 1046.28 219.315 1047.22 219.25C1048.14 219.303 1049.04 219.019 1049.77 218.45C1050.07 218.194 1050.32 217.872 1050.48 217.508C1050.65 217.145 1050.73 216.749 1050.72 216.35C1050.74 215.759 1050.55 215.179 1050.17 214.725C1049.79 214.302 1049.32 213.976 1048.79 213.775C1048.06 213.501 1047.32 213.268 1046.57 213.075C1045.62 212.842 1044.69 212.541 1043.79 212.175C1043.09 211.863 1042.48 211.382 1042.02 210.775C1041.5 210.01 1041.25 209.097 1041.29 208.175C1041.28 207.28 1041.53 206.4 1042.02 205.65C1042.52 204.903 1043.22 204.313 1044.04 203.95C1045 203.536 1046.03 203.331 1047.07 203.35C1048.5 203.287 1049.91 203.72 1051.07 204.575C1051.58 204.96 1052 205.449 1052.3 206.009C1052.61 206.57 1052.79 207.189 1052.84 207.825H1050.34C1050.29 207.478 1050.17 207.145 1049.99 206.845C1049.81 206.545 1049.57 206.283 1049.29 206.075C1048.59 205.531 1047.73 205.256 1046.84 205.3C1046 205.264 1045.18 205.53 1044.52 206.05C1044.22 206.297 1043.98 206.612 1043.82 206.968C1043.67 207.324 1043.6 207.712 1043.62 208.1C1043.59 208.664 1043.78 209.217 1044.14 209.65C1044.51 210.051 1044.96 210.367 1045.47 210.575C1046 210.775 1046.74 211.008 1047.69 211.275C1048.64 211.521 1049.57 211.839 1050.47 212.225C1051.18 212.536 1051.8 213.027 1052.27 213.65C1052.8 214.406 1053.07 215.323 1053.02 216.25C1053.02 217.097 1052.78 217.928 1052.34 218.65C1051.86 219.432 1051.16 220.064 1050.34 220.475C1049.37 220.962 1048.3 221.202 1047.21 221.175H1047.22ZM1068.52 207.3V221H1066.24V218.975C1065.79 219.684 1065.16 220.255 1064.41 220.625C1063.62 221.014 1062.75 221.211 1061.86 221.2C1060.87 221.216 1059.88 220.993 1058.99 220.55C1058.13 220.095 1057.43 219.4 1056.96 218.55C1056.45 217.553 1056.2 216.444 1056.24 215.325V207.3H1058.49V215.025C1058.41 216.16 1058.78 217.279 1059.51 218.15C1059.88 218.516 1060.32 218.8 1060.8 218.985C1061.28 219.171 1061.8 219.252 1062.31 219.225C1062.84 219.253 1063.38 219.167 1063.87 218.973C1064.37 218.779 1064.82 218.481 1065.19 218.1C1065.94 217.184 1066.32 216.011 1066.24 214.825V207.3H1068.52ZM1074.63 209.825C1075.12 209.01 1075.81 208.337 1076.63 207.875C1077.58 207.329 1078.66 207.052 1079.76 207.075C1080.92 207.06 1082.06 207.362 1083.06 207.95C1084.06 208.535 1084.88 209.394 1085.41 210.425C1085.99 211.559 1086.29 212.823 1086.26 214.1C1086.28 215.384 1085.99 216.655 1085.41 217.8C1084.88 218.84 1084.07 219.712 1083.07 220.317C1082.07 220.922 1080.93 221.237 1079.76 221.225C1078.67 221.246 1077.6 220.979 1076.66 220.45C1075.83 219.97 1075.13 219.291 1074.63 218.475V227.5H1072.35V207.3H1074.62L1074.63 209.825ZM1083.93 214.1C1083.96 213.162 1083.74 212.233 1083.31 211.4C1082.92 210.665 1082.33 210.057 1081.61 209.65C1080.9 209.248 1080.1 209.041 1079.28 209.05C1078.47 209.046 1077.66 209.261 1076.96 209.675C1076.24 210.097 1075.65 210.712 1075.26 211.45C1074.83 212.275 1074.61 213.195 1074.63 214.125C1074.61 215.071 1074.83 216.007 1075.26 216.85C1075.64 217.581 1076.22 218.191 1076.93 218.61C1077.64 219.03 1078.46 219.243 1079.28 219.225C1080.1 219.234 1080.9 219.027 1081.61 218.625C1082.33 218.204 1082.92 217.589 1083.31 216.85C1083.74 215.999 1083.95 215.054 1083.93 214.1H1083.93ZM1091.53 209.825C1092.02 209.01 1092.71 208.337 1093.53 207.875C1094.48 207.329 1095.56 207.052 1096.66 207.075C1097.82 207.06 1098.96 207.362 1099.96 207.95C1100.96 208.535 1101.78 209.394 1102.31 210.425C1102.89 211.559 1103.19 212.823 1103.16 214.1C1103.18 215.384 1102.89 216.655 1102.31 217.8C1101.78 218.84 1100.97 219.712 1099.97 220.317C1098.97 220.922 1097.83 221.237 1096.66 221.225C1095.57 221.246 1094.5 220.979 1093.56 220.45C1092.73 219.97 1092.03 219.291 1091.53 218.475V227.5H1089.25V207.3H1091.53L1091.53 209.825ZM1100.83 214.1C1100.86 213.162 1100.64 212.233 1100.21 211.4C1099.82 210.665 1099.23 210.057 1098.51 209.65C1097.8 209.248 1097 209.041 1096.18 209.05C1095.37 209.046 1094.56 209.261 1093.86 209.675C1093.14 210.097 1092.55 210.711 1092.16 211.45C1091.73 212.275 1091.51 213.195 1091.53 214.125C1091.51 215.071 1091.73 216.007 1092.16 216.85C1092.54 217.581 1093.12 218.191 1093.83 218.61C1094.54 219.03 1095.36 219.243 1096.18 219.225C1097 219.234 1097.8 219.027 1098.51 218.625C1099.23 218.204 1099.82 217.589 1100.21 216.85C1100.64 215.998 1100.85 215.053 1100.82 214.1H1100.83ZM1108.43 202.5V221H1106.15V202.5H1108.43ZM1124.1 207.3L1115.85 227.45H1113.5L1116.2 220.85L1110.67 207.3H1113.19L1117.49 218.4L1121.74 207.3H1124.1ZM1127.12 221.15C1126.71 221.15 1126.31 220.987 1126.02 220.696C1125.73 220.405 1125.57 220.011 1125.57 219.6C1125.57 219.189 1125.73 218.795 1126.02 218.504C1126.31 218.213 1126.71 218.05 1127.12 218.05C1127.31 218.046 1127.51 218.084 1127.69 218.162C1127.87 218.24 1128.03 218.355 1128.17 218.5C1128.46 218.793 1128.62 219.188 1128.62 219.6C1128.62 220.012 1128.46 220.407 1128.17 220.7C1128.03 220.846 1127.87 220.962 1127.69 221.04C1127.5 221.118 1127.31 221.155 1127.11 221.15H1127.12ZM1127.12 210.45C1126.71 210.45 1126.31 210.287 1126.02 209.996C1125.73 209.705 1125.57 209.311 1125.57 208.9C1125.57 208.489 1125.73 208.095 1126.02 207.804C1126.31 207.513 1126.71 207.35 1127.12 207.35C1127.31 207.346 1127.51 207.384 1127.69 207.462C1127.87 207.54 1128.03 207.655 1128.17 207.8C1128.46 208.093 1128.62 208.488 1128.62 208.9C1128.62 209.312 1128.46 209.707 1128.17 210C1128.03 210.146 1127.87 210.262 1127.69 210.34C1127.5 210.418 1127.31 210.455 1127.11 210.45H1127.12Z" fill="#606060"/>
</g>
</svg>
