<svg width="95" height="82" viewBox="0 0 95 82" fill="none" xmlns="http://www.w3.org/2000/svg">
<path d="M0.655884 41.3019L23.9839 81.6219L24.2719 81.9099H71.2159L94.5439 41.3019L71.2159 0.981854L70.9279 0.693848H24.2719L0.655884 41.3019ZM2.09588 41.0139L24.2719 2.42183L46.4479 41.0139H2.09588ZM39.5359 41.8779H46.7359L24.5599 80.4699L2.38388 41.8779H39.5359ZM47.5999 42.4539L69.7759 81.0459H25.4239L47.5999 42.4539ZM48.4639 41.8779H93.1039L70.9279 80.4699L48.4639 41.8779ZM48.4639 41.0139L70.6399 2.42183L92.8159 41.0139H48.4639ZM47.5999 40.4379L25.4239 1.84582H70.0639L47.5999 40.4379Z" fill="url(#paint0_linear)"/>
<defs>
<linearGradient id="paint0_linear" x1="80.4348" y1="-5.03736" x2="11.3147" y2="92.8798" gradientUnits="userSpaceOnUse">
<stop stop-color="#00C8FF"/>
<stop offset="1" stop-color="#8D54FF"/>
</linearGradient>
</defs>
</svg>
